{
.appVersion = "117";
DisplayStrings = (
"0"
);
copyright = "Copyright (c) 2016-2022 Apple Inc. All rights reserved.";
customParameters = (
{
name = "Family Alignment Zones";
value = (
"{430, 7}",
"{339, 8}",
"{0, -8}",
"{-107, -17}"
);
}
);
date = "2022-07-23 00:08:00 +0000";
designer = "Apple Inc.";
designerURL = "http://www.apple.com/";
familyName = "SF Mono";
featurePrefixes = (
{
automatic = 1;
code = "languagesystem DFLT dflt;\012languagesystem latn dflt;\012languagesystem latn CAT;\012languagesystem latn ROM;\012languagesystem latn MOL;\012languagesystem latn KAZ;\012languagesystem latn TAT;\012languagesystem latn TRK;\012languagesystem latn CRT;\012languagesystem latn AZE;\012";
name = Languagesystems;
}
);
features = (
{
automatic = 1;
code = "feature locl;\012feature frac;\012feature ordn;\012feature smcp;\012";
name = aalt;
},
{
automatic = 1;
code = "script latn;\012language CAT;\012sub  l' periodcentered' l by ldot;\012sub  L' periodcentered' L by Ldot;\012language ROM;\012sub Scedilla by Scommaaccent;\012sub scedilla by scommaaccent;\012sub Tcedilla by Tcommaaccent;\012sub tcedilla by tcommaaccent;\012language MOL;\012sub Scedilla by Scommaaccent;\012sub scedilla by scommaaccent;\012sub Tcedilla by Tcommaaccent;\012sub tcedilla by tcommaaccent;\012language KAZ;\012sub i by idotaccent;\012language TAT;\012sub i by idotaccent;\012language TRK;\012sub i by idotaccent;\012language CRT;\012sub i by idotaccent;\012language AZE;\012sub i by idotaccent;\012";
name = locl;
},
{
automatic = 1;
code = "sub one slash four by onequarter;\012sub one slash two by onehalf;\012sub three slash four by threequarters;\012";
name = frac;
},
{
automatic = 1;
code = "sub [zero one two three four five six seven eight nine] [A a]' by ordfeminine;\012sub [zero one two three four five six seven eight nine] [O o]' by ordmasculine;\012sub N o period by numero;\012";
name = ordn;
},
{
automatic = 1;

glyphs = (
{
glyphname = A;
layers = (
{
layerId = "FD6F9899-E567-4A26-8444-C317D4100EC1";
paths = (
{
closed = 1;
nodes = (
"1036 0 LINE",
"1176 0 LINE",
"700 1443 LINE",
"566 1443 LINE",
"90 0 LINE",
"230 0 LINE",
"371 442 LINE",
"895 442 LINE"
);
},
{
closed = 1;
nodes = (
"632 1264 LINE",
"634 1264 LINE",
"858 560 LINE",
"408 560 LINE"
);
}
);
width = 1266;
}
);
note = A;
unicode = 0041;
},
{
glyphname = Aacute;
layers = (
{
layerId = "FD6F9899-E567-4A26-8444-C317D4100EC1";
paths = (
{
closed = 1;
nodes = (
"526 1617 LINE",
"684 1617 LINE",
"1010 1914 LINE",
"836 1914 LINE"
);
},
{
closed = 1;
nodes = (
"1036 0 LINE",
"1176 0 LINE",
"700 1443 LINE",
"566 1443 LINE",
"90 0 LINE",
"230 0 LINE",
"371 442 LINE",
"895 442 LINE"
);
},
{
closed = 1;
nodes = (
"632 1264 LINE",
"634 1264 LINE",
"858 560 LINE",
"408 560 LINE"
);
}
);
width = 1266;
}
);
note = Aacute;
unicode = 00C1;
},
{
glyphname = Abreve;
layers = (
{
layerId = "FD6F9899-E567-4A26-8444-C317D4100EC1";
paths = (
{
closed = 1;
nodes = (
"303 1914 LINE",
"303 1739 OFFCURVE",
"439 1617 OFFCURVE",
"633 1617 CURVE SMOOTH",
"827 1617 OFFCURVE",
"963 1739 OFFCURVE",
"963 1914 CURVE",
"845 1914 LINE",
"845 1799 OFFCURVE",
"756 1715 OFFCURVE",
"633 1715 CURVE SMOOTH",
"510 1715 OFFCURVE",
"421 1799 OFFCURVE",
"421 1914 CURVE"
);
},
{
closed = 1;
nodes = (
"1036 0 LINE",
"1176 0 LINE",
"700 1443 LINE",
"566 1443 LINE",
"90 0 LINE",
"230 0 LINE",
"371 442 LINE",
"895 442 LINE"
);
},
{
closed = 1;
nodes = (
"632 1264 LINE",
"634 1264 LINE",
"858 560 LINE",
"408 560 LINE"
);
}
);
width = 1266;
}
);
note = Abreve;
unicode = 0102;
},
{
glyphname = Abreveacute;
layers = (
{
layerId = "FD6F9899-E567-4A26-8444-C317D4100EC1";
paths = (
{
closed = 1;
nodes = (
"526 1838 LINE",
"665 1838 LINE",
"848 2046 LINE",
"690 2046 LINE"
);
},
{
closed = 1;
nodes = (
"303 1838 LINE",
"303 1676 OFFCURVE",
"428 1577 OFFCURVE",
"633 1577 CURVE SMOOTH",
"838 1577 OFFCURVE",
"963 1676 OFFCURVE",
"963 1838 CURVE",
"845 1838 LINE",
"845 1735 OFFCURVE",
"766 1675 OFFCURVE",
"633 1675 CURVE SMOOTH",
"500 1675 OFFCURVE",
"421 1735 OFFCURVE",
"421 1838 CURVE"
);
},
{
closed = 1;
nodes = (
"1036 0 LINE",
"1176 0 LINE",
"700 1443 LINE",
"566 1443 LINE",
"90 0 LINE",
"230 0 LINE",
"371 442 LINE",
"895 442 LINE"
);
},
{
closed = 1;
nodes = (
"632 1264 LINE",
"634 1264 LINE",
"858 560 LINE",
"408 560 LINE"
);
}
);
width = 1266;
}
);
note = Abreveacute;
unicode = 1EAE;
},
{
glyphname = Abrevedotbelow;
layers = (
{
layerId = "FD6F9899-E567-4A26-8444-C317D4100EC1";
paths = (
{
closed = 1;
nodes = (
"303 1914 LINE",
"303 1739 OFFCURVE",
"439 1617 OFFCURVE",
"633 1617 CURVE SMOOTH",
"827 1617 OFFCURVE",
"963 1739 OFFCURVE",
"963 1914 CURVE",
"845 1914 LINE",
"845 1799 OFFCURVE",
"756 1715 OFFCURVE",
"633 1715 CURVE SMOOTH",
"510 1715 OFFCURVE",
"421 1799 OFFCURVE",
"421 1914 CURVE"
);
},
{
closed = 1;
nodes = (
"1036 0 LINE",
"1176 0 LINE",
"700 1443 LINE",
"566 1443 LINE",
"90 0 LINE",
"230 0 LINE",
"371 442 LINE",
"895 442 LINE"
);
},
{
closed = 1;
nodes = (
"632 1264 LINE",
"634 1264 LINE",
"858 560 LINE",
"408 560 LINE"
);
},
{
closed = 1;
nodes = (
"694 -440 OFFCURVE",
"747 -388 OFFCURVE",
"747 -327 CURVE SMOOTH",
"747 -266 OFFCURVE",
"694 -214 OFFCURVE",
"633 -214 CURVE SMOOTH",
"572 -214 OFFCURVE",
"519 -266 OFFCURVE",
"519 -327 CURVE SMOOTH",
"519 -388 OFFCURVE",
"572 -440 OFFCURVE",
"633 -440 CURVE SMOOTH"
);
}
);
width = 1266;
}
);
note = Abrevedotbelow;
unicode = 1EB6;
},
{
glyphname = Abrevegrave;
layers = (
{
layerId = "FD6F9899-E567-4A26-8444-C317D4100EC1";
paths = (
{
closed = 1;
nodes = (
"740 1838 LINE",
"576 2046 LINE",
"418 2046 LINE",
"601 1838 LINE"
);
},
{
closed = 1;
nodes = (
"303 1838 LINE",
"303 1676 OFFCURVE",
"428 1577 OFFCURVE",
"633 1577 CURVE SMOOTH",
"838 1577 OFFCURVE",
"963 1676 OFFCURVE",
"963 1838 CURVE",
"845 1838 LINE",
"845 1735 OFFCURVE",
"766 1675 OFFCURVE",
"633 1675 CURVE SMOOTH",
"500 1675 OFFCURVE",
"421 1735 OFFCURVE",
"421 1838 CURVE"
);
},
{
closed = 1;
nodes = (
"1036 0 LINE",
"1176 0 LINE",
"700 1443 LINE",
"566 1443 LINE",
"90 0 LINE",
"230 0 LINE",
"371 442 LINE",
"895 442 LINE"
);
},
{
closed = 1;
nodes = (
"632 1264 LINE",
"634 1264 LINE",
"858 560 LINE",
"408 560 LINE"
);
}
);
width = 1266;
}
);
note = Abrevegrave;
unicode = 1EB0;
},
{
glyphname = Abrevehookabove;
layers = (
{
layerId = "FD6F9899-E567-4A26-8444-C317D4100EC1";
paths = (
{
closed = 1;
nodes = (
"483 1975 LINE",
"503 1986 OFFCURVE",
"544 1994 OFFCURVE",
"577 1994 CURVE SMOOTH",
"628 1994 OFFCURVE",
"663 1966 OFFCURVE",
"663 1925 CURVE SMOOTH",
"663 1884 OFFCURVE",
"632 1847 OFFCURVE",
"583 1828 CURVE",
"658 1770 LINE",
"727 1795 OFFCURVE",
"774 1860 OFFCURVE",
"774 1930 CURVE SMOOTH",
"774 2017 OFFCURVE",
"706 2076 OFFCURVE",
"606 2076 CURVE SMOOTH",
"558 2076 OFFCURVE",
"506 2068 OFFCURVE",
"483 2057 CURVE"
);
},
{
closed = 1;
nodes = (
"303 1838 LINE",
"303 1676 OFFCURVE",
"428 1577 OFFCURVE",
"633 1577 CURVE SMOOTH",
"838 1577 OFFCURVE",
"963 1676 OFFCURVE",
"963 1838 CURVE",
"845 1838 LINE",
"845 1735 OFFCURVE",
"766 1675 OFFCURVE",
"633 1675 CURVE SMOOTH",
"500 1675 OFFCURVE",
"421 1735 OFFCURVE",
"421 1838 CURVE"
);
},
{
closed = 1;
nodes = (
"1036 0 LINE",
"1176 0 LINE",
"700 1443 LINE",
"566 1443 LINE",
"90 0 LINE",
"230 0 LINE",
"371 442 LINE",
"895 442 LINE"
);
},
{
closed = 1;
nodes = (
"632 1264 LINE",
"634 1264 LINE",
"858 560 LINE",
"408 560 LINE"
);
}
);
width = 1266;
}
);
note = Abrevehookabove;
unicode = 1EB2;
},
{
glyphname = Abrevetilde;
layers = (
{
layerId = "FD6F9899-E567-4A26-8444-C317D4100EC1";
paths = (
{
closed = 1;
nodes = (
"885 1845 OFFCURVE",
"966 1928 OFFCURVE",
"966 2042 CURVE",
"861 2042 LINE",
"859 1984 OFFCURVE",
"821 1944 OFFCURVE",
"766 1944 CURVE SMOOTH",
"673 1944 OFFCURVE",
"643 2070 OFFCURVE",
"491 2070 CURVE SMOOTH",
"378 2070 OFFCURVE",
"300 1990 OFFCURVE",
"300 1873 CURVE",
"406 1873 LINE",
"407 1933 OFFCURVE",
"443 1971 OFFCURVE",
"500 1971 CURVE SMOOTH",
"593 1971 OFFCURVE",
"623 1845 OFFCURVE",
"775 1845 CURVE SMOOTH"
);
},
{
closed = 1;
nodes = (
"303 1797 LINE",
"303 1673 OFFCURVE",
"447 1577 OFFCURVE",
"633 1577 CURVE SMOOTH",
"819 1577 OFFCURVE",
"963 1673 OFFCURVE",
"963 1797 CURVE",
"845 1797 LINE",
"845 1730 OFFCURVE",
"750 1675 OFFCURVE",
"633 1675 CURVE SMOOTH",
"516 1675 OFFCURVE",
"421 1730 OFFCURVE",
"421 1797 CURVE"
);
},
{
closed = 1;
nodes = (
"1036 0 LINE",
"1176 0 LINE",
"700 1443 LINE",
"566 1443 LINE",
"90 0 LINE",
"230 0 LINE",
"371 442 LINE",
"895 442 LINE"
);
},
{
closed = 1;
nodes = (
"632 1264 LINE",
"634 1264 LINE",
"858 560 LINE",
"408 560 LINE"
);
}
);
width = 1266;
}
);
note = Abrevetilde;
unicode = 1EB4;
},
{
glyphname = Acaron;
layers = (
{
layerId = "FD6F9899-E567-4A26-8444-C317D4100EC1";
paths = (
{
closed = 1;
nodes = (
"695 1617 LINE",
"984 1914 LINE",
"829 1914 LINE",
"639 1712 LINE",
"627 1712 LINE",
"437 1914 LINE",
"282 1914 LINE",
"571 1617 LINE"
);
},
{
closed = 1;
nodes = (
"1036 0 LINE",
"1176 0 LINE",
"700 1443 LINE",
"566 1443 LINE",
"90 0 LINE",
"230 0 LINE",
"371 442 LINE",
"895 442 LINE"
);
},
{
closed = 1;
nodes = (
"632 1264 LINE",
"634 1264 LINE",
"858 560 LINE",
"408 560 LINE"
);
}
);
width = 1266;
}
);
note = Acaron;
unicode = 01CD;
},
{
glyphname = Acircumflex;
layers = (
{
layerId = "FD6F9899-E567-4A26-8444-C317D4100EC1";
paths = (
{
closed = 1;
nodes = (
"695 1914 LINE",
"571 1914 LINE",
"282 1617 LINE",
"437 1617 LINE",
"627 1819 LINE",
"639 1819 LINE",
"829 1617 LINE",
"984 1617 LINE"
);
},
{
closed = 1;
nodes = (
"1036 0 LINE",
"1176 0 LINE",
"700 1443 LINE",
"566 1443 LINE",
"90 0 LINE",
"230 0 LINE",
"371 442 LINE",
"895 442 LINE"
);
},
{
closed = 1;
nodes = (
"632 1264 LINE",
"634 1264 LINE",
"858 560 LINE",
"408 560 LINE"
);
}
);
width = 1266;
}
);
note = Acircumflex;
unicode = 00C2;
},
{
glyphname = Acircumflexacute;
layers = (
{
layerId = "FD6F9899-E567-4A26-8444-C317D4100EC1";
paths = (
{
closed = 1;
nodes = (
"823 1829 LINE",
"972 1829 LINE",
"1215 2046 LINE",
"1047 2046 LINE"
);
},
{
closed = 1;
nodes = (
"706 1801 LINE",
"560 1801 LINE",
"275 1577 LINE",
"447 1577 LINE",
"627 1723 LINE",
"639 1723 LINE",
"819 1577 LINE",
"991 1577 LINE"
);
},
{
closed = 1;
nodes = (
"1036 0 LINE",
"1176 0 LINE",
"700 1443 LINE",
"566 1443 LINE",
"90 0 LINE",
"230 0 LINE",
"371 442 LINE",
"895 442 LINE"
);
},
{
closed = 1;
nodes = (
"632 1264 LINE",
"634 1264 LINE",
"858 560 LINE",
"408 560 LINE"
);
}
);
width = 1266;
}
);
note = Acircumflexacute;
unicode = 1EA4;
},
{
glyphname = Acircumflexdotbelow;
layers = (
{
layerId = "FD6F9899-E567-4A26-8444-C317D4100EC1";
paths = (
{
closed = 1;
nodes = (
"695 1914 LINE",
"571 1914 LINE",
"282 1617 LINE",
"437 1617 LINE",
"627 1819 LINE",
"639 1819 LINE",
"829 1617 LINE",
"984 1617 LINE"
);
},
{
closed = 1;
nodes = (
"1036 0 LINE",
"1176 0 LINE",
"700 1443 LINE",
"566 1443 LINE",
"90 0 LINE",
"230 0 LINE",
"371 442 LINE",
"895 442 LINE"
);
},
{
closed = 1;
nodes = (
"632 1264 LINE",
"634 1264 LINE",
"858 560 LINE",
"408 560 LINE"
);
},
{
closed = 1;
nodes = (
"694 -440 OFFCURVE",
"747 -388 OFFCURVE",
"747 -327 CURVE SMOOTH",
"747 -266 OFFCURVE",
"694 -214 OFFCURVE",
"633 -214 CURVE SMOOTH",
"572 -214 OFFCURVE",
"519 -266 OFFCURVE",
"519 -327 CURVE SMOOTH",
"519 -388 OFFCURVE",
"572 -440 OFFCURVE",
"633 -440 CURVE SMOOTH"
);
}
);
width = 1266;
}
);
note = Acircumflexdotbelow;
unicode = 1EAC;
},
{
glyphname = Acircumflexgrave;
layers = (
{
layerId = "FD6F9899-E567-4A26-8444-C317D4100EC1";
paths = (
{
closed = 1;
nodes = (
"1041 1829 LINE",
"817 2046 LINE",
"649 2046 LINE",
"892 1829 LINE"
);
},
{
closed = 1;
nodes = (
"706 1801 LINE",
"560 1801 LINE",
"275 1577 LINE",
"447 1577 LINE",
"627 1723 LINE",
"639 1723 LINE",
"819 1577 LINE",
"991 1577 LINE"
);
},
{
closed = 1;
nodes = (
"1036 0 LINE",
"1176 0 LINE",
"700 1443 LINE",
"566 1443 LINE",
"90 0 LINE",
"230 0 LINE",
"371 442 LINE",
"895 442 LINE"
);
},
{
closed = 1;
nodes = (
"632 1264 LINE",
"634 1264 LINE",
"858 560 LINE",
"408 560 LINE"
);
}
);
width = 1266;
}
);
note = Acircumflexgrave;
unicode = 1EA6;
},
{
glyphname = Acircumflexhookabove;
layers = (
{
layerId = "FD6F9899-E567-4A26-8444-C317D4100EC1";
paths = (
{
closed = 1;
nodes = (
"748 1975 LINE",
"768 1986 OFFCURVE",
"809 1994 OFFCURVE",
"842 1994 CURVE SMOOTH",
"893 1994 OFFCURVE",
"928 1966 OFFCURVE",
"928 1925 CURVE SMOOTH",
"928 1884 OFFCURVE",
"897 1847 OFFCURVE",
"848 1828 CURVE",
"923 1770 LINE",
"992 1795 OFFCURVE",
"1039 1860 OFFCURVE",
"1039 1930 CURVE SMOOTH",
"1039 2017 OFFCURVE",
"971 2076 OFFCURVE",
"871 2076 CURVE SMOOTH",
"823 2076 OFFCURVE",
"771 2068 OFFCURVE",
"748 2057 CURVE"
);
},
{
closed = 1;
nodes = (
"706 1801 LINE",
"560 1801 LINE",
"275 1577 LINE",
"447 1577 LINE",
"627 1723 LINE",
"639 1723 LINE",
"819 1577 LINE",
"991 1577 LINE"
);
},
{
closed = 1;
nodes = (
"1036 0 LINE",
"1176 0 LINE",
"700 1443 LINE",
"566 1443 LINE",
"90 0 LINE",
"230 0 LINE",
"371 442 LINE",
"895 442 LINE"
);
},
{
closed = 1;
nodes = (
"632 1264 LINE",
"634 1264 LINE",
"858 560 LINE",
"408 560 LINE"
);
}
);
width = 1266;
}
);
note = Acircumflexhookabove;
unicode = 1EA8;
},
{
glyphname = Acircumflextilde;
layers = (
{
layerId = "FD6F9899-E567-4A26-8444-C317D4100EC1";
paths = (
{
closed = 1;
nodes = (
"889 1849 OFFCURVE",
"972 1941 OFFCURVE",
"972 2072 CURVE",
"867 2072 LINE",
"863 1994 OFFCURVE",
"828 1950 OFFCURVE",
"771 1950 CURVE SMOOTH",
"664 1950 OFFCURVE",
"665 2086 OFFCURVE",
"496 2086 CURVE SMOOTH",
"375 2086 OFFCURVE",
"294 1997 OFFCURVE",
"294 1864 CURVE",
"400 1864 LINE",
"403 1944 OFFCURVE",
"436 1986 OFFCURVE",
"495 1986 CURVE SMOOTH",
"602 1986 OFFCURVE",
"601 1849 OFFCURVE",
"770 1849 CURVE SMOOTH"
);
},
{
closed = 1;
nodes = (
"706 1801 LINE",
"560 1801 LINE",
"275 1577 LINE",
"447 1577 LINE",
"627 1723 LINE",
"639 1723 LINE",
"819 1577 LINE",
"991 1577 LINE"
);
},
{
closed = 1;
nodes = (
"1036 0 LINE",
"1176 0 LINE",
"700 1443 LINE",
"566 1443 LINE",
"90 0 LINE",
"230 0 LINE",
"371 442 LINE",
"895 442 LINE"
);
},
{
closed = 1;
nodes = (
"632 1264 LINE",
"634 1264 LINE",
"858 560 LINE",
"408 560 LINE"
);
}
);
width = 1266;
}
);
note = Acircumflextilde;
unicode = 1EAA;
},
{
glyphname = Adblgrave;
layers = (
{
layerId = "FD6F9899-E567-4A26-8444-C317D4100EC1";
paths = (
{
closed = 1;
nodes = (
"575 1617 LINE",
"265 1914 LINE",
"91 1914 LINE",
"417 1617 LINE"
);
},
{
closed = 1;
nodes = (
"939 1617 LINE",
"629 1914 LINE",
"455 1914 LINE",
"781 1617 LINE"
);
},
{
closed = 1;
nodes = (
"1036 0 LINE",
"1176 0 LINE",
"700 1443 LINE",
"566 1443 LINE",
"90 0 LINE",
"230 0 LINE",
"371 442 LINE",
"895 442 LINE"
);
},
{
closed = 1;
nodes = (
"632 1264 LINE",
"634 1264 LINE",
"858 560 LINE",
"408 560 LINE"
);
}
);
width = 1266;
}
);
note = Adblgrave;
unicode = 0200;
},
{
glyphname = Adieresis;
layers = (
{
layerId = "FD6F9899-E567-4A26-8444-C317D4100EC1";
paths = (
{
closed = 1;
nodes = (
"498 1666 OFFCURVE",
"548 1716 OFFCURVE",
"548 1773 CURVE SMOOTH",
"548 1830 OFFCURVE",
"498 1880 OFFCURVE",
"442 1880 CURVE SMOOTH",
"386 1880 OFFCURVE",
"336 1830 OFFCURVE",
"336 1773 CURVE SMOOTH",
"336 1716 OFFCURVE",
"386 1666 OFFCURVE",
"442 1666 CURVE SMOOTH"
);
},
{
closed = 1;
nodes = (
"880 1666 OFFCURVE",
"930 1716 OFFCURVE",
"930 1773 CURVE SMOOTH",
"930 1830 OFFCURVE",
"880 1880 OFFCURVE",
"824 1880 CURVE SMOOTH",
"768 1880 OFFCURVE",
"718 1830 OFFCURVE",
"718 1773 CURVE SMOOTH",
"718 1716 OFFCURVE",
"768 1666 OFFCURVE",
"824 1666 CURVE SMOOTH"
);
},
{
closed = 1;
nodes = (
"1036 0 LINE",
"1176 0 LINE",
"700 1443 LINE",
"566 1443 LINE",
"90 0 LINE",
"230 0 LINE",
"371 442 LINE",
"895 442 LINE"
);
},
{
closed = 1;
nodes = (
"632 1264 LINE",
"634 1264 LINE",
"858 560 LINE",
"408 560 LINE"
);
}
);
width = 1266;
}
);
note = Adieresis;
unicode = 00C4;
},
{
glyphname = Adieresismacron;
layers = (
{
layerId = "FD6F9899-E567-4A26-8444-C317D4100EC1";
paths = (
{
closed = 1;
nodes = (
"314 2012 LINE",
"314 1914 LINE",
"952 1914 LINE",
"952 2012 LINE"
);
},
{
closed = 1;
nodes = (
"400 1754 OFFCURVE",
"359 1713 OFFCURVE",
"359 1661 CURVE SMOOTH",
"359 1609 OFFCURVE",
"400 1568 OFFCURVE",
"452 1568 CURVE SMOOTH",
"504 1568 OFFCURVE",
"545 1609 OFFCURVE",
"545 1661 CURVE SMOOTH",
"545 1713 OFFCURVE",
"504 1754 OFFCURVE",
"452 1754 CURVE SMOOTH"
);
},
{
closed = 1;
nodes = (
"764 1754 OFFCURVE",
"723 1713 OFFCURVE",
"723 1661 CURVE SMOOTH",
"723 1609 OFFCURVE",
"764 1568 OFFCURVE",
"816 1568 CURVE SMOOTH",
"868 1568 OFFCURVE",
"909 1609 OFFCURVE",
"909 1661 CURVE SMOOTH",
"909 1713 OFFCURVE",
"868 1754 OFFCURVE",
"816 1754 CURVE SMOOTH"
);
},
{
closed = 1;
nodes = (
"1036 0 LINE",
"1176 0 LINE",
"700 1443 LINE",
"566 1443 LINE",
"90 0 LINE",
"230 0 LINE",
"371 442 LINE",
"895 442 LINE"
);
},
{
closed = 1;
nodes = (
"632 1264 LINE",
"634 1264 LINE",
"858 560 LINE",
"408 560 LINE"
);
}
);
width = 1266;
}
);
note = Adieresismacron;
unicode = 01DE;
},
{
glyphname = Adotaccent;
layers = (
{
layerId = "FD6F9899-E567-4A26-8444-C317D4100EC1";
paths = (
{
closed = 1;
nodes = (
"694 1660 OFFCURVE",
"747 1712 OFFCURVE",
"747 1773 CURVE SMOOTH",
"747 1834 OFFCURVE",
"694 1886 OFFCURVE",
"633 1886 CURVE SMOOTH",
"572 1886 OFFCURVE",
"519 1834 OFFCURVE",
"519 1773 CURVE SMOOTH",
"519 1712 OFFCURVE",
"572 1660 OFFCURVE",
"633 1660 CURVE SMOOTH"
);
},
{
closed = 1;
nodes = (
"1036 0 LINE",
"1176 0 LINE",
"700 1443 LINE",
"566 1443 LINE",
"90 0 LINE",
"230 0 LINE",
"371 442 LINE",
"895 442 LINE"
);
},
{
closed = 1;
nodes = (
"632 1264 LINE",
"634 1264 LINE",
"858 560 LINE",
"408 560 LINE"
);
}
);
width = 1266;
}
);
note = Adotaccent;
unicode = 0226;
},
{
glyphname = Adotbelow;
layers = (
{
layerId = "FD6F9899-E567-4A26-8444-C317D4100EC1";
paths = (
{
closed = 1;
nodes = (
"1036 0 LINE",
"1176 0 LINE",
"700 1443 LINE",
"566 1443 LINE",
"90 0 LINE",
"230 0 LINE",
"371 442 LINE",
"895 442 LINE"
);
},
{
closed = 1;
nodes = (
"632 1264 LINE",
"634 1264 LINE",
"858 560 LINE",
"408 560 LINE"
);
},
{
closed = 1;
nodes = (
"694 -440 OFFCURVE",
"747 -388 OFFCURVE",
"747 -327 CURVE SMOOTH",
"747 -266 OFFCURVE",
"694 -214 OFFCURVE",
"633 -214 CURVE SMOOTH",
"572 -214 OFFCURVE",
"519 -266 OFFCURVE",
"519 -327 CURVE SMOOTH",
"519 -388 OFFCURVE",
"572 -440 OFFCURVE",
"633 -440 CURVE SMOOTH"
);
}
);
width = 1266;
}
);
note = Adotbelow;
unicode = 1EA0;
},
{
glyphname = Adotmacron;
layers = (
{
layerId = "FD6F9899-E567-4A26-8444-C317D4100EC1";
paths = (
{
closed = 1;
nodes = (
"314 2012 LINE",
"314 1914 LINE",
"952 1914 LINE",
"952 2012 LINE"
);
},
{
closed = 1;
nodes = (
"575 1786 OFFCURVE",
"529 1740 OFFCURVE",
"529 1682 CURVE SMOOTH",
"529 1624 OFFCURVE",
"575 1578 OFFCURVE",
"633 1578 CURVE SMOOTH",
"691 1578 OFFCURVE",
"737 1624 OFFCURVE",
"737 1682 CURVE SMOOTH",
"737 1740 OFFCURVE",
"691 1786 OFFCURVE",
"633 1786 CURVE SMOOTH"
);
},
{
closed = 1;
nodes = (
"1036 0 LINE",
"1176 0 LINE",
"700 1443 LINE",
"566 1443 LINE",
"90 0 LINE",
"230 0 LINE",
"371 442 LINE",
"895 442 LINE"
);
},
{
closed = 1;
nodes = (
"632 1264 LINE",
"634 1264 LINE",
"858 560 LINE",
"408 560 LINE"
);
}
);
width = 1266;
}
);
note = Adotmacron;
unicode = 01E0;
},
{
glyphname = Agrave;
layers = (
{
layerId = "FD6F9899-E567-4A26-8444-C317D4100EC1";
paths = (
{
closed = 1;
nodes = (
"737 1617 LINE",
"427 1914 LINE",
"253 1914 LINE",
"579 1617 LINE"
);
},
{
closed = 1;
nodes = (
"1036 0 LINE",
"1176 0 LINE",
"700 1443 LINE",
"566 1443 LINE",
"90 0 LINE",
"230 0 LINE",
"371 442 LINE",
"895 442 LINE"
);
},
{
closed = 1;
nodes = (
"632 1264 LINE",
"634 1264 LINE",
"858 560 LINE",
"408 560 LINE"
);
}
);
width = 1266;
}
);
note = Agrave;
unicode = 00C0;
},
{
glyphname = Ahookabove;
layers = (
{
layerId = "FD6F9899-E567-4A26-8444-C317D4100EC1";
paths = (
{
closed = 1;
nodes = (
"470 1808 LINE",
"495 1822 OFFCURVE",
"537 1831 OFFCURVE",
"580 1831 CURVE SMOOTH",
"641 1831 OFFCURVE",
"681 1801 OFFCURVE",
"681 1757 CURVE SMOOTH",
"681 1715 OFFCURVE",
"640 1672 OFFCURVE",
"581 1652 CURVE",
"640 1576 LINE",
"732 1609 OFFCURVE",
"794 1686 OFFCURVE",
"794 1766 CURVE SMOOTH",
"794 1867 OFFCURVE",
"717 1930 OFFCURVE",
"596 1930 CURVE SMOOTH",
"552 1930 OFFCURVE",
"500 1920 OFFCURVE",
"470 1906 CURVE"
);
},
{
closed = 1;
nodes = (
"1036 0 LINE",
"1176 0 LINE",
"700 1443 LINE",
"566 1443 LINE",
"90 0 LINE",
"230 0 LINE",
"371 442 LINE",
"895 442 LINE"
);
},
{
closed = 1;
nodes = (
"632 1264 LINE",
"634 1264 LINE",
"858 560 LINE",
"408 560 LINE"
);
}
);
width = 1266;
}
);
note = Ahookabove;
unicode = 1EA2;
},
{
glyphname = Ainvertedbreve;
layers = (
{
layerId = "FD6F9899-E567-4A26-8444-C317D4100EC1";
paths = (
{
closed = 1;
nodes = (
"421 1617 LINE",
"421 1732 OFFCURVE",
"510 1816 OFFCURVE",
"633 1816 CURVE SMOOTH",
"756 1816 OFFCURVE",
"845 1732 OFFCURVE",
"845 1617 CURVE",
"963 1617 LINE",
"963 1792 OFFCURVE",
"827 1914 OFFCURVE",
"633 1914 CURVE SMOOTH",
"439 1914 OFFCURVE",
"303 1792 OFFCURVE",
"303 1617 CURVE"
);
},
{
closed = 1;
nodes = (
"1036 0 LINE",
"1176 0 LINE",
"700 1443 LINE",
"566 1443 LINE",
"90 0 LINE",
"230 0 LINE",
"371 442 LINE",
"895 442 LINE"
);
},
{
closed = 1;
nodes = (
"632 1264 LINE",
"634 1264 LINE",
"858 560 LINE",
"408 560 LINE"
);
}
);
width = 1266;
}
);
note = Ainvertedbreve;
unicode = 0202;
},
{
glyphname = Amacron;
layers = (
{
layerId = "FD6F9899-E567-4A26-8444-C317D4100EC1";
paths = (
{
closed = 1;
nodes = (
"952 1714 LINE",
"952 1832 LINE",
"314 1832 LINE",
"314 1714 LINE"
);
},
{
closed = 1;
nodes = (
"1036 0 LINE",
"1176 0 LINE",
"700 1443 LINE",
"566 1443 LINE",
"90 0 LINE",
"230 0 LINE",
"371 442 LINE",
"895 442 LINE"
);
},
{
closed = 1;
nodes = (
"632 1264 LINE",
"634 1264 LINE",
"858 560 LINE",
"408 560 LINE"
);
}
);
width = 1266;
}
);
note = Amacron;
unicode = 0100;
},
{
glyphname = Aogonek;
layers = (
{
layerId = "FD6F9899-E567-4A26-8444-C317D4100EC1";
paths = (
{
closed = 1;
nodes = (
"1176 -298 LINE",
"1157 -302 OFFCURVE",
"1131 -305 OFFCURVE",
"1109 -305 CURVE SMOOTH",
"1037 -305 OFFCURVE",
"986 -260 OFFCURVE",
"986 -197 CURVE SMOOTH",
"986 -116 OFFCURVE",
"1044 -54 OFFCURVE",
"1167 -4 CURVE SMOOTH",
"1176 0 LINE",
"700 1443 LINE",
"566 1443 LINE",
"90 0 LINE",
"230 0 LINE",
"371 442 LINE",
"895 442 LINE",
"1031 17 LINE",
"908 -50 OFFCURVE",
"857 -122 OFFCURVE",
"857 -224 CURVE SMOOTH",
"857 -339 OFFCURVE",
"944 -416 OFFCURVE",
"1073 -416 CURVE SMOOTH",
"1110 -416 OFFCURVE",
"1152 -410 OFFCURVE",
"1176 -402 CURVE"
);
},
{
closed = 1;
nodes = (
"632 1264 LINE",
"634 1264 LINE",
"858 560 LINE",
"408 560 LINE"
);
}
);
width = 1266;
}
);
note = Aogonek;
unicode = 0104;
},
{
glyphname = Aring;
layers = (
{
layerId = "FD6F9899-E567-4A26-8444-C317D4100EC1";
paths = (
{
closed = 1;
nodes = (
"739 1564 OFFCURVE",
"823 1648 OFFCURVE",
"823 1753 CURVE SMOOTH",
"823 1858 OFFCURVE",
"739 1942 OFFCURVE",
"633 1942 CURVE SMOOTH",
"527 1942 OFFCURVE",
"443 1858 OFFCURVE",
"443 1753 CURVE SMOOTH",
"443 1648 OFFCURVE",
"527 1564 OFFCURVE",
"633 1564 CURVE SMOOTH"
);
},
{
closed = 1;
nodes = (
"573 1648 OFFCURVE",
"528 1692 OFFCURVE",
"528 1753 CURVE SMOOTH",
"528 1814 OFFCURVE",
"573 1858 OFFCURVE",
"633 1858 CURVE SMOOTH",
"693 1858 OFFCURVE",
"738 1814 OFFCURVE",
"738 1753 CURVE SMOOTH",
"738 1692 OFFCURVE",
"693 1648 OFFCURVE",
"633 1648 CURVE SMOOTH"
);
},
{
closed = 1;
nodes = (
"1036 0 LINE",
"1176 0 LINE",
"700 1443 LINE",
"566 1443 LINE",
"90 0 LINE",
"230 0 LINE",
"371 442 LINE",
"895 442 LINE"
);
},
{
closed = 1;
nodes = (
"632 1264 LINE",
"634 1264 LINE",
"858 560 LINE",
"408 560 LINE"
);
}
);
width = 1266;
}
);
note = Aring;
unicode = 00C5;
},
{
glyphname = Aringacute;
layers = (
{
layerId = "FD6F9899-E567-4A26-8444-C317D4100EC1";
paths = (
{
closed = 1;
nodes = (
"698 2137 LINE",
"574 1968 LINE",
"700 1968 LINE",
"845 2137 LINE"
);
},
{
closed = 1;
nodes = (
"739 1532 OFFCURVE",
"823 1616 OFFCURVE",
"823 1721 CURVE SMOOTH",
"823 1826 OFFCURVE",
"739 1910 OFFCURVE",
"633 1910 CURVE SMOOTH",
"527 1910 OFFCURVE",
"443 1826 OFFCURVE",
"443 1721 CURVE SMOOTH",
"443 1616 OFFCURVE",
"527 1532 OFFCURVE",
"633 1532 CURVE SMOOTH"
);
},
{
closed = 1;
nodes = (
"573 1616 OFFCURVE",
"528 1660 OFFCURVE",
"528 1721 CURVE SMOOTH",
"528 1782 OFFCURVE",
"573 1826 OFFCURVE",
"633 1826 CURVE SMOOTH",
"693 1826 OFFCURVE",
"738 1782 OFFCURVE",
"738 1721 CURVE SMOOTH",
"738 1660 OFFCURVE",
"693 1616 OFFCURVE",
"633 1616 CURVE SMOOTH"
);
},
{
closed = 1;
nodes = (
"1036 0 LINE",
"1176 0 LINE",
"700 1443 LINE",
"566 1443 LINE",
"90 0 LINE",
"230 0 LINE",
"371 442 LINE",
"895 442 LINE"
);
},
{
closed = 1;
nodes = (
"632 1264 LINE",
"634 1264 LINE",
"858 560 LINE",
"408 560 LINE"
);
}
);
width = 1266;
}
);
note = Aringacute;
unicode = 01FA;
},
{
glyphname = Aringbelow;
layers = (
{
layerId = "FD6F9899-E567-4A26-8444-C317D4100EC1";
paths = (
{
closed = 1;
nodes = (
"1036 0 LINE",
"1176 0 LINE",
"700 1443 LINE",
"566 1443 LINE",
"90 0 LINE",
"230 0 LINE",
"371 442 LINE",
"895 442 LINE"
);
},
{
closed = 1;
nodes = (
"632 1264 LINE",
"634 1264 LINE",
"858 560 LINE",
"408 560 LINE"
);
},
{
closed = 1;
nodes = (
"755 -573 OFFCURVE",
"854 -472 OFFCURVE",
"854 -347 CURVE SMOOTH",
"854 -222 OFFCURVE",
"755 -121 OFFCURVE",
"633 -121 CURVE SMOOTH",
"511 -121 OFFCURVE",
"412 -222 OFFCURVE",
"412 -347 CURVE SMOOTH",
"412 -472 OFFCURVE",
"511 -573 OFFCURVE",
"633 -573 CURVE SMOOTH"
);
},
{
closed = 1;
nodes = (
"562 -478 OFFCURVE",
"509 -422 OFFCURVE",
"509 -347 CURVE SMOOTH",
"509 -272 OFFCURVE",
"562 -216 OFFCURVE",
"633 -216 CURVE SMOOTH",
"704 -216 OFFCURVE",
"757 -272 OFFCURVE",
"757 -347 CURVE SMOOTH",
"757 -422 OFFCURVE",
"704 -478 OFFCURVE",
"633 -478 CURVE SMOOTH"
);
}
);
width = 1266;
}
);
note = Aringbelow;
unicode = 1E00;
},
{
glyphname = Atilde;
layers = (
{
layerId = "FD6F9899-E567-4A26-8444-C317D4100EC1";
paths = (
{
closed = 1;
nodes = (
"901 1632 OFFCURVE",
"982 1733 OFFCURVE",
"982 1887 CURVE",
"877 1887 LINE",
"873 1789 OFFCURVE",
"836 1733 OFFCURVE",
"775 1733 CURVE SMOOTH",
"682 1733 OFFCURVE",
"651 1899 OFFCURVE",
"488 1899 CURVE SMOOTH",
"363 1899 OFFCURVE",
"284 1800 OFFCURVE",
"284 1643 CURVE",
"390 1643 LINE",
"393 1744 OFFCURVE",
"428 1797 OFFCURVE",
"491 1797 CURVE SMOOTH",
"598 1797 OFFCURVE",
"623 1632 OFFCURVE",
"778 1632 CURVE SMOOTH"
);
},
{
closed = 1;
nodes = (
"1036 0 LINE",
"1176 0 LINE",
"700 1443 LINE",
"566 1443 LINE",
"90 0 LINE",
"230 0 LINE",
"371 442 LINE",
"895 442 LINE"
);
},
{
closed = 1;
nodes = (
"632 1264 LINE",
"634 1264 LINE",
"858 560 LINE",
"408 560 LINE"
);
}
);
width = 1266;
}
);
note = Atilde;
unicode = 00C3;
},
{
glyphname = AE;
layers = (
{
layerId = "FD6F9899-E567-4A26-8444-C317D4100EC1";
paths = (
{
closed = 1;
nodes = (
"654 0 LINE",
"1228 0 LINE",
"1228 124 LINE",
"780 124 LINE",
"780 666 LINE",
"1192 666 LINE",
"1192 791 LINE",
"780 791 LINE",
"780 1320 LINE",
"1228 1320 LINE",
"1228 1443 LINE",
"468 1443 LINE",
"5 0 LINE",
"149 0 LINE",
"296 472 LINE",
"654 472 LINE"
);
},
{
closed = 1;
nodes = (
"560 1323 LINE",
"654 1323 LINE",
"654 589 LINE",
"332 589 LINE"
);
}
);
width = 1266;
}
);
note = AE;
unicode = 00C6;
},
{
glyphname = AEacute;
layers = (
{
layerId = "FD6F9899-E567-4A26-8444-C317D4100EC1";
paths = (
{
closed = 1;
nodes = (
"741 1617 LINE",
"899 1617 LINE",
"1225 1914 LINE",
"1051 1914 LINE"
);
},
{
closed = 1;
nodes = (
"654 0 LINE",
"1228 0 LINE",
"1228 124 LINE",
"780 124 LINE",
"780 666 LINE",
"1192 666 LINE",
"1192 791 LINE",
"780 791 LINE",
"780 1320 LINE",
"1228 1320 LINE",
"1228 1443 LINE",
"468 1443 LINE",
"5 0 LINE",
"149 0 LINE",
"296 472 LINE",
"654 472 LINE"
);
},
{
closed = 1;
nodes = (
"560 1323 LINE",
"654 1323 LINE",
"654 589 LINE",
"332 589 LINE"
);
}
);
width = 1266;
}
);
note = AEacute;
unicode = 01FC;
},
{
glyphname = AEmacron;
layers = (
{
layerId = "FD6F9899-E567-4A26-8444-C317D4100EC1";
paths = (
{
closed = 1;
nodes = (
"1167 1714 LINE",
"1167 1832 LINE",
"529 1832 LINE",
"529 1714 LINE"
);
},
{
closed = 1;
nodes = (
"654 0 LINE",
"1228 0 LINE",
"1228 124 LINE",
"780 124 LINE",
"780 666 LINE",
"1192 666 LINE",
"1192 791 LINE",
"780 791 LINE",
"780 1320 LINE",
"1228 1320 LINE",
"1228 1443 LINE",
"468 1443 LINE",
"5 0 LINE",
"149 0 LINE",
"296 472 LINE",
"654 472 LINE"
);
},
{
closed = 1;
nodes = (
"560 1323 LINE",
"654 1323 LINE",
"654 589 LINE",
"332 589 LINE"
);
}
);
width = 1266;
}
);
note = AEmacron;
unicode = 01E2;
},
{
glyphname = B;
layers = (
{
layerId = "FD6F9899-E567-4A26-8444-C317D4100EC1";
paths = (
{
closed = 1;
nodes = (
"649 0 LINE SMOOTH",
"960 0 OFFCURVE",
"1141 147 OFFCURVE",
"1141 399 CURVE SMOOTH",
"1141 595 OFFCURVE",
"1018 734 OFFCURVE",
"823 756 CURVE",
"823 769 LINE",
"967 796 OFFCURVE",
"1067 926 OFFCURVE",
"1067 1087 CURVE SMOOTH",
"1067 1310 OFFCURVE",
"910 1443 OFFCURVE",
"648 1443 CURVE SMOOTH",
"204 1443 LINE",
"204 0 LINE"
);
},
{
closed = 1;
nodes = (
"341 1322 LINE",
"622 1322 LINE SMOOTH",
"817 1322 OFFCURVE",
"929 1228 OFFCURVE",
"929 1065 CURVE SMOOTH",
"929 897 OFFCURVE",
"811 807 OFFCURVE",
"589 807 CURVE SMOOTH",
"341 807 LINE"
);
},
{
closed = 1;
nodes = (
"341 121 LINE",
"341 688 LINE",
"623 688 LINE SMOOTH",
"871 688 OFFCURVE",
"1001 591 OFFCURVE",
"1001 406 CURVE SMOOTH",
"1001 221 OFFCURVE",
"871 121 OFFCURVE",
"630 121 CURVE SMOOTH"
);
}
);
width = 1266;
}
);
note = B;
unicode = 0042;
},
{
glyphname = Bdotaccent;
layers = (
{
layerId = "FD6F9899-E567-4A26-8444-C317D4100EC1";
paths = (
{
closed = 1;
nodes = (
"646 1660 OFFCURVE",
"699 1712 OFFCURVE",
"699 1773 CURVE SMOOTH",
"699 1834 OFFCURVE",
"646 1886 OFFCURVE",
"585 1886 CURVE SMOOTH",
"524 1886 OFFCURVE",
"471 1834 OFFCURVE",
"471 1773 CURVE SMOOTH",
"471 1712 OFFCURVE",
"524 1660 OFFCURVE",
"585 1660 CURVE SMOOTH"
);
},
{
closed = 1;
nodes = (
"649 0 LINE SMOOTH",
"960 0 OFFCURVE",
"1141 147 OFFCURVE",
"1141 399 CURVE SMOOTH",
"1141 595 OFFCURVE",
"1018 734 OFFCURVE",
"823 756 CURVE",
"823 769 LINE",
"967 796 OFFCURVE",
"1067 926 OFFCURVE",
"1067 1087 CURVE SMOOTH",
"1067 1310 OFFCURVE",
"910 1443 OFFCURVE",
"648 1443 CURVE SMOOTH",
"204 1443 LINE",
"204 0 LINE"
);
},
{
closed = 1;
nodes = (
"341 1322 LINE",
"622 1322 LINE SMOOTH",
"817 1322 OFFCURVE",
"929 1228 OFFCURVE",
"929 1065 CURVE SMOOTH",
"929 897 OFFCURVE",
"811 807 OFFCURVE",
"589 807 CURVE SMOOTH",
"341 807 LINE"
);
},
{
closed = 1;
nodes = (
"341 121 LINE",
"341 688 LINE",
"623 688 LINE SMOOTH",
"871 688 OFFCURVE",
"1001 591 OFFCURVE",
"1001 406 CURVE SMOOTH",
"1001 221 OFFCURVE",
"871 121 OFFCURVE",
"630 121 CURVE SMOOTH"
);
}
);
width = 1266;
}
);
note = Bdotaccent;
unicode = 1E02;
},
{
glyphname = Bdotbelow;
layers = (
{
layerId = "FD6F9899-E567-4A26-8444-C317D4100EC1";
paths = (
{
closed = 1;
nodes = (
"649 0 LINE SMOOTH",
"960 0 OFFCURVE",
"1141 147 OFFCURVE",
"1141 399 CURVE SMOOTH",
"1141 595 OFFCURVE",
"1018 734 OFFCURVE",
"823 756 CURVE",
"823 769 LINE",
"967 796 OFFCURVE",
"1067 926 OFFCURVE",
"1067 1087 CURVE SMOOTH",
"1067 1310 OFFCURVE",
"910 1443 OFFCURVE",
"648 1443 CURVE SMOOTH",
"204 1443 LINE",
"204 0 LINE"
);
},
{
closed = 1;
nodes = (
"341 1322 LINE",
"622 1322 LINE SMOOTH",
"817 1322 OFFCURVE",
"929 1228 OFFCURVE",
"929 1065 CURVE SMOOTH",
"929 897 OFFCURVE",
"811 807 OFFCURVE",
"589 807 CURVE SMOOTH",
"341 807 LINE"
);
},
{
closed = 1;
nodes = (
"341 121 LINE",
"341 688 LINE",
"623 688 LINE SMOOTH",
"871 688 OFFCURVE",
"1001 591 OFFCURVE",
"1001 406 CURVE SMOOTH",
"1001 221 OFFCURVE",
"871 121 OFFCURVE",
"630 121 CURVE SMOOTH"
);
},
{
closed = 1;
nodes = (
"646 -440 OFFCURVE",
"699 -388 OFFCURVE",
"699 -327 CURVE SMOOTH",
"699 -266 OFFCURVE",
"646 -214 OFFCURVE",
"585 -214 CURVE SMOOTH",
"524 -214 OFFCURVE",
"471 -266 OFFCURVE",
"471 -327 CURVE SMOOTH",
"471 -388 OFFCURVE",
"524 -440 OFFCURVE",
"585 -440 CURVE SMOOTH"
);
}
);
width = 1266;
}
);
note = Bdotbelow;
unicode = 1E04;
},
{
glyphname = Blinebelow;
layers = (
{
layerId = "FD6F9899-E567-4A26-8444-C317D4100EC1";
paths = (
{
closed = 1;
nodes = (
"649 0 LINE SMOOTH",
"960 0 OFFCURVE",
"1141 147 OFFCURVE",
"1141 399 CURVE SMOOTH",
"1141 595 OFFCURVE",
"1018 734 OFFCURVE",
"823 756 CURVE",
"823 769 LINE",
"967 796 OFFCURVE",
"1067 926 OFFCURVE",
"1067 1087 CURVE SMOOTH",
"1067 1310 OFFCURVE",
"910 1443 OFFCURVE",
"648 1443 CURVE SMOOTH",
"204 1443 LINE",
"204 0 LINE"
);
},
{
closed = 1;
nodes = (
"341 1322 LINE",
"622 1322 LINE SMOOTH",
"817 1322 OFFCURVE",
"929 1228 OFFCURVE",
"929 1065 CURVE SMOOTH",
"929 897 OFFCURVE",
"811 807 OFFCURVE",
"589 807 CURVE SMOOTH",
"341 807 LINE"
);
},
{
closed = 1;
nodes = (
"341 121 LINE",
"341 688 LINE",
"623 688 LINE SMOOTH",
"871 688 OFFCURVE",
"1001 591 OFFCURVE",
"1001 406 CURVE SMOOTH",
"1001 221 OFFCURVE",
"871 121 OFFCURVE",
"630 121 CURVE SMOOTH"
);
},
{
closed = 1;
nodes = (
"904 -386 LINE",
"904 -268 LINE",
"266 -268 LINE",
"266 -386 LINE"
);
}
);
width = 1266;
}
);
note = Blinebelow;
unicode = 1E06;
},
{
glyphname = C;
layers = (
{
layerId = "FD6F9899-E567-4A26-8444-C317D4100EC1";
paths = (
{
closed = 1;
nodes = (
"412 97 OFFCURVE",
"279 271 OFFCURVE",
"279 602 CURVE SMOOTH",
"279 841 LINE SMOOTH",
"279 1172 OFFCURVE",
"412 1346 OFFCURVE",
"666 1346 CURVE SMOOTH",
"865 1346 OFFCURVE",
"1006 1207 OFFCURVE",
"1014 1002 CURVE",
"1151 1002 LINE",
"1144 1294 OFFCURVE",
"959 1473 OFFCURVE",
"666 1473 CURVE SMOOTH",
"334 1473 OFFCURVE",
"142 1242 OFFCURVE",
"142 841 CURVE SMOOTH",
"142 602 LINE SMOOTH",
"142 201 OFFCURVE",
"334 -30 OFFCURVE",
"666 -30 CURVE SMOOTH",
"948 -30 OFFCURVE",
"1150 154 OFFCURVE",
"1150 411 CURVE",
"1013 411 LINE",
"1007 216 OFFCURVE",
"875 97 OFFCURVE",
"666 97 CURVE SMOOTH"
);
}
);
width = 1266;
}
);
note = C;
unicode = 0043;
},
{
glyphname = Cacute;
layers = (
{
layerId = "FD6F9899-E567-4A26-8444-C317D4100EC1";
paths = (
{
closed = 1;
nodes = (
"559 1617 LINE",
"717 1617 LINE",
"1043 1914 LINE",
"869 1914 LINE"
);
},
{
closed = 1;
nodes = (
"412 97 OFFCURVE",
"279 271 OFFCURVE",
"279 602 CURVE SMOOTH",
"279 841 LINE SMOOTH",
"279 1172 OFFCURVE",
"412 1346 OFFCURVE",
"666 1346 CURVE SMOOTH",
"865 1346 OFFCURVE",
"1006 1207 OFFCURVE",
"1014 1002 CURVE",
"1151 1002 LINE",
"1144 1294 OFFCURVE",
"959 1473 OFFCURVE",
"666 1473 CURVE SMOOTH",
"334 1473 OFFCURVE",
"142 1242 OFFCURVE",
"142 841 CURVE SMOOTH",
"142 602 LINE SMOOTH",
"142 201 OFFCURVE",
"334 -30 OFFCURVE",
"666 -30 CURVE SMOOTH",
"948 -30 OFFCURVE",
"1150 154 OFFCURVE",
"1150 411 CURVE",
"1013 411 LINE",
"1007 216 OFFCURVE",
"875 97 OFFCURVE",
"666 97 CURVE SMOOTH"
);
}
);
width = 1266;
}
);
note = Cacute;
unicode = 0106;
},
{
glyphname = Ccaron;
layers = (
{
layerId = "FD6F9899-E567-4A26-8444-C317D4100EC1";
paths = (
{
closed = 1;
nodes = (
"728 1617 LINE",
"1017 1914 LINE",
"862 1914 LINE",
"672 1712 LINE",
"660 1712 LINE",
"470 1914 LINE",
"315 1914 LINE",
"604 1617 LINE"
);
},
{
closed = 1;
nodes = (
"412 97 OFFCURVE",
"279 271 OFFCURVE",
"279 602 CURVE SMOOTH",
"279 841 LINE SMOOTH",
"279 1172 OFFCURVE",
"412 1346 OFFCURVE",
"666 1346 CURVE SMOOTH",
"865 1346 OFFCURVE",
"1006 1207 OFFCURVE",
"1014 1002 CURVE",
"1151 1002 LINE",
"1144 1294 OFFCURVE",
"959 1473 OFFCURVE",
"666 1473 CURVE SMOOTH",
"334 1473 OFFCURVE",
"142 1242 OFFCURVE",
"142 841 CURVE SMOOTH",
"142 602 LINE SMOOTH",
"142 201 OFFCURVE",
"334 -30 OFFCURVE",
"666 -30 CURVE SMOOTH",
"948 -30 OFFCURVE",
"1150 154 OFFCURVE",
"1150 411 CURVE",
"1013 411 LINE",
"1007 216 OFFCURVE",
"875 97 OFFCURVE",
"666 97 CURVE SMOOTH"
);
}
);
width = 1266;
}
);
note = Ccaron;
unicode = 010C;
},
{
glyphname = Ccedilla;
layers = (
{
layerId = "FD6F9899-E567-4A26-8444-C317D4100EC1";
paths = (
{
closed = 1;
nodes = (
"556 -235 LINE",
"613 -235 LINE SMOOTH",
"721 -235 OFFCURVE",
"764 -255 OFFCURVE",
"764 -305 CURVE SMOOTH",
"764 -355 OFFCURVE",
"722 -383 OFFCURVE",
"647 -383 CURVE SMOOTH",
"611 -383 OFFCURVE",
"550 -376 OFFCURVE",
"526 -369 CURVE",
"526 -466 LINE",
"575 -480 OFFCURVE",
"606 -484 OFFCURVE",
"655 -484 CURVE SMOOTH",
"792 -484 OFFCURVE",
"885 -411 OFFCURVE",
"885 -302 CURVE SMOOTH",
"885 -198 OFFCURVE",
"813 -142 OFFCURVE",
"682 -144 CURVE",
"727 -27 LINE",
"977 -3 OFFCURVE",
"1150 173 OFFCURVE",
"1150 411 CURVE",
"1013 411 LINE",
"1007 216 OFFCURVE",
"875 97 OFFCURVE",
"666 97 CURVE SMOOTH",
"412 97 OFFCURVE",
"279 271 OFFCURVE",
"279 602 CURVE SMOOTH",
"279 841 LINE SMOOTH",
"279 1172 OFFCURVE",
"412 1346 OFFCURVE",
"666 1346 CURVE SMOOTH",
"865 1346 OFFCURVE",
"1006 1207 OFFCURVE",
"1014 1002 CURVE",
"1151 1002 LINE",
"1144 1294 OFFCURVE",
"959 1473 OFFCURVE",
"666 1473 CURVE SMOOTH",
"334 1473 OFFCURVE",
"142 1242 OFFCURVE",
"142 841 CURVE SMOOTH",
"142 602 LINE SMOOTH",
"142 224 OFFCURVE",
"312 -2 OFFCURVE",
"609 -28 CURVE",
"556 -164 LINE"
);
}
);
width = 1266;
}
);
note = Ccedilla;
unicode = 00C7;
},
{
glyphname = Ccedillaacute;
layers = (
{
layerId = "FD6F9899-E567-4A26-8444-C317D4100EC1";
paths = (
{
closed = 1;
nodes = (
"559 1617 LINE",
"717 1617 LINE",
"1043 1914 LINE",
"869 1914 LINE"
);
},
{
closed = 1;
nodes = (
"556 -235 LINE",
"613 -235 LINE SMOOTH",
"721 -235 OFFCURVE",
"764 -255 OFFCURVE",
"764 -305 CURVE SMOOTH",
"764 -355 OFFCURVE",
"722 -383 OFFCURVE",
"647 -383 CURVE SMOOTH",
"611 -383 OFFCURVE",
"550 -376 OFFCURVE",
"526 -369 CURVE",
"526 -466 LINE",
"575 -480 OFFCURVE",
"606 -484 OFFCURVE",
"655 -484 CURVE SMOOTH",
"792 -484 OFFCURVE",
"885 -411 OFFCURVE",
"885 -302 CURVE SMOOTH",
"885 -198 OFFCURVE",
"813 -142 OFFCURVE",
"682 -144 CURVE",
"727 -27 LINE",
"977 -3 OFFCURVE",
"1150 173 OFFCURVE",
"1150 411 CURVE",
"1013 411 LINE",
"1007 216 OFFCURVE",
"875 97 OFFCURVE",
"666 97 CURVE SMOOTH",
"412 97 OFFCURVE",
"279 271 OFFCURVE",
"279 602 CURVE SMOOTH",
"279 841 LINE SMOOTH",
"279 1172 OFFCURVE",
"412 1346 OFFCURVE",
"666 1346 CURVE SMOOTH",
"865 1346 OFFCURVE",
"1006 1207 OFFCURVE",
"1014 1002 CURVE",
"1151 1002 LINE",
"1144 1294 OFFCURVE",
"959 1473 OFFCURVE",
"666 1473 CURVE SMOOTH",
"334 1473 OFFCURVE",
"142 1242 OFFCURVE",
"142 841 CURVE SMOOTH",
"142 602 LINE SMOOTH",
"142 224 OFFCURVE",
"312 -2 OFFCURVE",
"609 -28 CURVE",
"556 -164 LINE"
);
}
);
width = 1266;
}
);
note = Ccedillaacute;
unicode = 1E08;
},
{
glyphname = Ccircumflex;
layers = (
{
layerId = "FD6F9899-E567-4A26-8444-C317D4100EC1";
paths = (
{
closed = 1;
nodes = (
"728 1914 LINE",
"604 1914 LINE",
"315 1617 LINE",
"470 1617 LINE",
"660 1819 LINE",
"672 1819 LINE",
"862 1617 LINE",
"1017 1617 LINE"
);
},
{
closed = 1;
nodes = (
"412 97 OFFCURVE",
"279 271 OFFCURVE",
"279 602 CURVE SMOOTH",
"279 841 LINE SMOOTH",
"279 1172 OFFCURVE",
"412 1346 OFFCURVE",
"666 1346 CURVE SMOOTH",
"865 1346 OFFCURVE",
"1006 1207 OFFCURVE",
"1014 1002 CURVE",
"1151 1002 LINE",
"1144 1294 OFFCURVE",
"959 1473 OFFCURVE",
"666 1473 CURVE SMOOTH",
"334 1473 OFFCURVE",
"142 1242 OFFCURVE",
"142 841 CURVE SMOOTH",
"142 602 LINE SMOOTH",
"142 201 OFFCURVE",
"334 -30 OFFCURVE",
"666 -30 CURVE SMOOTH",
"948 -30 OFFCURVE",
"1150 154 OFFCURVE",
"1150 411 CURVE",
"1013 411 LINE",
"1007 216 OFFCURVE",
"875 97 OFFCURVE",
"666 97 CURVE SMOOTH"
);
}
);
width = 1266;
}
);
note = Ccircumflex;
unicode = 0108;
},
{
glyphname = Cdotaccent;
layers = (
{
layerId = "FD6F9899-E567-4A26-8444-C317D4100EC1";
paths = (
{
closed = 1;
nodes = (
"727 1660 OFFCURVE",
"780 1712 OFFCURVE",
"780 1773 CURVE SMOOTH",
"780 1834 OFFCURVE",
"727 1886 OFFCURVE",
"666 1886 CURVE SMOOTH",
"605 1886 OFFCURVE",
"552 1834 OFFCURVE",
"552 1773 CURVE SMOOTH",
"552 1712 OFFCURVE",
"605 1660 OFFCURVE",
"666 1660 CURVE SMOOTH"
);
},
{
closed = 1;
nodes = (
"412 97 OFFCURVE",
"279 271 OFFCURVE",
"279 602 CURVE SMOOTH",
"279 841 LINE SMOOTH",
"279 1172 OFFCURVE",
"412 1346 OFFCURVE",
"666 1346 CURVE SMOOTH",
"865 1346 OFFCURVE",
"1006 1207 OFFCURVE",
"1014 1002 CURVE",
"1151 1002 LINE",
"1144 1294 OFFCURVE",
"959 1473 OFFCURVE",
"666 1473 CURVE SMOOTH",
"334 1473 OFFCURVE",
"142 1242 OFFCURVE",
"142 841 CURVE SMOOTH",
"142 602 LINE SMOOTH",
"142 201 OFFCURVE",
"334 -30 OFFCURVE",
"666 -30 CURVE SMOOTH",
"948 -30 OFFCURVE",
"1150 154 OFFCURVE",
"1150 411 CURVE",
"1013 411 LINE",
"1007 216 OFFCURVE",
"875 97 OFFCURVE",
"666 97 CURVE SMOOTH"
);
}
);
width = 1266;
}
);
note = Cdotaccent;
unicode = 010A;
},
{
glyphname = D;
layers = (
{
layerId = "FD6F9899-E567-4A26-8444-C317D4100EC1";
paths = (
{
closed = 1;
nodes = (
"174 1443 LINE",
"174 0 LINE",
"557 0 LINE SMOOTH",
"967 0 OFFCURVE",
"1172 240 OFFCURVE",
"1172 721 CURVE SMOOTH",
"1172 1203 OFFCURVE",
"967 1443 OFFCURVE",
"557 1443 CURVE SMOOTH"
);
},
{
closed = 1;
nodes = (
"311 1319 LINE",
"549 1319 LINE SMOOTH",
"876 1319 OFFCURVE",
"1032 1126 OFFCURVE",
"1032 721 CURVE SMOOTH",
"1032 316 OFFCURVE",
"876 124 OFFCURVE",
"549 124 CURVE SMOOTH",
"311 124 LINE"
);
}
);
width = 1266;
}
);
note = D;
unicode = 0044;
},
{
glyphname = DZ;
layers = (
{
layerId = "FD6F9899-E567-4A26-8444-C317D4100EC1";
paths = (
{
closed = 1;
nodes = (
"57 1443 LINE",
"57 0 LINE",
"206 0 LINE SMOOTH",
"522 0 OFFCURVE",
"646 203 OFFCURVE",
"646 721 CURVE SMOOTH",
"646 1240 OFFCURVE",
"522 1443 OFFCURVE",
"206 1443 CURVE SMOOTH"
);
},
{
closed = 1;
nodes = (
"658 0 LINE",
"1232 0 LINE",
"1232 114 LINE",
"798 114 LINE",
"798 126 LINE",
"1220 1343 LINE",
"1220 1443 LINE",
"687 1443 LINE",
"687 1329 LINE",
"1083 1329 LINE",
"1083 1317 LINE",
"658 99 LINE"
);
},
{
closed = 1;
nodes = (
"184 1324 LINE",
"203 1324 LINE SMOOTH",
"437 1324 OFFCURVE",
"516 1171 OFFCURVE",
"516 721 CURVE SMOOTH",
"516 271 OFFCURVE",
"437 118 OFFCURVE",
"203 118 CURVE SMOOTH",
"184 118 LINE"
);
}
);
width = 1266;
}
);
note = uni01F1;
unicode = 01F1;
},
{
glyphname = DZcaron;
layers = (
{
layerId = "FD6F9899-E567-4A26-8444-C317D4100EC1";
paths = (
{
closed = 1;
nodes = (
"1013 1577 LINE",
"1300 1874 LINE",
"1145 1874 LINE",
"955 1671 LINE",
"943 1671 LINE",
"753 1874 LINE",
"598 1874 LINE",
"885 1577 LINE"
);
},
{
closed = 1;
nodes = (
"57 1443 LINE",
"57 0 LINE",
"206 0 LINE SMOOTH",
"522 0 OFFCURVE",
"646 203 OFFCURVE",
"646 721 CURVE SMOOTH",
"646 1240 OFFCURVE",
"522 1443 OFFCURVE",
"206 1443 CURVE SMOOTH"
);
},
{
closed = 1;
nodes = (
"658 0 LINE",
"1232 0 LINE",
"1232 114 LINE",
"798 114 LINE",
"798 126 LINE",
"1220 1343 LINE",
"1220 1443 LINE",
"687 1443 LINE",
"687 1329 LINE",
"1083 1329 LINE",
"1083 1317 LINE",
"658 99 LINE"
);
},
{
closed = 1;
nodes = (
"184 1324 LINE",
"203 1324 LINE SMOOTH",
"437 1324 OFFCURVE",
"516 1171 OFFCURVE",
"516 721 CURVE SMOOTH",
"516 271 OFFCURVE",
"437 118 OFFCURVE",
"203 118 CURVE SMOOTH",
"184 118 LINE"
);
}
);
width = 1266;
}
);
note = uni01C4;
unicode = 01C4;
},
{
glyphname = Eth;
layers = (
{
layerId = "FD6F9899-E567-4A26-8444-C317D4100EC1";
paths = (
{
closed = 1;
nodes = (
"174 1443 LINE",
"174 802 LINE",
"35 802 LINE",
"35 678 LINE",
"174 678 LINE",
"174 0 LINE",
"557 0 LINE SMOOTH",
"967 0 OFFCURVE",
"1172 240 OFFCURVE",
"1172 721 CURVE SMOOTH",
"1172 1203 OFFCURVE",
"967 1443 OFFCURVE",
"557 1443 CURVE SMOOTH"
);
},
{
closed = 1;
nodes = (
"582 678 LINE",
"582 802 LINE",
"311 802 LINE",
"311 1319 LINE",
"549 1319 LINE SMOOTH",
"876 1319 OFFCURVE",
"1032 1126 OFFCURVE",
"1032 721 CURVE SMOOTH",
"1032 316 OFFCURVE",
"876 124 OFFCURVE",
"549 124 CURVE SMOOTH",
"311 124 LINE",
"311 678 LINE"
);
}
);
width = 1266;
}
);
note = Eth;
unicode = 00D0;
},
{
glyphname = Dcaron;
layers = (
{
layerId = "FD6F9899-E567-4A26-8444-C317D4100EC1";
paths = (
{
closed = 1;
nodes = (
"647 1617 LINE",
"936 1914 LINE",
"781 1914 LINE",
"591 1712 LINE",
"579 1712 LINE",
"389 1914 LINE",
"234 1914 LINE",
"523 1617 LINE"
);
},
{
closed = 1;
nodes = (
"174 1443 LINE",
"174 0 LINE",
"557 0 LINE SMOOTH",
"967 0 OFFCURVE",
"1172 240 OFFCURVE",
"1172 721 CURVE SMOOTH",
"1172 1203 OFFCURVE",
"967 1443 OFFCURVE",
"557 1443 CURVE SMOOTH"
);
},
{
closed = 1;
nodes = (
"311 1319 LINE",
"549 1319 LINE SMOOTH",
"876 1319 OFFCURVE",
"1032 1126 OFFCURVE",
"1032 721 CURVE SMOOTH",
"1032 316 OFFCURVE",
"876 124 OFFCURVE",
"549 124 CURVE SMOOTH",
"311 124 LINE"
);
}
);
width = 1266;
}
);
note = Dcaron;
unicode = 010E;
},
{
glyphname = Dcedilla;
layers = (
{
layerId = "FD6F9899-E567-4A26-8444-C317D4100EC1";
paths = (
{
closed = 1;
nodes = (
"174 1443 LINE",
"174 0 LINE",
"557 0 LINE SMOOTH",
"967 0 OFFCURVE",
"1172 240 OFFCURVE",
"1172 721 CURVE SMOOTH",
"1172 1203 OFFCURVE",
"967 1443 OFFCURVE",
"557 1443 CURVE SMOOTH"
);
},
{
closed = 1;
nodes = (
"311 1319 LINE",
"549 1319 LINE SMOOTH",
"876 1319 OFFCURVE",
"1032 1126 OFFCURVE",
"1032 721 CURVE SMOOTH",
"1032 316 OFFCURVE",
"876 124 OFFCURVE",
"549 124 CURVE SMOOTH",
"311 124 LINE"
);
},
{
closed = 1;
nodes = (
"539 -503 LINE",
"655 -139 LINE",
"515 -139 LINE",
"413 -503 LINE"
);
}
);
width = 1266;
}
);
note = Dcommaaccent;
unicode = 1E10;
},
{
glyphname = Dcircumflexbelow;
layers = (
{
layerId = "FD6F9899-E567-4A26-8444-C317D4100EC1";
paths = (
{
closed = 1;
nodes = (
"174 1443 LINE",
"174 0 LINE",
"557 0 LINE SMOOTH",
"967 0 OFFCURVE",
"1172 240 OFFCURVE",
"1172 721 CURVE SMOOTH",
"1172 1203 OFFCURVE",
"967 1443 OFFCURVE",
"557 1443 CURVE SMOOTH"
);
},
{
closed = 1;
nodes = (
"311 1319 LINE",
"549 1319 LINE SMOOTH",
"876 1319 OFFCURVE",
"1032 1126 OFFCURVE",
"1032 721 CURVE SMOOTH",
"1032 316 OFFCURVE",
"876 124 OFFCURVE",
"549 124 CURVE SMOOTH",
"311 124 LINE"
);
},
{
closed = 1;
nodes = (
"501 -169 LINE",
"225 -504 LINE",
"395 -504 LINE",
"578 -269 LINE",
"592 -269 LINE",
"775 -504 LINE",
"945 -504 LINE",
"669 -169 LINE"
);
}
);
width = 1266;
}
);
note = Dcircumflexbelow;
unicode = 1E12;
},
{
glyphname = Dcroat;
layers = (
{
layerId = "FD6F9899-E567-4A26-8444-C317D4100EC1";
paths = (
{
closed = 1;
nodes = (
"174 1443 LINE",
"174 805 LINE",
"22 805 LINE",
"22 681 LINE",
"174 681 LINE",
"174 0 LINE",
"557 0 LINE SMOOTH",
"967 0 OFFCURVE",
"1172 240 OFFCURVE",
"1172 721 CURVE SMOOTH",
"1172 1203 OFFCURVE",
"967 1443 OFFCURVE",
"557 1443 CURVE SMOOTH"
);
},
{
closed = 1;
nodes = (
"594 681 LINE",
"594 805 LINE",
"311 805 LINE",
"311 1319 LINE",
"549 1319 LINE SMOOTH",
"876 1319 OFFCURVE",
"1032 1126 OFFCURVE",
"1032 721 CURVE SMOOTH",
"1032 316 OFFCURVE",
"876 124 OFFCURVE",
"549 124 CURVE SMOOTH",
"311 124 LINE",
"311 681 LINE"
);
}
);
width = 1266;
}
);
note = Dcroat;
unicode = 0110;
},
{
glyphname = Ddotaccent;
layers = (
{
layerId = "FD6F9899-E567-4A26-8444-C317D4100EC1";
paths = (
{
closed = 1;
nodes = (
"646 1660 OFFCURVE",
"699 1712 OFFCURVE",
"699 1773 CURVE SMOOTH",
"699 1834 OFFCURVE",
"646 1886 OFFCURVE",
"585 1886 CURVE SMOOTH",
"524 1886 OFFCURVE",
"471 1834 OFFCURVE",
"471 1773 CURVE SMOOTH",
"471 1712 OFFCURVE",
"524 1660 OFFCURVE",
"585 1660 CURVE SMOOTH"
);
},
{
closed = 1;
nodes = (
"174 1443 LINE",
"174 0 LINE",
"557 0 LINE SMOOTH",
"967 0 OFFCURVE",
"1172 240 OFFCURVE",
"1172 721 CURVE SMOOTH",
"1172 1203 OFFCURVE",
"967 1443 OFFCURVE",
"557 1443 CURVE SMOOTH"
);
},
{
closed = 1;
nodes = (
"311 1319 LINE",
"549 1319 LINE SMOOTH",
"876 1319 OFFCURVE",
"1032 1126 OFFCURVE",
"1032 721 CURVE SMOOTH",
"1032 316 OFFCURVE",
"876 124 OFFCURVE",
"549 124 CURVE SMOOTH",
"311 124 LINE"
);
}
);
width = 1266;
}
);
note = Ddotaccent;
unicode = 1E0A;
},
{
glyphname = Ddotbelow;
layers = (
{
layerId = "FD6F9899-E567-4A26-8444-C317D4100EC1";
paths = (
{
closed = 1;
nodes = (
"174 1443 LINE",
"174 0 LINE",
"557 0 LINE SMOOTH",
"967 0 OFFCURVE",
"1172 240 OFFCURVE",
"1172 721 CURVE SMOOTH",
"1172 1203 OFFCURVE",
"967 1443 OFFCURVE",
"557 1443 CURVE SMOOTH"
);
},
{
closed = 1;
nodes = (
"311 1319 LINE",
"549 1319 LINE SMOOTH",
"876 1319 OFFCURVE",
"1032 1126 OFFCURVE",
"1032 721 CURVE SMOOTH",
"1032 316 OFFCURVE",
"876 124 OFFCURVE",
"549 124 CURVE SMOOTH",
"311 124 LINE"
);
},
{
closed = 1;
nodes = (
"646 -440 OFFCURVE",
"699 -388 OFFCURVE",
"699 -327 CURVE SMOOTH",
"699 -266 OFFCURVE",
"646 -214 OFFCURVE",
"585 -214 CURVE SMOOTH",
"524 -214 OFFCURVE",
"471 -266 OFFCURVE",
"471 -327 CURVE SMOOTH",
"471 -388 OFFCURVE",
"524 -440 OFFCURVE",
"585 -440 CURVE SMOOTH"
);
}
);
width = 1266;
}
);
note = Ddotbelow;
unicode = 1E0C;
},
{
glyphname = Dlinebelow;
layers = (
{
layerId = "FD6F9899-E567-4A26-8444-C317D4100EC1";
paths = (
{
closed = 1;
nodes = (
"174 1443 LINE",
"174 0 LINE",
"557 0 LINE SMOOTH",
"967 0 OFFCURVE",
"1172 240 OFFCURVE",
"1172 721 CURVE SMOOTH",
"1172 1203 OFFCURVE",
"967 1443 OFFCURVE",
"557 1443 CURVE SMOOTH"
);
},
{
closed = 1;
nodes = (
"311 1319 LINE",
"549 1319 LINE SMOOTH",
"876 1319 OFFCURVE",
"1032 1126 OFFCURVE",
"1032 721 CURVE SMOOTH",
"1032 316 OFFCURVE",
"876 124 OFFCURVE",
"549 124 CURVE SMOOTH",
"311 124 LINE"
);
},
{
closed = 1;
nodes = (
"904 -386 LINE",
"904 -268 LINE",
"266 -268 LINE",
"266 -386 LINE"
);
}
);
width = 1266;
}
);
note = Dlinebelow;
unicode = 1E0E;
},
{
glyphname = Dz;
layers = (
{
layerId = "FD6F9899-E567-4A26-8444-C317D4100EC1";
paths = (
{
closed = 1;
nodes = (
"57 1443 LINE",
"57 0 LINE",
"206 0 LINE SMOOTH",
"522 0 OFFCURVE",
"646 203 OFFCURVE",
"646 721 CURVE SMOOTH",
"646 1240 OFFCURVE",
"522 1443 OFFCURVE",
"206 1443 CURVE SMOOTH"
);
},
{
closed = 1;
nodes = (
"187 1324 LINE",
"203 1324 LINE SMOOTH",
"437 1324 OFFCURVE",
"513 1171 OFFCURVE",
"513 721 CURVE SMOOTH",
"513 271 OFFCURVE",
"437 118 OFFCURVE",
"203 118 CURVE SMOOTH",
"187 118 LINE"
);
},
{
closed = 1;
nodes = (
"721 0 LINE",
"1236 0 LINE",
"1236 111 LINE",
"860 111 LINE",
"860 123 LINE",
"1235 976 LINE",
"1235 1077 LINE",
"732 1077 LINE",
"732 966 LINE",
"1098 966 LINE",
"1098 954 LINE",
"721 100 LINE"
);
}
);
width = 1266;
}
);
note = uni01F2;
unicode = 01F2;
},
{
glyphname = Dzcaron;
layers = (
{
layerId = "FD6F9899-E567-4A26-8444-C317D4100EC1";
paths = (
{
closed = 1;
nodes = (
"1059 1296 LINE",
"1266 1631 LINE",
"1125 1631 LINE",
"993 1386 LINE",
"977 1386 LINE",
"845 1631 LINE",
"704 1631 LINE",
"911 1296 LINE"
);
},
{
closed = 1;
nodes = (
"57 1443 LINE",
"57 0 LINE",
"206 0 LINE SMOOTH",
"522 0 OFFCURVE",
"646 203 OFFCURVE",
"646 721 CURVE SMOOTH",
"646 1240 OFFCURVE",
"522 1443 OFFCURVE",
"206 1443 CURVE SMOOTH"
);
},
{
closed = 1;
nodes = (
"187 1324 LINE",
"203 1324 LINE SMOOTH",
"437 1324 OFFCURVE",
"513 1171 OFFCURVE",
"513 721 CURVE SMOOTH",
"513 271 OFFCURVE",
"437 118 OFFCURVE",
"203 118 CURVE SMOOTH",
"187 118 LINE"
);
},
{
closed = 1;
nodes = (
"721 0 LINE",
"1236 0 LINE",
"1236 111 LINE",
"860 111 LINE",
"860 123 LINE",
"1235 976 LINE",
"1235 1077 LINE",
"732 1077 LINE",
"732 966 LINE",
"1098 966 LINE",
"1098 954 LINE",
"721 100 LINE"
);
}
);
width = 1266;
}
);
note = uni01C5;
unicode = 01C5;
},
{
glyphname = E;
layers = (
{
layerId = "FD6F9899-E567-4A26-8444-C317D4100EC1";
paths = (
{
closed = 1;
nodes = (
"1072 124 LINE",
"379 124 LINE",
"379 678 LINE",
"1035 678 LINE",
"1035 800 LINE",
"379 800 LINE",
"379 1319 LINE",
"1072 1319 LINE",
"1072 1443 LINE",
"242 1443 LINE",
"242 0 LINE",
"1072 0 LINE"
);
}
);
width = 1266;
}
);
note = E;
unicode = 0045;
},
{
glyphname = Eacute;
layers = (
{
layerId = "FD6F9899-E567-4A26-8444-C317D4100EC1";
paths = (
{
closed = 1;
nodes = (
"550 1617 LINE",
"708 1617 LINE",
"1034 1914 LINE",
"860 1914 LINE"
);
},
{
closed = 1;
nodes = (
"1072 124 LINE",
"379 124 LINE",
"379 678 LINE",
"1035 678 LINE",
"1035 800 LINE",
"379 800 LINE",
"379 1319 LINE",
"1072 1319 LINE",
"1072 1443 LINE",
"242 1443 LINE",
"242 0 LINE",
"1072 0 LINE"
);
}
);
width = 1266;
}
);
note = Eacute;
unicode = 00C9;
},
{
glyphname = Ebreve;
layers = (
{
layerId = "FD6F9899-E567-4A26-8444-C317D4100EC1";
paths = (
{
closed = 1;
nodes = (
"327 1914 LINE",
"327 1739 OFFCURVE",
"463 1617 OFFCURVE",
"657 1617 CURVE SMOOTH",
"851 1617 OFFCURVE",
"987 1739 OFFCURVE",
"987 1914 CURVE",
"869 1914 LINE",
"869 1799 OFFCURVE",
"780 1715 OFFCURVE",
"657 1715 CURVE SMOOTH",
"534 1715 OFFCURVE",
"445 1799 OFFCURVE",
"445 1914 CURVE"
);
},
{
closed = 1;
nodes = (
"1072 124 LINE",
"379 124 LINE",
"379 678 LINE",
"1035 678 LINE",
"1035 800 LINE",
"379 800 LINE",
"379 1319 LINE",
"1072 1319 LINE",
"1072 1443 LINE",
"242 1443 LINE",
"242 0 LINE",
"1072 0 LINE"
);
}
);
width = 1266;
}
);
note = Ebreve;
unicode = 0114;
},
{
glyphname = Ecaron;
layers = (
{
layerId = "FD6F9899-E567-4A26-8444-C317D4100EC1";
paths = (
{
closed = 1;
nodes = (
"719 1617 LINE",
"1008 1914 LINE",
"853 1914 LINE",
"663 1712 LINE",
"651 1712 LINE",
"461 1914 LINE",
"306 1914 LINE",
"595 1617 LINE"
);
},
{
closed = 1;
nodes = (
"1072 124 LINE",
"379 124 LINE",
"379 678 LINE",
"1035 678 LINE",
"1035 800 LINE",
"379 800 LINE",
"379 1319 LINE",
"1072 1319 LINE",
"1072 1443 LINE",
"242 1443 LINE",
"242 0 LINE",
"1072 0 LINE"
);
}
);
width = 1266;
}
);
note = Ecaron;
unicode = 011A;
},
{
glyphname = Ecedilla;
layers = (
{
layerId = "FD6F9899-E567-4A26-8444-C317D4100EC1";
paths = (
{
closed = 1;
nodes = (
"547 -235 LINE",
"604 -235 LINE SMOOTH",
"712 -235 OFFCURVE",
"755 -255 OFFCURVE",
"755 -305 CURVE SMOOTH",
"755 -355 OFFCURVE",
"713 -383 OFFCURVE",
"638 -383 CURVE SMOOTH",
"602 -383 OFFCURVE",
"541 -376 OFFCURVE",
"517 -369 CURVE",
"517 -466 LINE",
"566 -480 OFFCURVE",
"597 -484 OFFCURVE",
"646 -484 CURVE SMOOTH",
"783 -484 OFFCURVE",
"876 -411 OFFCURVE",
"876 -302 CURVE SMOOTH",
"876 -198 OFFCURVE",
"804 -142 OFFCURVE",
"673 -144 CURVE",
"728 0 LINE",
"1072 0 LINE",
"1072 124 LINE",
"379 124 LINE",
"379 678 LINE",
"1035 678 LINE",
"1035 800 LINE",
"379 800 LINE",
"379 1319 LINE",
"1072 1319 LINE",
"1072 1443 LINE",
"242 1443 LINE",
"242 0 LINE",
"611 0 LINE",
"547 -164 LINE"
);
}
);
width = 1266;
}
);
note = Ecedilla;
unicode = 0228;
},
{
glyphname = Ecedillabreve;
layers = (
{
layerId = "FD6F9899-E567-4A26-8444-C317D4100EC1";
paths = (
{
closed = 1;
nodes = (
"327 1914 LINE",
"327 1739 OFFCURVE",
"463 1617 OFFCURVE",
"657 1617 CURVE SMOOTH",
"851 1617 OFFCURVE",
"987 1739 OFFCURVE",
"987 1914 CURVE",
"869 1914 LINE",
"869 1799 OFFCURVE",
"780 1715 OFFCURVE",
"657 1715 CURVE SMOOTH",
"534 1715 OFFCURVE",
"445 1799 OFFCURVE",
"445 1914 CURVE"
);
},
{
closed = 1;
nodes = (
"547 -235 LINE",
"604 -235 LINE SMOOTH",
"712 -235 OFFCURVE",
"755 -255 OFFCURVE",
"755 -305 CURVE SMOOTH",
"755 -355 OFFCURVE",
"713 -383 OFFCURVE",
"638 -383 CURVE SMOOTH",
"602 -383 OFFCURVE",
"541 -376 OFFCURVE",
"517 -369 CURVE",
"517 -466 LINE",
"566 -480 OFFCURVE",
"597 -484 OFFCURVE",
"646 -484 CURVE SMOOTH",
"783 -484 OFFCURVE",
"876 -411 OFFCURVE",
"876 -302 CURVE SMOOTH",
"876 -198 OFFCURVE",
"804 -142 OFFCURVE",
"673 -144 CURVE",
"728 0 LINE",
"1072 0 LINE",
"1072 124 LINE",
"379 124 LINE",
"379 678 LINE",
"1035 678 LINE",
"1035 800 LINE",
"379 800 LINE",
"379 1319 LINE",
"1072 1319 LINE",
"1072 1443 LINE",
"242 1443 LINE",
"242 0 LINE",
"611 0 LINE",
"547 -164 LINE"
);
}
);
width = 1266;
}
);
note = Ecedillabreve;
unicode = 1E1C;
},
{
glyphname = Ecircumflex;
layers = (
{
layerId = "FD6F9899-E567-4A26-8444-C317D4100EC1";
paths = (
{
closed = 1;
nodes = (
"719 1914 LINE",
"595 1914 LINE",
"306 1617 LINE",
"461 1617 LINE",
"651 1819 LINE",
"663 1819 LINE",
"853 1617 LINE",
"1008 1617 LINE"
);
},
{
closed = 1;
nodes = (
"1072 124 LINE",
"379 124 LINE",
"379 678 LINE",
"1035 678 LINE",
"1035 800 LINE",
"379 800 LINE",
"379 1319 LINE",
"1072 1319 LINE",
"1072 1443 LINE",
"242 1443 LINE",
"242 0 LINE",
"1072 0 LINE"
);
}
);
width = 1266;
}
);
note = Ecircumflex;
unicode = 00CA;
},
{
glyphname = Ecircumflexacute;
layers = (
{
layerId = "FD6F9899-E567-4A26-8444-C317D4100EC1";
paths = (
{
closed = 1;
nodes = (
"847 1829 LINE",
"996 1829 LINE",
"1239 2046 LINE",
"1071 2046 LINE"
);
},
{
closed = 1;
nodes = (
"730 1801 LINE",
"584 1801 LINE",
"299 1577 LINE",
"471 1577 LINE",
"651 1723 LINE",
"663 1723 LINE",
"843 1577 LINE",
"1015 1577 LINE"
);
},
{
closed = 1;
nodes = (
"1072 124 LINE",
"379 124 LINE",
"379 678 LINE",
"1035 678 LINE",
"1035 800 LINE",
"379 800 LINE",
"379 1319 LINE",
"1072 1319 LINE",
"1072 1443 LINE",
"242 1443 LINE",
"242 0 LINE",
"1072 0 LINE"
);
}
);
width = 1266;
}
);
note = Ecircumflexacute;
unicode = 1EBE;
},
{
glyphname = Ecircumflexbelow;
layers = (
{
layerId = "FD6F9899-E567-4A26-8444-C317D4100EC1";
paths = (
{
closed = 1;
nodes = (
"1072 124 LINE",
"379 124 LINE",
"379 678 LINE",
"1035 678 LINE",
"1035 800 LINE",
"379 800 LINE",
"379 1319 LINE",
"1072 1319 LINE",
"1072 1443 LINE",
"242 1443 LINE",
"242 0 LINE",
"1072 0 LINE"
);
},
{
closed = 1;
nodes = (
"573 -169 LINE",
"297 -504 LINE",
"467 -504 LINE",
"650 -269 LINE",
"664 -269 LINE",
"847 -504 LINE",
"1017 -504 LINE",
"741 -169 LINE"
);
}
);
width = 1266;
}
);
note = Ecircumflexbelow;
unicode = 1E18;
},
{
glyphname = Ecircumflexdotbelow;
layers = (
{
layerId = "FD6F9899-E567-4A26-8444-C317D4100EC1";
paths = (
{
closed = 1;
nodes = (
"719 1914 LINE",
"595 1914 LINE",
"306 1617 LINE",
"461 1617 LINE",
"651 1819 LINE",
"663 1819 LINE",
"853 1617 LINE",
"1008 1617 LINE"
);
},
{
closed = 1;
nodes = (
"1072 124 LINE",
"379 124 LINE",
"379 678 LINE",
"1035 678 LINE",
"1035 800 LINE",
"379 800 LINE",
"379 1319 LINE",
"1072 1319 LINE",
"1072 1443 LINE",
"242 1443 LINE",
"242 0 LINE",
"1072 0 LINE"
);
},
{
closed = 1;
nodes = (
"718 -420 OFFCURVE",
"771 -368 OFFCURVE",
"771 -307 CURVE SMOOTH",
"771 -246 OFFCURVE",
"718 -194 OFFCURVE",
"657 -194 CURVE SMOOTH",
"596 -194 OFFCURVE",
"543 -246 OFFCURVE",
"543 -307 CURVE SMOOTH",
"543 -368 OFFCURVE",
"596 -420 OFFCURVE",
"657 -420 CURVE SMOOTH"
);
}
);
width = 1266;
}
);
note = Ecircumflexdotbelow;
unicode = 1EC6;
},
{
glyphname = Ecircumflexgrave;
layers = (
{
layerId = "FD6F9899-E567-4A26-8444-C317D4100EC1";
paths = (
{
closed = 1;
nodes = (
"1065 1829 LINE",
"841 2046 LINE",
"673 2046 LINE",
"916 1829 LINE"
);
},
{
closed = 1;
nodes = (
"730 1801 LINE",
"584 1801 LINE",
"299 1577 LINE",
"471 1577 LINE",
"651 1723 LINE",
"663 1723 LINE",
"843 1577 LINE",
"1015 1577 LINE"
);
},
{
closed = 1;
nodes = (
"1072 124 LINE",
"379 124 LINE",
"379 678 LINE",
"1035 678 LINE",
"1035 800 LINE",
"379 800 LINE",
"379 1319 LINE",
"1072 1319 LINE",
"1072 1443 LINE",
"242 1443 LINE",
"242 0 LINE",
"1072 0 LINE"
);
}
);
width = 1266;
}
);
note = Ecircumflexgrave;
unicode = 1EC0;
},
{
glyphname = Ecircumflexhookabove;
layers = (
{
layerId = "FD6F9899-E567-4A26-8444-C317D4100EC1";
paths = (
{
closed = 1;
nodes = (
"772 1975 LINE",
"792 1986 OFFCURVE",
"833 1994 OFFCURVE",
"866 1994 CURVE SMOOTH",
"917 1994 OFFCURVE",
"952 1966 OFFCURVE",
"952 1925 CURVE SMOOTH",
"952 1884 OFFCURVE",
"921 1847 OFFCURVE",
"872 1828 CURVE",
"947 1770 LINE",
"1016 1795 OFFCURVE",
"1063 1860 OFFCURVE",
"1063 1930 CURVE SMOOTH",
"1063 2017 OFFCURVE",
"995 2076 OFFCURVE",
"895 2076 CURVE SMOOTH",
"847 2076 OFFCURVE",
"795 2068 OFFCURVE",
"772 2057 CURVE"
);
},
{
closed = 1;
nodes = (
"730 1801 LINE",
"584 1801 LINE",
"299 1577 LINE",
"471 1577 LINE",
"651 1723 LINE",
"663 1723 LINE",
"843 1577 LINE",
"1015 1577 LINE"
);
},
{
closed = 1;
nodes = (
"1072 124 LINE",
"379 124 LINE",
"379 678 LINE",
"1035 678 LINE",
"1035 800 LINE",
"379 800 LINE",
"379 1319 LINE",
"1072 1319 LINE",
"1072 1443 LINE",
"242 1443 LINE",
"242 0 LINE",
"1072 0 LINE"
);
}
);
width = 1266;
}
);
note = Ecircumflexhookabove;
unicode = 1EC2;
},
{
glyphname = Ecircumflextilde;
layers = (
{
layerId = "FD6F9899-E567-4A26-8444-C317D4100EC1";
paths = (
{
closed = 1;
nodes = (
"913 1849 OFFCURVE",
"996 1941 OFFCURVE",
"996 2072 CURVE",
"891 2072 LINE",
"887 1994 OFFCURVE",
"852 1950 OFFCURVE",
"795 1950 CURVE SMOOTH",
"688 1950 OFFCURVE",
"689 2086 OFFCURVE",
"520 2086 CURVE SMOOTH",
"399 2086 OFFCURVE",
"318 1997 OFFCURVE",
"318 1864 CURVE",
"424 1864 LINE",
"427 1944 OFFCURVE",
"460 1986 OFFCURVE",
"519 1986 CURVE SMOOTH",
"626 1986 OFFCURVE",
"625 1849 OFFCURVE",
"794 1849 CURVE SMOOTH"
);
},
{
closed = 1;
nodes = (
"730 1801 LINE",
"584 1801 LINE",
"299 1577 LINE",
"471 1577 LINE",
"651 1723 LINE",
"663 1723 LINE",
"843 1577 LINE",
"1015 1577 LINE"
);
},
{
closed = 1;
nodes = (
"1072 124 LINE",
"379 124 LINE",
"379 678 LINE",
"1035 678 LINE",
"1035 800 LINE",
"379 800 LINE",
"379 1319 LINE",
"1072 1319 LINE",
"1072 1443 LINE",
"242 1443 LINE",
"242 0 LINE",
"1072 0 LINE"
);
}
);
width = 1266;
}
);
note = Ecircumflextilde;
unicode = 1EC4;
},
{
glyphname = Edblgrave;
layers = (
{
layerId = "FD6F9899-E567-4A26-8444-C317D4100EC1";
paths = (
{
closed = 1;
nodes = (
"599 1617 LINE",
"289 1914 LINE",
"115 1914 LINE",
"441 1617 LINE"
);
},
{
closed = 1;
nodes = (
"963 1617 LINE",
"653 1914 LINE",
"479 1914 LINE",
"805 1617 LINE"
);
},
{
closed = 1;
nodes = (
"1072 124 LINE",
"379 124 LINE",
"379 678 LINE",
"1035 678 LINE",
"1035 800 LINE",
"379 800 LINE",
"379 1319 LINE",
"1072 1319 LINE",
"1072 1443 LINE",
"242 1443 LINE",
"242 0 LINE",
"1072 0 LINE"
);
}
);
width = 1266;
}
);
note = Edblgrave;
unicode = 0204;
},
{
glyphname = Edieresis;
layers = (
{
layerId = "FD6F9899-E567-4A26-8444-C317D4100EC1";
paths = (
{
closed = 1;
nodes = (
"522 1666 OFFCURVE",
"572 1716 OFFCURVE",
"572 1773 CURVE SMOOTH",
"572 1830 OFFCURVE",
"522 1880 OFFCURVE",
"466 1880 CURVE SMOOTH",
"410 1880 OFFCURVE",
"360 1830 OFFCURVE",
"360 1773 CURVE SMOOTH",
"360 1716 OFFCURVE",
"410 1666 OFFCURVE",
"466 1666 CURVE SMOOTH"
);
},
{
closed = 1;
nodes = (
"904 1666 OFFCURVE",
"954 1716 OFFCURVE",
"954 1773 CURVE SMOOTH",
"954 1830 OFFCURVE",
"904 1880 OFFCURVE",
"848 1880 CURVE SMOOTH",
"792 1880 OFFCURVE",
"742 1830 OFFCURVE",
"742 1773 CURVE SMOOTH",
"742 1716 OFFCURVE",
"792 1666 OFFCURVE",
"848 1666 CURVE SMOOTH"
);
},
{
closed = 1;
nodes = (
"1072 124 LINE",
"379 124 LINE",
"379 678 LINE",
"1035 678 LINE",
"1035 800 LINE",
"379 800 LINE",
"379 1319 LINE",
"1072 1319 LINE",
"1072 1443 LINE",
"242 1443 LINE",
"242 0 LINE",
"1072 0 LINE"
);
}
);
width = 1266;
}
);
note = Edieresis;
unicode = 00CB;
},
{
glyphname = Edotaccent;
layers = (
{
layerId = "FD6F9899-E567-4A26-8444-C317D4100EC1";
paths = (
{
closed = 1;
nodes = (
"718 1660 OFFCURVE",
"771 1712 OFFCURVE",
"771 1773 CURVE SMOOTH",
"771 1834 OFFCURVE",
"718 1886 OFFCURVE",
"657 1886 CURVE SMOOTH",
"596 1886 OFFCURVE",
"543 1834 OFFCURVE",
"543 1773 CURVE SMOOTH",
"543 1712 OFFCURVE",
"596 1660 OFFCURVE",
"657 1660 CURVE SMOOTH"
);
},
{
closed = 1;
nodes = (
"1072 124 LINE",
"379 124 LINE",
"379 678 LINE",
"1035 678 LINE",
"1035 800 LINE",
"379 800 LINE",
"379 1319 LINE",
"1072 1319 LINE",
"1072 1443 LINE",
"242 1443 LINE",
"242 0 LINE",
"1072 0 LINE"
);
}
);
width = 1266;
}
);
note = Edotaccent;
unicode = 0116;
},
{
glyphname = Edotbelow;
layers = (
{
layerId = "FD6F9899-E567-4A26-8444-C317D4100EC1";
paths = (
{
closed = 1;
nodes = (
"1072 124 LINE",
"379 124 LINE",
"379 678 LINE",
"1035 678 LINE",
"1035 800 LINE",
"379 800 LINE",
"379 1319 LINE",
"1072 1319 LINE",
"1072 1443 LINE",
"242 1443 LINE",
"242 0 LINE",
"1072 0 LINE"
);
},
{
closed = 1;
nodes = (
"718 -420 OFFCURVE",
"771 -368 OFFCURVE",
"771 -307 CURVE SMOOTH",
"771 -246 OFFCURVE",
"718 -194 OFFCURVE",
"657 -194 CURVE SMOOTH",
"596 -194 OFFCURVE",
"543 -246 OFFCURVE",
"543 -307 CURVE SMOOTH",
"543 -368 OFFCURVE",
"596 -420 OFFCURVE",
"657 -420 CURVE SMOOTH"
);
}
);
width = 1266;
}
);
note = Edotbelow;
unicode = 1EB8;
},
{
glyphname = Egrave;
layers = (
{
layerId = "FD6F9899-E567-4A26-8444-C317D4100EC1";
paths = (
{
closed = 1;
nodes = (
"761 1617 LINE",
"451 1914 LINE",
"277 1914 LINE",
"603 1617 LINE"
);
},
{
closed = 1;
nodes = (
"1072 124 LINE",
"379 124 LINE",
"379 678 LINE",
"1035 678 LINE",
"1035 800 LINE",
"379 800 LINE",
"379 1319 LINE",
"1072 1319 LINE",
"1072 1443 LINE",
"242 1443 LINE",
"242 0 LINE",
"1072 0 LINE"
);
}
);
width = 1266;
}
);
note = Egrave;
unicode = 00C8;
},
{
glyphname = Ehookabove;
layers = (
{
layerId = "FD6F9899-E567-4A26-8444-C317D4100EC1";
paths = (
{
closed = 1;
nodes = (
"494 1808 LINE",
"519 1822 OFFCURVE",
"561 1831 OFFCURVE",
"604 1831 CURVE SMOOTH",
"665 1831 OFFCURVE",
"705 1801 OFFCURVE",
"705 1757 CURVE SMOOTH",
"705 1715 OFFCURVE",
"664 1672 OFFCURVE",
"605 1652 CURVE",
"664 1576 LINE",
"756 1609 OFFCURVE",
"818 1686 OFFCURVE",
"818 1766 CURVE SMOOTH",
"818 1867 OFFCURVE",
"741 1930 OFFCURVE",
"620 1930 CURVE SMOOTH",
"576 1930 OFFCURVE",
"524 1920 OFFCURVE",
"494 1906 CURVE"
);
},
{
closed = 1;
nodes = (
"1072 124 LINE",
"379 124 LINE",
"379 678 LINE",
"1035 678 LINE",
"1035 800 LINE",
"379 800 LINE",
"379 1319 LINE",
"1072 1319 LINE",
"1072 1443 LINE",
"242 1443 LINE",
"242 0 LINE",
"1072 0 LINE"
);
}
);
width = 1266;
}
);
note = Ehookabove;
unicode = 1EBA;
},
{
glyphname = Einvertedbreve;
layers = (
{
layerId = "FD6F9899-E567-4A26-8444-C317D4100EC1";
paths = (
{
closed = 1;
nodes = (
"445 1617 LINE",
"445 1732 OFFCURVE",
"534 1816 OFFCURVE",
"657 1816 CURVE SMOOTH",
"780 1816 OFFCURVE",
"869 1732 OFFCURVE",
"869 1617 CURVE",
"987 1617 LINE",
"987 1792 OFFCURVE",
"851 1914 OFFCURVE",
"657 1914 CURVE SMOOTH",
"463 1914 OFFCURVE",
"327 1792 OFFCURVE",
"327 1617 CURVE"
);
},
{
closed = 1;
nodes = (
"1072 124 LINE",
"379 124 LINE",
"379 678 LINE",
"1035 678 LINE",
"1035 800 LINE",
"379 800 LINE",
"379 1319 LINE",
"1072 1319 LINE",
"1072 1443 LINE",
"242 1443 LINE",
"242 0 LINE",
"1072 0 LINE"
);
}
);
width = 1266;
}
);
note = Einvertedbreve;
unicode = 0206;
},
{
glyphname = Emacron;
layers = (
{
layerId = "FD6F9899-E567-4A26-8444-C317D4100EC1";
paths = (
{
closed = 1;
nodes = (
"976 1714 LINE",
"976 1832 LINE",
"338 1832 LINE",
"338 1714 LINE"
);
},
{
closed = 1;
nodes = (
"1072 124 LINE",
"379 124 LINE",
"379 678 LINE",
"1035 678 LINE",
"1035 800 LINE",
"379 800 LINE",
"379 1319 LINE",
"1072 1319 LINE",
"1072 1443 LINE",
"242 1443 LINE",
"242 0 LINE",
"1072 0 LINE"
);
}
);
width = 1266;
}
);
note = Emacron;
unicode = 0112;
},
{
glyphname = Emacronacute;
layers = (
{
layerId = "FD6F9899-E567-4A26-8444-C317D4100EC1";
paths = (
{
closed = 1;
nodes = (
"530 1828 LINE",
"679 1828 LINE",
"922 2045 LINE",
"754 2045 LINE"
);
},
{
closed = 1;
nodes = (
"337 1616 LINE",
"975 1616 LINE",
"975 1714 LINE",
"337 1714 LINE"
);
},
{
closed = 1;
nodes = (
"1072 124 LINE",
"379 124 LINE",
"379 678 LINE",
"1035 678 LINE",
"1035 800 LINE",
"379 800 LINE",
"379 1319 LINE",
"1072 1319 LINE",
"1072 1443 LINE",
"242 1443 LINE",
"242 0 LINE",
"1072 0 LINE"
);
}
);
width = 1266;
}
);
note = Emacronacute;
unicode = 1E16;
},
{
glyphname = Emacrongrave;
layers = (
{
layerId = "FD6F9899-E567-4A26-8444-C317D4100EC1";
paths = (
{
closed = 1;
nodes = (
"782 1829 LINE",
"558 2046 LINE",
"390 2046 LINE",
"633 1829 LINE"
);
},
{
closed = 1;
nodes = (
"975 1617 LINE",
"975 1715 LINE",
"337 1715 LINE",
"337 1617 LINE"
);
},
{
closed = 1;
nodes = (
"1072 124 LINE",
"379 124 LINE",
"379 678 LINE",
"1035 678 LINE",
"1035 800 LINE",
"379 800 LINE",
"379 1319 LINE",
"1072 1319 LINE",
"1072 1443 LINE",
"242 1443 LINE",
"242 0 LINE",
"1072 0 LINE"
);
}
);
width = 1266;
}
);
note = Emacrongrave;
unicode = 1E14;
},
{
glyphname = Eogonek;
layers = (
{
layerId = "FD6F9899-E567-4A26-8444-C317D4100EC1";
paths = (
{
closed = 1;
nodes = (
"908 0 LINE",
"908 -12 LINE",
"810 -70 OFFCURVE",
"762 -139 OFFCURVE",
"762 -224 CURVE SMOOTH",
"762 -336 OFFCURVE",
"856 -416 OFFCURVE",
"988 -416 CURVE SMOOTH",
"1023 -416 OFFCURVE",
"1056 -411 OFFCURVE",
"1082 -402 CURVE",
"1082 -298 LINE",
"1065 -302 OFFCURVE",
"1039 -305 OFFCURVE",
"1015 -305 CURVE SMOOTH",
"944 -305 OFFCURVE",
"891 -257 OFFCURVE",
"891 -193 CURVE SMOOTH",
"891 -114 OFFCURVE",
"941 -47 OFFCURVE",
"1058 3 CURVE SMOOTH",
"1072 9 LINE",
"1072 124 LINE",
"379 124 LINE",
"379 678 LINE",
"1035 678 LINE",
"1035 800 LINE",
"379 800 LINE",
"379 1319 LINE",
"1072 1319 LINE",
"1072 1443 LINE",
"242 1443 LINE",
"242 0 LINE"
);
}
);
width = 1266;
}
);
note = Eogonek;
unicode = 0118;
},
{
glyphname = Etilde;
layers = (
{
layerId = "FD6F9899-E567-4A26-8444-C317D4100EC1";
paths = (
{
closed = 1;
nodes = (
"925 1632 OFFCURVE",
"1006 1733 OFFCURVE",
"1006 1887 CURVE",
"901 1887 LINE",
"897 1789 OFFCURVE",
"860 1733 OFFCURVE",
"799 1733 CURVE SMOOTH",
"706 1733 OFFCURVE",
"675 1899 OFFCURVE",
"512 1899 CURVE SMOOTH",
"387 1899 OFFCURVE",
"308 1800 OFFCURVE",
"308 1643 CURVE",
"414 1643 LINE",
"417 1744 OFFCURVE",
"452 1797 OFFCURVE",
"515 1797 CURVE SMOOTH",
"622 1797 OFFCURVE",
"647 1632 OFFCURVE",
"802 1632 CURVE SMOOTH"
);
},
{
closed = 1;
nodes = (
"1072 124 LINE",
"379 124 LINE",
"379 678 LINE",
"1035 678 LINE",
"1035 800 LINE",
"379 800 LINE",
"379 1319 LINE",
"1072 1319 LINE",
"1072 1443 LINE",
"242 1443 LINE",
"242 0 LINE",
"1072 0 LINE"
);
}
);
width = 1266;
}
);
note = Etilde;
unicode = 1EBC;
},
{
glyphname = Etildebelow;
layers = (
{
layerId = "FD6F9899-E567-4A26-8444-C317D4100EC1";
paths = (
{
closed = 1;
nodes = (
"1072 124 LINE",
"379 124 LINE",
"379 678 LINE",
"1035 678 LINE",
"1035 800 LINE",
"379 800 LINE",
"379 1319 LINE",
"1072 1319 LINE",
"1072 1443 LINE",
"242 1443 LINE",
"242 0 LINE",
"1072 0 LINE"
);
},
{
closed = 1;
nodes = (
"599 -282 OFFCURVE",
"640 -446 OFFCURVE",
"799 -446 CURVE SMOOTH",
"935 -446 OFFCURVE",
"1015 -343 OFFCURVE",
"1015 -166 CURVE",
"892 -166 LINE",
"892 -284 OFFCURVE",
"867 -330 OFFCURVE",
"803 -330 CURVE SMOOTH",
"715 -330 OFFCURVE",
"674 -168 OFFCURVE",
"515 -168 CURVE SMOOTH",
"378 -168 OFFCURVE",
"299 -270 OFFCURVE",
"299 -447 CURVE",
"422 -447 LINE",
"422 -328 OFFCURVE",
"447 -282 OFFCURVE",
"511 -282 CURVE SMOOTH"
);
}
);
width = 1266;
}
);
note = Etildebelow;
unicode = 1E1A;
},
{
glyphname = F;
layers = (
{
layerId = "FD6F9899-E567-4A26-8444-C317D4100EC1";
paths = (
{
closed = 1;
nodes = (
"405 0 LINE",
"405 655 LINE",
"1039 655 LINE",
"1039 777 LINE",
"405 777 LINE",
"405 1319 LINE",
"1097 1319 LINE",
"1097 1443 LINE",
"268 1443 LINE",
"268 0 LINE"
);
}
);
width = 1266;
}
);
note = F;
unicode = 0046;
},
{
glyphname = Fdotaccent;
layers = (
{
layerId = "FD6F9899-E567-4A26-8444-C317D4100EC1";
paths = (
{
closed = 1;
nodes = (
"694 1660 OFFCURVE",
"747 1712 OFFCURVE",
"747 1773 CURVE SMOOTH",
"747 1834 OFFCURVE",
"694 1886 OFFCURVE",
"633 1886 CURVE SMOOTH",
"572 1886 OFFCURVE",
"519 1834 OFFCURVE",
"519 1773 CURVE SMOOTH",
"519 1712 OFFCURVE",
"572 1660 OFFCURVE",
"633 1660 CURVE SMOOTH"
);
},
{
closed = 1;
nodes = (
"405 0 LINE",
"405 655 LINE",
"1039 655 LINE",
"1039 777 LINE",
"405 777 LINE",
"405 1319 LINE",
"1097 1319 LINE",
"1097 1443 LINE",
"268 1443 LINE",
"268 0 LINE"
);
}
);
width = 1266;
}
);
note = Fdotaccent;
unicode = 1E1E;
},
{
glyphname = G;
layers = (
{
layerId = "FD6F9899-E567-4A26-8444-C317D4100EC1";
paths = (
{
closed = 1;
nodes = (
"1004 428 LINE SMOOTH",
"1004 224 OFFCURVE",
"871 97 OFFCURVE",
"658 97 CURVE SMOOTH",
"404 97 OFFCURVE",
"271 271 OFFCURVE",
"271 602 CURVE SMOOTH",
"271 841 LINE SMOOTH",
"271 1172 OFFCURVE",
"404 1346 OFFCURVE",
"658 1346 CURVE SMOOTH",
"857 1346 OFFCURVE",
"997 1207 OFFCURVE",
"1005 1002 CURVE",
"1142 1002 LINE",
"1135 1294 OFFCURVE",
"951 1473 OFFCURVE",
"658 1473 CURVE SMOOTH",
"326 1473 OFFCURVE",
"134 1242 OFFCURVE",
"134 841 CURVE SMOOTH",
"134 602 LINE SMOOTH",
"134 201 OFFCURVE",
"326 -30 OFFCURVE",
"658 -30 CURVE SMOOTH",
"940 -30 OFFCURVE",
"1141 152 OFFCURVE",
"1141 409 CURVE SMOOTH",
"1141 719 LINE",
"648 719 LINE",
"648 597 LINE",
"1004 597 LINE"
);
}
);
width = 1266;
}
);
note = G;
unicode = 0047;
},
{
glyphname = Gacute;
layers = (
{
layerId = "FD6F9899-E567-4A26-8444-C317D4100EC1";
paths = (
{
closed = 1;
nodes = (
"551 1617 LINE",
"709 1617 LINE",
"1035 1914 LINE",
"861 1914 LINE"
);
},
{
closed = 1;
nodes = (
"1004 428 LINE SMOOTH",
"1004 224 OFFCURVE",
"871 97 OFFCURVE",
"658 97 CURVE SMOOTH",
"404 97 OFFCURVE",
"271 271 OFFCURVE",
"271 602 CURVE SMOOTH",
"271 841 LINE SMOOTH",
"271 1172 OFFCURVE",
"404 1346 OFFCURVE",
"658 1346 CURVE SMOOTH",
"857 1346 OFFCURVE",
"997 1207 OFFCURVE",
"1005 1002 CURVE",
"1142 1002 LINE",
"1135 1294 OFFCURVE",
"951 1473 OFFCURVE",
"658 1473 CURVE SMOOTH",
"326 1473 OFFCURVE",
"134 1242 OFFCURVE",
"134 841 CURVE SMOOTH",
"134 602 LINE SMOOTH",
"134 201 OFFCURVE",
"326 -30 OFFCURVE",
"658 -30 CURVE SMOOTH",
"940 -30 OFFCURVE",
"1141 152 OFFCURVE",
"1141 409 CURVE SMOOTH",
"1141 719 LINE",
"648 719 LINE",
"648 597 LINE",
"1004 597 LINE"
);
}
);
width = 1266;
}
);
note = Gacute;
unicode = 01F4;
},
{
glyphname = Gbreve;
layers = (
{
layerId = "FD6F9899-E567-4A26-8444-C317D4100EC1";
paths = (
{
closed = 1;
nodes = (
"318 1914 LINE",
"318 1739 OFFCURVE",
"454 1617 OFFCURVE",
"648 1617 CURVE SMOOTH",
"842 1617 OFFCURVE",
"978 1739 OFFCURVE",
"978 1914 CURVE",
"860 1914 LINE",
"860 1799 OFFCURVE",
"771 1715 OFFCURVE",
"648 1715 CURVE SMOOTH",
"525 1715 OFFCURVE",
"436 1799 OFFCURVE",
"436 1914 CURVE"
);
},
{
closed = 1;
nodes = (
"1004 428 LINE SMOOTH",
"1004 224 OFFCURVE",
"871 97 OFFCURVE",
"658 97 CURVE SMOOTH",
"404 97 OFFCURVE",
"271 271 OFFCURVE",
"271 602 CURVE SMOOTH",
"271 841 LINE SMOOTH",
"271 1172 OFFCURVE",
"404 1346 OFFCURVE",
"658 1346 CURVE SMOOTH",
"857 1346 OFFCURVE",
"997 1207 OFFCURVE",
"1005 1002 CURVE",
"1142 1002 LINE",
"1135 1294 OFFCURVE",
"951 1473 OFFCURVE",
"658 1473 CURVE SMOOTH",
"326 1473 OFFCURVE",
"134 1242 OFFCURVE",
"134 841 CURVE SMOOTH",
"134 602 LINE SMOOTH",
"134 201 OFFCURVE",
"326 -30 OFFCURVE",
"658 -30 CURVE SMOOTH",
"940 -30 OFFCURVE",
"1141 152 OFFCURVE",
"1141 409 CURVE SMOOTH",
"1141 719 LINE",
"648 719 LINE",
"648 597 LINE",
"1004 597 LINE"
);
}
);
width = 1266;
}
);
note = Gbreve;
unicode = 011E;
},
{
glyphname = Gcaron;
layers = (
{
layerId = "FD6F9899-E567-4A26-8444-C317D4100EC1";
paths = (
{
closed = 1;
nodes = (
"710 1617 LINE",
"999 1914 LINE",
"844 1914 LINE",
"654 1712 LINE",
"642 1712 LINE",
"452 1914 LINE",
"297 1914 LINE",
"586 1617 LINE"
);
},
{
closed = 1;
nodes = (
"1004 428 LINE SMOOTH",
"1004 224 OFFCURVE",
"871 97 OFFCURVE",
"658 97 CURVE SMOOTH",
"404 97 OFFCURVE",
"271 271 OFFCURVE",
"271 602 CURVE SMOOTH",
"271 841 LINE SMOOTH",
"271 1172 OFFCURVE",
"404 1346 OFFCURVE",
"658 1346 CURVE SMOOTH",
"857 1346 OFFCURVE",
"997 1207 OFFCURVE",
"1005 1002 CURVE",
"1142 1002 LINE",
"1135 1294 OFFCURVE",
"951 1473 OFFCURVE",
"658 1473 CURVE SMOOTH",
"326 1473 OFFCURVE",
"134 1242 OFFCURVE",
"134 841 CURVE SMOOTH",
"134 602 LINE SMOOTH",
"134 201 OFFCURVE",
"326 -30 OFFCURVE",
"658 -30 CURVE SMOOTH",
"940 -30 OFFCURVE",
"1141 152 OFFCURVE",
"1141 409 CURVE SMOOTH",
"1141 719 LINE",
"648 719 LINE",
"648 597 LINE",
"1004 597 LINE"
);
}
);
width = 1266;
}
);
note = Gcaron;
unicode = 01E6;
},
{
glyphname = Gcircumflex;
layers = (
{
layerId = "FD6F9899-E567-4A26-8444-C317D4100EC1";
paths = (
{
closed = 1;
nodes = (
"710 1914 LINE",
"586 1914 LINE",
"297 1617 LINE",
"452 1617 LINE",
"642 1819 LINE",
"654 1819 LINE",
"844 1617 LINE",
"999 1617 LINE"
);
},
{
closed = 1;
nodes = (
"1004 428 LINE SMOOTH",
"1004 224 OFFCURVE",
"871 97 OFFCURVE",
"658 97 CURVE SMOOTH",
"404 97 OFFCURVE",
"271 271 OFFCURVE",
"271 602 CURVE SMOOTH",
"271 841 LINE SMOOTH",
"271 1172 OFFCURVE",
"404 1346 OFFCURVE",
"658 1346 CURVE SMOOTH",
"857 1346 OFFCURVE",
"997 1207 OFFCURVE",
"1005 1002 CURVE",
"1142 1002 LINE",
"1135 1294 OFFCURVE",
"951 1473 OFFCURVE",
"658 1473 CURVE SMOOTH",
"326 1473 OFFCURVE",
"134 1242 OFFCURVE",
"134 841 CURVE SMOOTH",
"134 602 LINE SMOOTH",
"134 201 OFFCURVE",
"326 -30 OFFCURVE",
"658 -30 CURVE SMOOTH",
"940 -30 OFFCURVE",
"1141 152 OFFCURVE",
"1141 409 CURVE SMOOTH",
"1141 719 LINE",
"648 719 LINE",
"648 597 LINE",
"1004 597 LINE"
);
}
);
width = 1266;
}
);
note = Gcircumflex;
unicode = 011C;
},
{
glyphname = Gcommaaccent;
layers = (
{
layerId = "FD6F9899-E567-4A26-8444-C317D4100EC1";
paths = (
{
closed = 1;
nodes = (
"1004 428 LINE SMOOTH",
"1004 224 OFFCURVE",
"871 97 OFFCURVE",
"658 97 CURVE SMOOTH",
"404 97 OFFCURVE",
"271 271 OFFCURVE",
"271 602 CURVE SMOOTH",
"271 841 LINE SMOOTH",
"271 1172 OFFCURVE",
"404 1346 OFFCURVE",
"658 1346 CURVE SMOOTH",
"857 1346 OFFCURVE",
"997 1207 OFFCURVE",
"1005 1002 CURVE",
"1142 1002 LINE",
"1135 1294 OFFCURVE",
"951 1473 OFFCURVE",
"658 1473 CURVE SMOOTH",
"326 1473 OFFCURVE",
"134 1242 OFFCURVE",
"134 841 CURVE SMOOTH",
"134 602 LINE SMOOTH",
"134 201 OFFCURVE",
"326 -30 OFFCURVE",
"658 -30 CURVE SMOOTH",
"940 -30 OFFCURVE",
"1141 152 OFFCURVE",
"1141 409 CURVE SMOOTH",
"1141 719 LINE",
"648 719 LINE",
"648 597 LINE",
"1004 597 LINE"
);
},
{
closed = 1;
nodes = (
"612 -503 LINE",
"728 -139 LINE",
"588 -139 LINE",
"486 -503 LINE"
);
}
);
width = 1266;
}
);
note = Gcommaaccent;
unicode = 0122;
},
{
glyphname = Gdotaccent;
layers = (
{
layerId = "FD6F9899-E567-4A26-8444-C317D4100EC1";
paths = (
{
closed = 1;
nodes = (
"709 1660 OFFCURVE",
"762 1712 OFFCURVE",
"762 1773 CURVE SMOOTH",
"762 1834 OFFCURVE",
"709 1886 OFFCURVE",
"648 1886 CURVE SMOOTH",
"587 1886 OFFCURVE",
"534 1834 OFFCURVE",
"534 1773 CURVE SMOOTH",
"534 1712 OFFCURVE",
"587 1660 OFFCURVE",
"648 1660 CURVE SMOOTH"
);
},
{
closed = 1;
nodes = (
"1004 428 LINE SMOOTH",
"1004 224 OFFCURVE",
"871 97 OFFCURVE",
"658 97 CURVE SMOOTH",
"404 97 OFFCURVE",
"271 271 OFFCURVE",
"271 602 CURVE SMOOTH",
"271 841 LINE SMOOTH",
"271 1172 OFFCURVE",
"404 1346 OFFCURVE",
"658 1346 CURVE SMOOTH",
"857 1346 OFFCURVE",
"997 1207 OFFCURVE",
"1005 1002 CURVE",
"1142 1002 LINE",
"1135 1294 OFFCURVE",
"951 1473 OFFCURVE",
"658 1473 CURVE SMOOTH",
"326 1473 OFFCURVE",
"134 1242 OFFCURVE",
"134 841 CURVE SMOOTH",
"134 602 LINE SMOOTH",
"134 201 OFFCURVE",
"326 -30 OFFCURVE",
"658 -30 CURVE SMOOTH",
"940 -30 OFFCURVE",
"1141 152 OFFCURVE",
"1141 409 CURVE SMOOTH",
"1141 719 LINE",
"648 719 LINE",
"648 597 LINE",
"1004 597 LINE"
);
}
);
width = 1266;
}
);
note = Gdotaccent;
unicode = 0120;
},
{
glyphname = Gmacron;
layers = (
{
layerId = "FD6F9899-E567-4A26-8444-C317D4100EC1";
paths = (
{
closed = 1;
nodes = (
"967 1714 LINE",
"967 1832 LINE",
"329 1832 LINE",
"329 1714 LINE"
);
},
{
closed = 1;
nodes = (
"1004 428 LINE SMOOTH",
"1004 224 OFFCURVE",
"871 97 OFFCURVE",
"658 97 CURVE SMOOTH",
"404 97 OFFCURVE",
"271 271 OFFCURVE",
"271 602 CURVE SMOOTH",
"271 841 LINE SMOOTH",
"271 1172 OFFCURVE",
"404 1346 OFFCURVE",
"658 1346 CURVE SMOOTH",
"857 1346 OFFCURVE",
"997 1207 OFFCURVE",
"1005 1002 CURVE",
"1142 1002 LINE",
"1135 1294 OFFCURVE",
"951 1473 OFFCURVE",
"658 1473 CURVE SMOOTH",
"326 1473 OFFCURVE",
"134 1242 OFFCURVE",
"134 841 CURVE SMOOTH",
"134 602 LINE SMOOTH",
"134 201 OFFCURVE",
"326 -30 OFFCURVE",
"658 -30 CURVE SMOOTH",
"940 -30 OFFCURVE",
"1141 152 OFFCURVE",
"1141 409 CURVE SMOOTH",
"1141 719 LINE",
"648 719 LINE",
"648 597 LINE",
"1004 597 LINE"
);
}
);
width = 1266;
}
);
note = Gmacron;
unicode = 1E20;
},
{
glyphname = H;
layers = (
{
layerId = "FD6F9899-E567-4A26-8444-C317D4100EC1";
paths = (
{
closed = 1;
nodes = (
"1100 0 LINE",
"1100 1443 LINE",
"963 1443 LINE",
"963 801 LINE",
"303 801 LINE",
"303 1443 LINE",
"166 1443 LINE",
"166 0 LINE",
"303 0 LINE",
"303 677 LINE",
"963 677 LINE",
"963 0 LINE"
);
}
);
width = 1266;
}
);
note = H;
unicode = 0048;
},
{
glyphname = Hbar;
layers = (
{
layerId = "FD6F9899-E567-4A26-8444-C317D4100EC1";
paths = (
{
closed = 1;
nodes = (
"303 677 LINE",
"963 677 LINE",
"963 0 LINE",
"1100 0 LINE",
"1100 1095 LINE",
"1225 1095 LINE",
"1225 1206 LINE",
"1100 1206 LINE",
"1100 1443 LINE",
"963 1443 LINE",
"963 1206 LINE",
"303 1206 LINE",
"303 1443 LINE",
"166 1443 LINE",
"166 1206 LINE",
"41 1206 LINE",
"41 1095 LINE",
"166 1095 LINE",
"166 0 LINE",
"303 0 LINE"
);
},
{
closed = 1;
nodes = (
"303 801 LINE",
"303 1095 LINE",
"963 1095 LINE",
"963 801 LINE"
);
}
);
width = 1266;
}
);
note = Hbar;
unicode = 0126;
},
{
glyphname = Hbrevebelow;
layers = (
{
layerId = "FD6F9899-E567-4A26-8444-C317D4100EC1";
paths = (
{
closed = 1;
nodes = (
"1100 0 LINE",
"1100 1443 LINE",
"963 1443 LINE",
"963 801 LINE",
"303 801 LINE",
"303 1443 LINE",
"166 1443 LINE",
"166 0 LINE",
"303 0 LINE",
"303 677 LINE",
"963 677 LINE",
"963 0 LINE"
);
},
{
closed = 1;
nodes = (
"496 -363 OFFCURVE",
"422 -272 OFFCURVE",
"423 -153 CURVE",
"290 -153 LINE",
"290 -336 OFFCURVE",
"418 -472 OFFCURVE",
"633 -472 CURVE SMOOTH",
"848 -472 OFFCURVE",
"976 -336 OFFCURVE",
"976 -153 CURVE",
"844 -153 LINE",
"845 -272 OFFCURVE",
"771 -363 OFFCURVE",
"633 -363 CURVE SMOOTH"
);
}
);
width = 1266;
}
);
note = Hbrevebelow;
unicode = 1E2A;
},
{
glyphname = Hcaron;
layers = (
{
layerId = "FD6F9899-E567-4A26-8444-C317D4100EC1";
paths = (
{
closed = 1;
nodes = (
"695 1617 LINE",
"984 1914 LINE",
"829 1914 LINE",
"639 1712 LINE",
"627 1712 LINE",
"437 1914 LINE",
"282 1914 LINE",
"571 1617 LINE"
);
},
{
closed = 1;
nodes = (
"1100 0 LINE",
"1100 1443 LINE",
"963 1443 LINE",
"963 801 LINE",
"303 801 LINE",
"303 1443 LINE",
"166 1443 LINE",
"166 0 LINE",
"303 0 LINE",
"303 677 LINE",
"963 677 LINE",
"963 0 LINE"
);
}
);
width = 1266;
}
);
note = Hcaron;
unicode = 021E;
},
{
glyphname = Hcedilla;
layers = (
{
layerId = "FD6F9899-E567-4A26-8444-C317D4100EC1";
paths = (
{
closed = 1;
nodes = (
"122 -235 LINE",
"179 -235 LINE SMOOTH",
"287 -235 OFFCURVE",
"330 -255 OFFCURVE",
"330 -305 CURVE SMOOTH",
"330 -355 OFFCURVE",
"288 -383 OFFCURVE",
"213 -383 CURVE SMOOTH",
"177 -383 OFFCURVE",
"116 -376 OFFCURVE",
"92 -369 CURVE",
"92 -466 LINE",
"141 -480 OFFCURVE",
"172 -484 OFFCURVE",
"221 -484 CURVE SMOOTH",
"358 -484 OFFCURVE",
"451 -411 OFFCURVE",
"451 -302 CURVE SMOOTH",
"451 -198 OFFCURVE",
"379 -142 OFFCURVE",
"248 -144 CURVE",
"303 0 LINE",
"303 677 LINE",
"963 677 LINE",
"963 0 LINE",
"1100 0 LINE",
"1100 1443 LINE",
"963 1443 LINE",
"963 801 LINE",
"303 801 LINE",
"303 1443 LINE",
"166 1443 LINE",
"166 0 LINE",
"186 0 LINE",
"122 -164 LINE"
);
}
);
width = 1266;
}
);
note = Hcedilla;
unicode = 1E28;
},
{
glyphname = Hcircumflex;
layers = (
{
layerId = "FD6F9899-E567-4A26-8444-C317D4100EC1";
paths = (
{
closed = 1;
nodes = (
"695 1914 LINE",
"571 1914 LINE",
"282 1617 LINE",
"437 1617 LINE",
"627 1819 LINE",
"639 1819 LINE",
"829 1617 LINE",
"984 1617 LINE"
);
},
{
closed = 1;
nodes = (
"1100 0 LINE",
"1100 1443 LINE",
"963 1443 LINE",
"963 801 LINE",
"303 801 LINE",
"303 1443 LINE",
"166 1443 LINE",
"166 0 LINE",
"303 0 LINE",
"303 677 LINE",
"963 677 LINE",
"963 0 LINE"
);
}
);
width = 1266;
}
);
note = Hcircumflex;
unicode = 0124;
},
{
glyphname = Hdieresis;
layers = (
{
layerId = "FD6F9899-E567-4A26-8444-C317D4100EC1";
paths = (
{
closed = 1;
nodes = (
"498 1666 OFFCURVE",
"548 1716 OFFCURVE",
"548 1773 CURVE SMOOTH",
"548 1830 OFFCURVE",
"498 1880 OFFCURVE",
"442 1880 CURVE SMOOTH",
"386 1880 OFFCURVE",
"336 1830 OFFCURVE",
"336 1773 CURVE SMOOTH",
"336 1716 OFFCURVE",
"386 1666 OFFCURVE",
"442 1666 CURVE SMOOTH"
);
},
{
closed = 1;
nodes = (
"880 1666 OFFCURVE",
"930 1716 OFFCURVE",
"930 1773 CURVE SMOOTH",
"930 1830 OFFCURVE",
"880 1880 OFFCURVE",
"824 1880 CURVE SMOOTH",
"768 1880 OFFCURVE",
"718 1830 OFFCURVE",
"718 1773 CURVE SMOOTH",
"718 1716 OFFCURVE",
"768 1666 OFFCURVE",
"824 1666 CURVE SMOOTH"
);
},
{
closed = 1;
nodes = (
"1100 0 LINE",
"1100 1443 LINE",
"963 1443 LINE",
"963 801 LINE",
"303 801 LINE",
"303 1443 LINE",
"166 1443 LINE",
"166 0 LINE",
"303 0 LINE",
"303 677 LINE",
"963 677 LINE",
"963 0 LINE"
);
}
);
width = 1266;
}
);
note = Hdieresis;
unicode = 1E26;
},
{
glyphname = Hdotaccent;
layers = (
{
layerId = "FD6F9899-E567-4A26-8444-C317D4100EC1";
paths = (
{
closed = 1;
nodes = (
"694 1660 OFFCURVE",
"747 1712 OFFCURVE",
"747 1773 CURVE SMOOTH",
"747 1834 OFFCURVE",
"694 1886 OFFCURVE",
"633 1886 CURVE SMOOTH",
"572 1886 OFFCURVE",
"519 1834 OFFCURVE",
"519 1773 CURVE SMOOTH",
"519 1712 OFFCURVE",
"572 1660 OFFCURVE",
"633 1660 CURVE SMOOTH"
);
},
{
closed = 1;
nodes = (
"1100 0 LINE",
"1100 1443 LINE",
"963 1443 LINE",
"963 801 LINE",
"303 801 LINE",
"303 1443 LINE",
"166 1443 LINE",
"166 0 LINE",
"303 0 LINE",
"303 677 LINE",
"963 677 LINE",
"963 0 LINE"
);
}
);
width = 1266;
}
);
note = Hdotaccent;
unicode = 1E22;
},
{
glyphname = Hdotbelow;
layers = (
{
layerId = "FD6F9899-E567-4A26-8444-C317D4100EC1";
paths = (
{
closed = 1;
nodes = (
"1100 0 LINE",
"1100 1443 LINE",
"963 1443 LINE",
"963 801 LINE",
"303 801 LINE",
"303 1443 LINE",
"166 1443 LINE",
"166 0 LINE",
"303 0 LINE",
"303 677 LINE",
"963 677 LINE",
"963 0 LINE"
);
},
{
closed = 1;
nodes = (
"694 -440 OFFCURVE",
"747 -388 OFFCURVE",
"747 -327 CURVE SMOOTH",
"747 -266 OFFCURVE",
"694 -214 OFFCURVE",
"633 -214 CURVE SMOOTH",
"572 -214 OFFCURVE",
"519 -266 OFFCURVE",
"519 -327 CURVE SMOOTH",
"519 -388 OFFCURVE",
"572 -440 OFFCURVE",
"633 -440 CURVE SMOOTH"
);
}
);
width = 1266;
}
);
note = Hdotbelow;
unicode = 1E24;
},
{
glyphname = I;
layers = (
{
layerId = "FD6F9899-E567-4A26-8444-C317D4100EC1";
paths = (
{
closed = 1;
nodes = (
"991 0 LINE",
"991 118 LINE",
"701 118 LINE",
"701 1325 LINE",
"991 1325 LINE",
"991 1443 LINE",
"275 1443 LINE",
"275 1325 LINE",
"565 1325 LINE",
"565 118 LINE",
"275 118 LINE",
"275 0 LINE"
);
}
);
width = 1266;
}
);
note = I;
unicode = 0049;
},
{
glyphname = IJ;
layers = (
{
layerId = "FD6F9899-E567-4A26-8444-C317D4100EC1";
paths = (
{
closed = 1;
nodes = (
"382 0 LINE",
"382 1443 LINE",
"246 1443 LINE",
"246 0 LINE"
);
},
{
closed = 1;
nodes = (
"1072 -30 OFFCURVE",
"1186 117 OFFCURVE",
"1186 381 CURVE SMOOTH",
"1186 1443 LINE",
"673 1443 LINE",
"673 1322 LINE",
"1055 1322 LINE",
"1055 386 LINE SMOOTH",
"1055 194 OFFCURVE",
"992 97 OFFCURVE",
"867 97 CURVE SMOOTH",
"752 97 OFFCURVE",
"680 185 OFFCURVE",
"674 330 CURVE",
"542 330 LINE",
"544 110 OFFCURVE",
"671 -30 OFFCURVE",
"867 -30 CURVE SMOOTH"
);
}
);
width = 1266;
}
);
note = IJ;
unicode = 0132;
},
{
glyphname = Iacute;
layers = (
{
layerId = "FD6F9899-E567-4A26-8444-C317D4100EC1";
paths = (
{
closed = 1;
nodes = (
"526 1617 LINE",
"684 1617 LINE",
"1010 1914 LINE",
"836 1914 LINE"
);
},
{
closed = 1;
nodes = (
"991 0 LINE",
"991 118 LINE",
"701 118 LINE",
"701 1325 LINE",
"991 1325 LINE",
"991 1443 LINE",
"275 1443 LINE",
"275 1325 LINE",
"565 1325 LINE",
"565 118 LINE",
"275 118 LINE",
"275 0 LINE"
);
}
);
width = 1266;
}
);
note = Iacute;
unicode = 00CD;
},
{
glyphname = Ibreve;
layers = (
{
layerId = "FD6F9899-E567-4A26-8444-C317D4100EC1";
paths = (
{
closed = 1;
nodes = (
"303 1914 LINE",
"303 1739 OFFCURVE",
"439 1617 OFFCURVE",
"633 1617 CURVE SMOOTH",
"827 1617 OFFCURVE",
"963 1739 OFFCURVE",
"963 1914 CURVE",
"845 1914 LINE",
"845 1799 OFFCURVE",
"756 1715 OFFCURVE",
"633 1715 CURVE SMOOTH",
"510 1715 OFFCURVE",
"421 1799 OFFCURVE",
"421 1914 CURVE"
);
},
{
closed = 1;
nodes = (
"991 0 LINE",
"991 118 LINE",
"701 118 LINE",
"701 1325 LINE",
"991 1325 LINE",
"991 1443 LINE",
"275 1443 LINE",
"275 1325 LINE",
"565 1325 LINE",
"565 118 LINE",
"275 118 LINE",
"275 0 LINE"
);
}
);
width = 1266;
}
);
note = Ibreve;
unicode = 012C;
},
{
glyphname = Icaron;
layers = (
{
layerId = "FD6F9899-E567-4A26-8444-C317D4100EC1";
paths = (
{
closed = 1;
nodes = (
"695 1617 LINE",
"984 1914 LINE",
"829 1914 LINE",
"639 1712 LINE",
"627 1712 LINE",
"437 1914 LINE",
"282 1914 LINE",
"571 1617 LINE"
);
},
{
closed = 1;
nodes = (
"991 0 LINE",
"991 118 LINE",
"701 118 LINE",
"701 1325 LINE",
"991 1325 LINE",
"991 1443 LINE",
"275 1443 LINE",
"275 1325 LINE",
"565 1325 LINE",
"565 118 LINE",
"275 118 LINE",
"275 0 LINE"
);
}
);
width = 1266;
}
);
note = Icaron;
unicode = 01CF;
},
{
glyphname = Icircumflex;
layers = (
{
layerId = "FD6F9899-E567-4A26-8444-C317D4100EC1";
paths = (
{
closed = 1;
nodes = (
"695 1914 LINE",
"571 1914 LINE",
"282 1617 LINE",
"437 1617 LINE",
"627 1819 LINE",
"639 1819 LINE",
"829 1617 LINE",
"984 1617 LINE"
);
},
{
closed = 1;
nodes = (
"991 0 LINE",
"991 118 LINE",
"701 118 LINE",
"701 1325 LINE",
"991 1325 LINE",
"991 1443 LINE",
"275 1443 LINE",
"275 1325 LINE",
"565 1325 LINE",
"565 118 LINE",
"275 118 LINE",
"275 0 LINE"
);
}
);
width = 1266;
}
);
note = Icircumflex;
unicode = 00CE;
},
{
glyphname = Idblgrave;
layers = (
{
layerId = "FD6F9899-E567-4A26-8444-C317D4100EC1";
paths = (
{
closed = 1;
nodes = (
"575 1617 LINE",
"265 1914 LINE",
"91 1914 LINE",
"417 1617 LINE"
);
},
{
closed = 1;
nodes = (
"939 1617 LINE",
"629 1914 LINE",
"455 1914 LINE",
"781 1617 LINE"
);
},
{
closed = 1;
nodes = (
"991 0 LINE",
"991 118 LINE",
"701 118 LINE",
"701 1325 LINE",
"991 1325 LINE",
"991 1443 LINE",
"275 1443 LINE",
"275 1325 LINE",
"565 1325 LINE",
"565 118 LINE",
"275 118 LINE",
"275 0 LINE"
);
}
);
width = 1266;
}
);
note = Idblgrave;
unicode = 0208;
},
{
glyphname = Idieresis;
layers = (
{
layerId = "FD6F9899-E567-4A26-8444-C317D4100EC1";
paths = (
{
closed = 1;
nodes = (
"498 1666 OFFCURVE",
"548 1716 OFFCURVE",
"548 1773 CURVE SMOOTH",
"548 1830 OFFCURVE",
"498 1880 OFFCURVE",
"442 1880 CURVE SMOOTH",
"386 1880 OFFCURVE",
"336 1830 OFFCURVE",
"336 1773 CURVE SMOOTH",
"336 1716 OFFCURVE",
"386 1666 OFFCURVE",
"442 1666 CURVE SMOOTH"
);
},
{
closed = 1;
nodes = (
"880 1666 OFFCURVE",
"930 1716 OFFCURVE",
"930 1773 CURVE SMOOTH",
"930 1830 OFFCURVE",
"880 1880 OFFCURVE",
"824 1880 CURVE SMOOTH",
"768 1880 OFFCURVE",
"718 1830 OFFCURVE",
"718 1773 CURVE SMOOTH",
"718 1716 OFFCURVE",
"768 1666 OFFCURVE",
"824 1666 CURVE SMOOTH"
);
},
{
closed = 1;
nodes = (
"991 0 LINE",
"991 118 LINE",
"701 118 LINE",
"701 1325 LINE",
"991 1325 LINE",
"991 1443 LINE",
"275 1443 LINE",
"275 1325 LINE",
"565 1325 LINE",
"565 118 LINE",
"275 118 LINE",
"275 0 LINE"
);
}
);
width = 1266;
}
);
note = Idieresis;
unicode = 00CF;
},
{
glyphname = Idieresisacute;
layers = (
{
layerId = "FD6F9899-E567-4A26-8444-C317D4100EC1";
paths = (
{
closed = 1;
nodes = (
"510 1829 LINE",
"659 1829 LINE",
"902 2046 LINE",
"734 2046 LINE"
);
},
{
closed = 1;
nodes = (
"504 1568 OFFCURVE",
"545 1609 OFFCURVE",
"545 1661 CURVE SMOOTH",
"545 1713 OFFCURVE",
"504 1754 OFFCURVE",
"452 1754 CURVE SMOOTH",
"400 1754 OFFCURVE",
"359 1713 OFFCURVE",
"359 1661 CURVE SMOOTH",
"359 1609 OFFCURVE",
"400 1568 OFFCURVE",
"452 1568 CURVE SMOOTH"
);
},
{
closed = 1;
nodes = (
"868 1568 OFFCURVE",
"909 1609 OFFCURVE",
"909 1661 CURVE SMOOTH",
"909 1713 OFFCURVE",
"868 1754 OFFCURVE",
"816 1754 CURVE SMOOTH",
"764 1754 OFFCURVE",
"723 1713 OFFCURVE",
"723 1661 CURVE SMOOTH",
"723 1609 OFFCURVE",
"764 1568 OFFCURVE",
"816 1568 CURVE SMOOTH"
);
},
{
closed = 1;
nodes = (
"991 0 LINE",
"991 118 LINE",
"701 118 LINE",
"701 1325 LINE",
"991 1325 LINE",
"991 1443 LINE",
"275 1443 LINE",
"275 1325 LINE",
"565 1325 LINE",
"565 118 LINE",
"275 118 LINE",
"275 0 LINE"
);
}
);
width = 1266;
}
);
note = Idieresisacute;
unicode = 1E2E;
},
{
glyphname = Idotaccent;
layers = (
{
layerId = "FD6F9899-E567-4A26-8444-C317D4100EC1";
paths = (
{
closed = 1;
nodes = (
"694 1660 OFFCURVE",
"747 1712 OFFCURVE",
"747 1773 CURVE SMOOTH",
"747 1834 OFFCURVE",
"694 1886 OFFCURVE",
"633 1886 CURVE SMOOTH",
"572 1886 OFFCURVE",
"519 1834 OFFCURVE",
"519 1773 CURVE SMOOTH",
"519 1712 OFFCURVE",
"572 1660 OFFCURVE",
"633 1660 CURVE SMOOTH"
);
},
{
closed = 1;
nodes = (
"991 0 LINE",
"991 118 LINE",
"701 118 LINE",
"701 1325 LINE",
"991 1325 LINE",
"991 1443 LINE",
"275 1443 LINE",
"275 1325 LINE",
"565 1325 LINE",
"565 118 LINE",
"275 118 LINE",
"275 0 LINE"
);
}
);
width = 1266;
}
);
note = Idotaccent;
unicode = 0130;
},
{
glyphname = Idotbelow;
layers = (
{
layerId = "FD6F9899-E567-4A26-8444-C317D4100EC1";
paths = (
{
closed = 1;
nodes = (
"991 0 LINE",
"991 118 LINE",
"701 118 LINE",
"701 1325 LINE",
"991 1325 LINE",
"991 1443 LINE",
"275 1443 LINE",
"275 1325 LINE",
"565 1325 LINE",
"565 118 LINE",
"275 118 LINE",
"275 0 LINE"
);
},
{
closed = 1;
nodes = (
"693 -440 OFFCURVE",
"746 -388 OFFCURVE",
"746 -327 CURVE SMOOTH",
"746 -266 OFFCURVE",
"693 -214 OFFCURVE",
"632 -214 CURVE SMOOTH",
"571 -214 OFFCURVE",
"518 -266 OFFCURVE",
"518 -327 CURVE SMOOTH",
"518 -388 OFFCURVE",
"571 -440 OFFCURVE",
"632 -440 CURVE SMOOTH"
);
}
);
width = 1266;
}
);
note = Idotbelow;
unicode = 1ECA;
},
{
glyphname = Igrave;
layers = (
{
layerId = "FD6F9899-E567-4A26-8444-C317D4100EC1";
paths = (
{
closed = 1;
nodes = (
"737 1617 LINE",
"427 1914 LINE",
"253 1914 LINE",
"579 1617 LINE"
);
},
{
closed = 1;
nodes = (
"991 0 LINE",
"991 118 LINE",
"701 118 LINE",
"701 1325 LINE",
"991 1325 LINE",
"991 1443 LINE",
"275 1443 LINE",
"275 1325 LINE",
"565 1325 LINE",
"565 118 LINE",
"275 118 LINE",
"275 0 LINE"
);
}
);
width = 1266;
}
);
note = Igrave;
unicode = 00CC;
},
{
glyphname = Ihookabove;
layers = (
{
layerId = "FD6F9899-E567-4A26-8444-C317D4100EC1";
paths = (
{
closed = 1;
nodes = (
"470 1808 LINE",
"495 1822 OFFCURVE",
"537 1831 OFFCURVE",
"580 1831 CURVE SMOOTH",
"641 1831 OFFCURVE",
"681 1801 OFFCURVE",
"681 1757 CURVE SMOOTH",
"681 1715 OFFCURVE",
"640 1672 OFFCURVE",
"581 1652 CURVE",
"640 1576 LINE",
"732 1609 OFFCURVE",
"794 1686 OFFCURVE",
"794 1766 CURVE SMOOTH",
"794 1867 OFFCURVE",
"717 1930 OFFCURVE",
"596 1930 CURVE SMOOTH",
"552 1930 OFFCURVE",
"500 1920 OFFCURVE",
"470 1906 CURVE"
);
},
{
closed = 1;
nodes = (
"991 0 LINE",
"991 118 LINE",
"701 118 LINE",
"701 1325 LINE",
"991 1325 LINE",
"991 1443 LINE",
"275 1443 LINE",
"275 1325 LINE",
"565 1325 LINE",
"565 118 LINE",
"275 118 LINE",
"275 0 LINE"
);
}
);
width = 1266;
}
);
note = Ihookabove;
unicode = 1EC8;
},
{
glyphname = Iinvertedbreve;
layers = (
{
layerId = "FD6F9899-E567-4A26-8444-C317D4100EC1";
paths = (
{
closed = 1;
nodes = (
"421 1617 LINE",
"421 1732 OFFCURVE",
"510 1816 OFFCURVE",
"633 1816 CURVE SMOOTH",
"756 1816 OFFCURVE",
"845 1732 OFFCURVE",
"845 1617 CURVE",
"963 1617 LINE",
"963 1792 OFFCURVE",
"827 1914 OFFCURVE",
"633 1914 CURVE SMOOTH",
"439 1914 OFFCURVE",
"303 1792 OFFCURVE",
"303 1617 CURVE"
);
},
{
closed = 1;
nodes = (
"991 0 LINE",
"991 118 LINE",
"701 118 LINE",
"701 1325 LINE",
"991 1325 LINE",
"991 1443 LINE",
"275 1443 LINE",
"275 1325 LINE",
"565 1325 LINE",
"565 118 LINE",
"275 118 LINE",
"275 0 LINE"
);
}
);
width = 1266;
}
);
note = Iinvertedbreve;
unicode = 020A;
},
{
glyphname = Imacron;
layers = (
{
layerId = "FD6F9899-E567-4A26-8444-C317D4100EC1";
paths = (
{
closed = 1;
nodes = (
"952 1714 LINE",
"952 1832 LINE",
"314 1832 LINE",
"314 1714 LINE"
);
},
{
closed = 1;
nodes = (
"991 0 LINE",
"991 118 LINE",
"701 118 LINE",
"701 1325 LINE",
"991 1325 LINE",
"991 1443 LINE",
"275 1443 LINE",
"275 1325 LINE",
"565 1325 LINE",
"565 118 LINE",
"275 118 LINE",
"275 0 LINE"
);
}
);
width = 1266;
}
);
note = Imacron;
unicode = 012A;
},
{
glyphname = Iogonek;
layers = (
{
layerId = "FD6F9899-E567-4A26-8444-C317D4100EC1";
paths = (
{
closed = 1;
nodes = (
"991 0 LINE",
"991 118 LINE",
"701 118 LINE",
"701 1325 LINE",
"991 1325 LINE",
"991 1443 LINE",
"275 1443 LINE",
"275 1325 LINE",
"565 1325 LINE",
"565 118 LINE",
"275 118 LINE",
"275 0 LINE",
"844 0 LINE",
"747 -58 OFFCURVE",
"694 -141 OFFCURVE",
"694 -234 CURVE SMOOTH",
"694 -344 OFFCURVE",
"774 -416 OFFCURVE",
"897 -416 CURVE SMOOTH",
"932 -416 OFFCURVE",
"965 -411 OFFCURVE",
"991 -402 CURVE",
"991 -298 LINE",
"977 -302 OFFCURVE",
"950 -305 OFFCURVE",
"933 -305 CURVE SMOOTH",
"867 -305 OFFCURVE",
"823 -266 OFFCURVE",
"823 -207 CURVE SMOOTH",
"823 -132 OFFCURVE",
"874 -68 OFFCURVE",
"986 -3 CURVE SMOOTH"
);
}
);
width = 1266;
}
);
note = Iogonek;
unicode = 012E;
},
{
glyphname = Itilde;
layers = (
{
layerId = "FD6F9899-E567-4A26-8444-C317D4100EC1";
paths = (
{
closed = 1;
nodes = (
"901 1632 OFFCURVE",
"982 1733 OFFCURVE",
"982 1887 CURVE",
"877 1887 LINE",
"873 1789 OFFCURVE",
"836 1733 OFFCURVE",
"775 1733 CURVE SMOOTH",
"682 1733 OFFCURVE",
"651 1899 OFFCURVE",
"488 1899 CURVE SMOOTH",
"363 1899 OFFCURVE",
"284 1800 OFFCURVE",
"284 1643 CURVE",
"390 1643 LINE",
"393 1744 OFFCURVE",
"428 1797 OFFCURVE",
"491 1797 CURVE SMOOTH",
"598 1797 OFFCURVE",
"623 1632 OFFCURVE",
"778 1632 CURVE SMOOTH"
);
},
{
closed = 1;
nodes = (
"991 0 LINE",
"991 118 LINE",
"701 118 LINE",
"701 1325 LINE",
"991 1325 LINE",
"991 1443 LINE",
"275 1443 LINE",
"275 1325 LINE",
"565 1325 LINE",
"565 118 LINE",
"275 118 LINE",
"275 0 LINE"
);
}
);
width = 1266;
}
);
note = Itilde;
unicode = 0128;
},
{
glyphname = Itildebelow;
layers = (
{
layerId = "FD6F9899-E567-4A26-8444-C317D4100EC1";
paths = (
{
closed = 1;
nodes = (
"991 0 LINE",
"991 118 LINE",
"701 118 LINE",
"701 1325 LINE",
"991 1325 LINE",
"991 1443 LINE",
"275 1443 LINE",
"275 1325 LINE",
"565 1325 LINE",
"565 118 LINE",
"275 118 LINE",
"275 0 LINE"
);
},
{
closed = 1;
nodes = (
"574 -302 OFFCURVE",
"615 -466 OFFCURVE",
"774 -466 CURVE SMOOTH",
"910 -466 OFFCURVE",
"990 -363 OFFCURVE",
"990 -186 CURVE",
"867 -186 LINE",
"867 -304 OFFCURVE",
"842 -350 OFFCURVE",
"778 -350 CURVE SMOOTH",
"690 -350 OFFCURVE",
"649 -188 OFFCURVE",
"490 -188 CURVE SMOOTH",
"353 -188 OFFCURVE",
"274 -290 OFFCURVE",
"274 -467 CURVE",
"397 -467 LINE",
"397 -348 OFFCURVE",
"422 -302 OFFCURVE",
"486 -302 CURVE SMOOTH"
);
}
);
width = 1266;
}
);
note = Itildebelow;
unicode = 1E2C;
},
{
glyphname = J;
layers = (
{
layerId = "FD6F9899-E567-4A26-8444-C317D4100EC1";
paths = (
{
closed = 1;
nodes = (
"844 -30 OFFCURVE",
"1000 130 OFFCURVE",
"1000 393 CURVE SMOOTH",
"1000 1443 LINE",
"375 1443 LINE",
"375 1325 LINE",
"863 1325 LINE",
"863 398 LINE SMOOTH",
"863 206 OFFCURVE",
"764 97 OFFCURVE",
"589 97 CURVE SMOOTH",
"439 97 OFFCURVE",
"331 192 OFFCURVE",
"325 330 CURVE",
"189 330 LINE",
"191 118 OFFCURVE",
"356 -30 OFFCURVE",
"590 -30 CURVE SMOOTH"
);
}
);
width = 1266;
}
);
note = J;
unicode = 004A;
},
{
glyphname = Jcircumflex;
layers = (
{
layerId = "FD6F9899-E567-4A26-8444-C317D4100EC1";
paths = (
{
closed = 1;
nodes = (
"750 1914 LINE",
"626 1914 LINE",
"337 1617 LINE",
"492 1617 LINE",
"682 1819 LINE",
"694 1819 LINE",
"884 1617 LINE",
"1039 1617 LINE"
);
},
{
closed = 1;
nodes = (
"844 -30 OFFCURVE",
"1000 130 OFFCURVE",
"1000 393 CURVE SMOOTH",
"1000 1443 LINE",
"375 1443 LINE",
"375 1325 LINE",
"863 1325 LINE",
"863 398 LINE SMOOTH",
"863 206 OFFCURVE",
"764 97 OFFCURVE",
"589 97 CURVE SMOOTH",
"439 97 OFFCURVE",
"331 192 OFFCURVE",
"325 330 CURVE",
"189 330 LINE",
"191 118 OFFCURVE",
"356 -30 OFFCURVE",
"590 -30 CURVE SMOOTH"
);
}
);
width = 1266;
}
);
note = Jcircumflex;
unicode = 0134;
},
{
glyphname = K;
layers = (
{
layerId = "FD6F9899-E567-4A26-8444-C317D4100EC1";
paths = (
{
closed = 1;
nodes = (
"375 0 LINE",
"375 515 LINE",
"533 700 LINE",
"1053 0 LINE",
"1230 0 LINE",
"624 805 LINE",
"1171 1443 LINE",
"1000 1443 LINE",
"387 697 LINE",
"375 697 LINE",
"375 1443 LINE",
"238 1443 LINE",
"238 0 LINE"
);
}
);
width = 1266;
}
);
note = K;
unicode = 004B;
},
{
glyphname = Kacute;
layers = (
{
layerId = "FD6F9899-E567-4A26-8444-C317D4100EC1";
paths = (
{
closed = 1;
nodes = (
"551 1617 LINE",
"709 1617 LINE",
"1035 1914 LINE",
"861 1914 LINE"
);
},
{
closed = 1;
nodes = (
"375 0 LINE",
"375 515 LINE",
"533 700 LINE",
"1053 0 LINE",
"1230 0 LINE",
"624 805 LINE",
"1171 1443 LINE",
"1000 1443 LINE",
"387 697 LINE",
"375 697 LINE",
"375 1443 LINE",
"238 1443 LINE",
"238 0 LINE"
);
}
);
width = 1266;
}
);
note = Kacute;
unicode = 1E30;
},
{
glyphname = Kcaron;
layers = (
{
layerId = "FD6F9899-E567-4A26-8444-C317D4100EC1";
paths = (
{
closed = 1;
nodes = (
"720 1617 LINE",
"1009 1914 LINE",
"854 1914 LINE",
"664 1712 LINE",
"652 1712 LINE",
"462 1914 LINE",
"307 1914 LINE",
"596 1617 LINE"
);
},
{
closed = 1;
nodes = (
"375 0 LINE",
"375 515 LINE",
"533 700 LINE",
"1053 0 LINE",
"1230 0 LINE",
"624 805 LINE",
"1171 1443 LINE",
"1000 1443 LINE",
"387 697 LINE",
"375 697 LINE",
"375 1443 LINE",
"238 1443 LINE",
"238 0 LINE"
);
}
);
width = 1266;
}
);
note = Kcaron;
unicode = 01E8;
},
{
glyphname = Kcommaaccent;
layers = (
{
layerId = "FD6F9899-E567-4A26-8444-C317D4100EC1";
paths = (
{
closed = 1;
nodes = (
"375 0 LINE",
"375 515 LINE",
"533 700 LINE",
"1053 0 LINE",
"1230 0 LINE",
"624 805 LINE",
"1171 1443 LINE",
"1000 1443 LINE",
"387 697 LINE",
"375 697 LINE",
"375 1443 LINE",
"238 1443 LINE",
"238 0 LINE"
);
},
{
closed = 1;
nodes = (
"638 -503 LINE",
"754 -139 LINE",
"614 -139 LINE",
"512 -503 LINE"
);
}
);
width = 1266;
}
);
note = Kcommaaccent;
unicode = 0136;
},
{
glyphname = Kdotbelow;
layers = (
{
layerId = "FD6F9899-E567-4A26-8444-C317D4100EC1";
paths = (
{
closed = 1;
nodes = (
"375 0 LINE",
"375 515 LINE",
"533 700 LINE",
"1053 0 LINE",
"1230 0 LINE",
"624 805 LINE",
"1171 1443 LINE",
"1000 1443 LINE",
"387 697 LINE",
"375 697 LINE",
"375 1443 LINE",
"238 1443 LINE",
"238 0 LINE"
);
},
{
closed = 1;
nodes = (
"745 -440 OFFCURVE",
"798 -388 OFFCURVE",
"798 -327 CURVE SMOOTH",
"798 -266 OFFCURVE",
"745 -214 OFFCURVE",
"684 -214 CURVE SMOOTH",
"623 -214 OFFCURVE",
"570 -266 OFFCURVE",
"570 -327 CURVE SMOOTH",
"570 -388 OFFCURVE",
"623 -440 OFFCURVE",
"684 -440 CURVE SMOOTH"
);
}
);
width = 1266;
}
);
note = Kdotbelow;
unicode = 1E32;
},
{
glyphname = Klinebelow;
layers = (
{
layerId = "FD6F9899-E567-4A26-8444-C317D4100EC1";
paths = (
{
closed = 1;
nodes = (
"375 0 LINE",
"375 515 LINE",
"533 700 LINE",
"1053 0 LINE",
"1230 0 LINE",
"624 805 LINE",
"1171 1443 LINE",
"1000 1443 LINE",
"387 697 LINE",
"375 697 LINE",
"375 1443 LINE",
"238 1443 LINE",
"238 0 LINE"
);
},
{
closed = 1;
nodes = (
"1003 -386 LINE",
"1003 -268 LINE",
"365 -268 LINE",
"365 -386 LINE"
);
}
);
width = 1266;
}
);
note = Klinebelow;
unicode = 1E34;
},
{
glyphname = L;
layers = (
{
layerId = "FD6F9899-E567-4A26-8444-C317D4100EC1";
paths = (
{
closed = 1;
nodes = (
"1114 124 LINE",
"411 124 LINE",
"411 1443 LINE",
"275 1443 LINE",
"275 0 LINE",
"1114 0 LINE"
);
}
);
width = 1266;
}
);
note = L;
unicode = 004C;
},
{
glyphname = LJ;
layers = (
{
layerId = "FD6F9899-E567-4A26-8444-C317D4100EC1";
paths = (
{
closed = 1;
nodes = (
"578 121 LINE",
"216 121 LINE",
"216 1443 LINE",
"80 1443 LINE",
"80 0 LINE",
"578 0 LINE"
);
},
{
closed = 1;
nodes = (
"1085 -30 OFFCURVE",
"1186 109 OFFCURVE",
"1186 381 CURVE SMOOTH",
"1186 1443 LINE",
"713 1443 LINE",
"713 1322 LINE",
"1055 1322 LINE",
"1055 386 LINE SMOOTH",
"1055 184 OFFCURVE",
"1005 97 OFFCURVE",
"887 97 CURVE SMOOTH",
"779 97 OFFCURVE",
"720 176 OFFCURVE",
"714 330 CURVE",
"582 330 LINE",
"584 103 OFFCURVE",
"697 -30 OFFCURVE",
"887 -30 CURVE SMOOTH"
);
}
);
width = 1266;
}
);
note = uni01C7;
unicode = 01C7;
},
{
glyphname = Lacute;
layers = (
{
layerId = "FD6F9899-E567-4A26-8444-C317D4100EC1";
paths = (
{
closed = 1;
nodes = (
"237 1617 LINE",
"395 1617 LINE",
"721 1914 LINE",
"547 1914 LINE"
);
},
{
closed = 1;
nodes = (
"1114 124 LINE",
"411 124 LINE",
"411 1443 LINE",
"275 1443 LINE",
"275 0 LINE",
"1114 0 LINE"
);
}
);
width = 1266;
}
);
note = Lacute;
unicode = 0139;
},
{
glyphname = Lcaron;
layers = (
{
layerId = "FD6F9899-E567-4A26-8444-C317D4100EC1";
paths = (
{
closed = 1;
nodes = (
"780 1443 LINE",
"780 970 LINE",
"874 970 LINE",
"910 1443 LINE"
);
},
{
closed = 1;
nodes = (
"1114 124 LINE",
"411 124 LINE",
"411 1443 LINE",
"275 1443 LINE",
"275 0 LINE",
"1114 0 LINE"
);
}
);
width = 1266;
}
);
note = Lcaron;
unicode = 013D;
},
{
glyphname = Lcircumflexbelow;
layers = (
{
layerId = "FD6F9899-E567-4A26-8444-C317D4100EC1";
paths = (
{
closed = 1;
nodes = (
"1114 124 LINE",
"411 124 LINE",
"411 1443 LINE",
"275 1443 LINE",
"275 0 LINE",
"1114 0 LINE"
);
},
{
closed = 1;
nodes = (
"611 -169 LINE",
"335 -504 LINE",
"505 -504 LINE",
"688 -269 LINE",
"702 -269 LINE",
"885 -504 LINE",
"1055 -504 LINE",
"779 -169 LINE"
);
}
);
width = 1266;
}
);
note = Lcircumflexbelow;
unicode = 1E3C;
},
{
glyphname = Lcommaaccent;
layers = (
{
layerId = "FD6F9899-E567-4A26-8444-C317D4100EC1";
paths = (
{
closed = 1;
nodes = (
"1114 124 LINE",
"411 124 LINE",
"411 1443 LINE",
"275 1443 LINE",
"275 0 LINE",
"1114 0 LINE"
);
},
{
closed = 1;
nodes = (
"649 -503 LINE",
"765 -139 LINE",
"625 -139 LINE",
"523 -503 LINE"
);
}
);
width = 1266;
}
);
note = Lcommaaccent;
unicode = 013B;
},
{
glyphname = Ldot;
layers = (
{
layerId = "FD6F9899-E567-4A26-8444-C317D4100EC1";
paths = (
{
closed = 1;
nodes = (
"1114 124 LINE",
"411 124 LINE",
"411 1443 LINE",
"275 1443 LINE",
"275 0 LINE",
"1114 0 LINE"
);
},
{
closed = 1;
nodes = (
"1032 883 OFFCURVE",
"1085 935 OFFCURVE",
"1085 996 CURVE SMOOTH",
"1085 1057 OFFCURVE",
"1032 1109 OFFCURVE",
"971 1109 CURVE SMOOTH",
"910 1109 OFFCURVE",
"857 1057 OFFCURVE",
"857 996 CURVE SMOOTH",
"857 935 OFFCURVE",
"910 883 OFFCURVE",
"971 883 CURVE SMOOTH"
);
}
);
width = 1266;
}
);
note = Ldot;
unicode = 013F;
},
{
glyphname = Ldotbelow;
layers = (
{
layerId = "FD6F9899-E567-4A26-8444-C317D4100EC1";
paths = (
{
closed = 1;
nodes = (
"1114 124 LINE",
"411 124 LINE",
"411 1443 LINE",
"275 1443 LINE",
"275 0 LINE",
"1114 0 LINE"
);
},
{
closed = 1;
nodes = (
"756 -440 OFFCURVE",
"809 -388 OFFCURVE",
"809 -327 CURVE SMOOTH",
"809 -266 OFFCURVE",
"756 -214 OFFCURVE",
"695 -214 CURVE SMOOTH",
"634 -214 OFFCURVE",
"581 -266 OFFCURVE",
"581 -327 CURVE SMOOTH",
"581 -388 OFFCURVE",
"634 -440 OFFCURVE",
"695 -440 CURVE SMOOTH"
);
}
);
width = 1266;
}
);
note = Ldotbelow;
unicode = 1E36;
},
{
glyphname = Ldotbelowmacron;
layers = (
{
layerId = "FD6F9899-E567-4A26-8444-C317D4100EC1";
paths = (
{
closed = 1;
nodes = (
"663 1714 LINE",
"663 1832 LINE",
"25 1832 LINE",
"25 1714 LINE"
);
},
{
closed = 1;
nodes = (
"1114 124 LINE",
"411 124 LINE",
"411 1443 LINE",
"275 1443 LINE",
"275 0 LINE",
"1114 0 LINE"
);
},
{
closed = 1;
nodes = (
"756 -440 OFFCURVE",
"809 -388 OFFCURVE",
"809 -327 CURVE SMOOTH",
"809 -266 OFFCURVE",
"756 -214 OFFCURVE",
"695 -214 CURVE SMOOTH",
"634 -214 OFFCURVE",
"581 -266 OFFCURVE",
"581 -327 CURVE SMOOTH",
"581 -388 OFFCURVE",
"634 -440 OFFCURVE",
"695 -440 CURVE SMOOTH"
);
}
);
width = 1266;
}
);
note = Ldotbelowmacron;
unicode = 1E38;
},
{
glyphname = Lj;
layers = (
{
layerId = "FD6F9899-E567-4A26-8444-C317D4100EC1";
paths = (
{
closed = 1;
nodes = (
"1041 1362 OFFCURVE",
"1097 1418 OFFCURVE",
"1097 1486 CURVE SMOOTH",
"1097 1554 OFFCURVE",
"1041 1610 OFFCURVE",
"973 1610 CURVE SMOOTH",
"905 1610 OFFCURVE",
"849 1554 OFFCURVE",
"849 1486 CURVE SMOOTH",
"849 1418 OFFCURVE",
"905 1362 OFFCURVE",
"973 1362 CURVE SMOOTH"
);
},
{
closed = 1;
nodes = (
"671 121 LINE",
"344 121 LINE",
"344 1443 LINE",
"213 1443 LINE",
"213 0 LINE",
"671 0 LINE"
);
},
{
closed = 1;
nodes = (
"1053 1077 LINE",
"922 1077 LINE",
"922 23 LINE SMOOTH",
"922 -150 OFFCURVE",
"858 -199 OFFCURVE",
"633 -199 CURVE SMOOTH",
"544 -199 OFFCURVE",
"438 -195 OFFCURVE",
"381 -189 CURVE",
"381 -304 LINE",
"460 -312 OFFCURVE",
"537 -315 OFFCURVE",
"636 -315 CURVE SMOOTH",
"930 -315 OFFCURVE",
"1053 -226 OFFCURVE",
"1053 -12 CURVE SMOOTH"
);
}
);
width = 1266;
}
);
note = uni01C8;
unicode = 01C8;
},
{
glyphname = Llinebelow;
layers = (
{
layerId = "FD6F9899-E567-4A26-8444-C317D4100EC1";
paths = (
{
closed = 1;
nodes = (
"1114 124 LINE",
"411 124 LINE",
"411 1443 LINE",
"275 1443 LINE",
"275 0 LINE",
"1114 0 LINE"
);
},
{
closed = 1;
nodes = (
"1014 -386 LINE",
"1014 -268 LINE",
"376 -268 LINE",
"376 -386 LINE"
);
}
);
width = 1266;
}
);
note = Llinebelow;
unicode = 1E3A;
},
{
glyphname = Lslash;
layers = (
{
layerId = "FD6F9899-E567-4A26-8444-C317D4100EC1";
paths = (
{
closed = 1;
nodes = (
"1114 124 LINE",
"411 124 LINE",
"411 680 LINE",
"906 964 LINE",
"906 1092 LINE",
"411 802 LINE",
"411 1443 LINE",
"275 1443 LINE",
"275 723 LINE",
"86 612 LINE",
"86 494 LINE",
"275 602 LINE",
"275 0 LINE",
"1114 0 LINE"
);
}
);
width = 1266;
}
);
note = Lslash;
unicode = 0141;
},
{
glyphname = M;
layers = (
{
layerId = "FD6F9899-E567-4A26-8444-C317D4100EC1";
paths = (
{
closed = 1;
nodes = (
"248 1177 LINE",
"258 1177 LINE",
"574 339 LINE",
"692 339 LINE",
"1008 1177 LINE",
"1018 1177 LINE",
"1018 0 LINE",
"1146 0 LINE",
"1146 1443 LINE",
"984 1443 LINE",
"639 515 LINE",
"628 515 LINE",
"281 1443 LINE",
"120 1443 LINE",
"120 0 LINE",
"248 0 LINE"
);
}
);
width = 1266;
}
);
note = M;
unicode = 004D;
},
{
glyphname = Macute;
layers = (
{
layerId = "FD6F9899-E567-4A26-8444-C317D4100EC1";
paths = (
{
closed = 1;
nodes = (
"526 1617 LINE",
"684 1617 LINE",
"1010 1914 LINE",
"836 1914 LINE"
);
},
{
closed = 1;
nodes = (
"248 1177 LINE",
"258 1177 LINE",
"574 339 LINE",
"692 339 LINE",
"1008 1177 LINE",
"1018 1177 LINE",
"1018 0 LINE",
"1146 0 LINE",
"1146 1443 LINE",
"984 1443 LINE",
"639 515 LINE",
"628 515 LINE",
"281 1443 LINE",
"120 1443 LINE",
"120 0 LINE",
"248 0 LINE"
);
}
);
width = 1266;
}
);
note = Macute;
unicode = 1E3E;
},
{
glyphname = Mdotaccent;
layers = (
{
layerId = "FD6F9899-E567-4A26-8444-C317D4100EC1";
paths = (
{
closed = 1;
nodes = (
"694 1660 OFFCURVE",
"747 1712 OFFCURVE",
"747 1773 CURVE SMOOTH",
"747 1834 OFFCURVE",
"694 1886 OFFCURVE",
"633 1886 CURVE SMOOTH",
"572 1886 OFFCURVE",
"519 1834 OFFCURVE",
"519 1773 CURVE SMOOTH",
"519 1712 OFFCURVE",
"572 1660 OFFCURVE",
"633 1660 CURVE SMOOTH"
);
},
{
closed = 1;
nodes = (
"248 1177 LINE",
"258 1177 LINE",
"574 339 LINE",
"692 339 LINE",
"1008 1177 LINE",
"1018 1177 LINE",
"1018 0 LINE",
"1146 0 LINE",
"1146 1443 LINE",
"984 1443 LINE",
"639 515 LINE",
"628 515 LINE",
"281 1443 LINE",
"120 1443 LINE",
"120 0 LINE",
"248 0 LINE"
);
}
);
width = 1266;
}
);
note = Mdotaccent;
unicode = 1E40;
},
{
glyphname = Mdotbelow;
layers = (
{
layerId = "FD6F9899-E567-4A26-8444-C317D4100EC1";
paths = (
{
closed = 1;
nodes = (
"248 1177 LINE",
"258 1177 LINE",
"574 339 LINE",
"692 339 LINE",
"1008 1177 LINE",
"1018 1177 LINE",
"1018 0 LINE",
"1146 0 LINE",
"1146 1443 LINE",
"984 1443 LINE",
"639 515 LINE",
"628 515 LINE",
"281 1443 LINE",
"120 1443 LINE",
"120 0 LINE",
"248 0 LINE"
);
},
{
closed = 1;
nodes = (
"694 -440 OFFCURVE",
"747 -388 OFFCURVE",
"747 -327 CURVE SMOOTH",
"747 -266 OFFCURVE",
"694 -214 OFFCURVE",
"633 -214 CURVE SMOOTH",
"572 -214 OFFCURVE",
"519 -266 OFFCURVE",
"519 -327 CURVE SMOOTH",
"519 -388 OFFCURVE",
"572 -440 OFFCURVE",
"633 -440 CURVE SMOOTH"
);
}
);
width = 1266;
}
);
note = Mdotbelow;
unicode = 1E42;
},
{
glyphname = N;
layers = (
{
layerId = "FD6F9899-E567-4A26-8444-C317D4100EC1";
paths = (
{
closed = 1;
nodes = (
"290 0 LINE",
"290 1199 LINE",
"303 1199 LINE",
"968 0 LINE",
"1104 0 LINE",
"1104 1443 LINE",
"976 1443 LINE",
"976 245 LINE",
"963 245 LINE",
"301 1443 LINE",
"162 1443 LINE",
"162 0 LINE"
);
}
);
width = 1266;
}
);
note = N;
unicode = 004E;
},
{
glyphname = NJ;
layers = (
{
layerId = "FD6F9899-E567-4A26-8444-C317D4100EC1";
paths = (
{
closed = 1;
nodes = (
"1113 -30 OFFCURVE",
"1186 93 OFFCURVE",
"1186 381 CURVE SMOOTH",
"1186 1443 LINE",
"1061 1443 LINE",
"1061 381 LINE SMOOTH",
"1061 155 OFFCURVE",
"1035 92 OFFCURVE",
"941 92 CURVE SMOOTH",
"859 92 OFFCURVE",
"826 154 OFFCURVE",
"818 330 CURVE",
"692 330 LINE",
"694 99 OFFCURVE",
"783 -30 OFFCURVE",
"941 -30 CURVE SMOOTH"
);
},
{
closed = 1;
nodes = (
"193 0 LINE",
"193 976 LINE",
"183 1159 LINE",
"196 1159 LINE",
"472 0 LINE",
"608 0 LINE",
"608 1443 LINE",
"495 1443 LINE",
"495 478 LINE",
"505 285 LINE",
"492 285 LINE",
"219 1443 LINE",
"80 1443 LINE",
"80 0 LINE"
);
}
);
width = 1266;
}
);
note = uni01CA;
unicode = 01CA;
},
{
glyphname = Nacute;
layers = (
{
layerId = "FD6F9899-E567-4A26-8444-C317D4100EC1";
paths = (
{
closed = 1;
nodes = (
"522 1617 LINE",
"680 1617 LINE",
"1006 1914 LINE",
"832 1914 LINE"
);
},
{
closed = 1;
nodes = (
"290 0 LINE",
"290 1199 LINE",
"303 1199 LINE",
"968 0 LINE",
"1104 0 LINE",
"1104 1443 LINE",
"976 1443 LINE",
"976 245 LINE",
"963 245 LINE",
"301 1443 LINE",
"162 1443 LINE",
"162 0 LINE"
);
}
);
width = 1266;
}
);
note = Nacute;
unicode = 0143;
},
{
glyphname = Ncaron;
layers = (
{
layerId = "FD6F9899-E567-4A26-8444-C317D4100EC1";
paths = (
{
closed = 1;
nodes = (
"691 1617 LINE",
"980 1914 LINE",
"825 1914 LINE",
"635 1712 LINE",
"623 1712 LINE",
"433 1914 LINE",
"278 1914 LINE",
"567 1617 LINE"
);
},
{
closed = 1;
nodes = (
"290 0 LINE",
"290 1199 LINE",
"303 1199 LINE",
"968 0 LINE",
"1104 0 LINE",
"1104 1443 LINE",
"976 1443 LINE",
"976 245 LINE",
"963 245 LINE",
"301 1443 LINE",
"162 1443 LINE",
"162 0 LINE"
);
}
);
width = 1266;
}
);
note = Ncaron;
unicode = 0147;
},
{
glyphname = Ncircumflexbelow;
layers = (
{
layerId = "FD6F9899-E567-4A26-8444-C317D4100EC1";
paths = (
{
closed = 1;
nodes = (
"290 0 LINE",
"290 1199 LINE",
"303 1199 LINE",
"968 0 LINE",
"1104 0 LINE",
"1104 1443 LINE",
"976 1443 LINE",
"976 245 LINE",
"963 245 LINE",
"301 1443 LINE",
"162 1443 LINE",
"162 0 LINE"
);
},
{
closed = 1;
nodes = (
"547 -169 LINE",
"271 -504 LINE",
"441 -504 LINE",
"624 -269 LINE",
"638 -269 LINE",
"821 -504 LINE",
"991 -504 LINE",
"715 -169 LINE"
);
}
);
width = 1266;
}
);
note = Ncircumflexbelow;
unicode = 1E4A;
},
{
glyphname = Ncommaaccent;
layers = (
{
layerId = "FD6F9899-E567-4A26-8444-C317D4100EC1";
paths = (
{
closed = 1;
nodes = (
"290 0 LINE",
"290 1199 LINE",
"303 1199 LINE",
"968 0 LINE",
"1104 0 LINE",
"1104 1443 LINE",
"976 1443 LINE",
"976 245 LINE",
"963 245 LINE",
"301 1443 LINE",
"162 1443 LINE",
"162 0 LINE"
);
},
{
closed = 1;
nodes = (
"585 -503 LINE",
"701 -139 LINE",
"561 -139 LINE",
"459 -503 LINE"
);
}
);
width = 1266;
}
);
note = Ncommaaccent;
unicode = 0145;
},
{
glyphname = Ndotaccent;
layers = (
{
layerId = "FD6F9899-E567-4A26-8444-C317D4100EC1";
paths = (
{
closed = 1;
nodes = (
"690 1660 OFFCURVE",
"743 1712 OFFCURVE",
"743 1773 CURVE SMOOTH",
"743 1834 OFFCURVE",
"690 1886 OFFCURVE",
"629 1886 CURVE SMOOTH",
"568 1886 OFFCURVE",
"515 1834 OFFCURVE",
"515 1773 CURVE SMOOTH",
"515 1712 OFFCURVE",
"568 1660 OFFCURVE",
"629 1660 CURVE SMOOTH"
);
},
{
closed = 1;
nodes = (
"290 0 LINE",
"290 1199 LINE",
"303 1199 LINE",
"968 0 LINE",
"1104 0 LINE",
"1104 1443 LINE",
"976 1443 LINE",
"976 245 LINE",
"963 245 LINE",
"301 1443 LINE",
"162 1443 LINE",
"162 0 LINE"
);
}
);
width = 1266;
}
);
note = Ndotaccent;
unicode = 1E44;
},
{
glyphname = Ndotbelow;
layers = (
{
layerId = "FD6F9899-E567-4A26-8444-C317D4100EC1";
paths = (
{
closed = 1;
nodes = (
"290 0 LINE",
"290 1199 LINE",
"303 1199 LINE",
"968 0 LINE",
"1104 0 LINE",
"1104 1443 LINE",
"976 1443 LINE",
"976 245 LINE",
"963 245 LINE",
"301 1443 LINE",
"162 1443 LINE",
"162 0 LINE"
);
},
{
closed = 1;
nodes = (
"692 -440 OFFCURVE",
"745 -388 OFFCURVE",
"745 -327 CURVE SMOOTH",
"745 -266 OFFCURVE",
"692 -214 OFFCURVE",
"631 -214 CURVE SMOOTH",
"570 -214 OFFCURVE",
"517 -266 OFFCURVE",
"517 -327 CURVE SMOOTH",
"517 -388 OFFCURVE",
"570 -440 OFFCURVE",
"631 -440 CURVE SMOOTH"
);
}
);
width = 1266;
}
);
note = Ndotbelow;
unicode = 1E46;
},
{
glyphname = Ngrave;
layers = (
{
layerId = "FD6F9899-E567-4A26-8444-C317D4100EC1";
paths = (
{
closed = 1;
nodes = (
"733 1617 LINE",
"423 1914 LINE",
"249 1914 LINE",
"575 1617 LINE"
);
},
{
closed = 1;
nodes = (
"290 0 LINE",
"290 1199 LINE",
"303 1199 LINE",
"968 0 LINE",
"1104 0 LINE",
"1104 1443 LINE",
"976 1443 LINE",
"976 245 LINE",
"963 245 LINE",
"301 1443 LINE",
"162 1443 LINE",
"162 0 LINE"
);
}
);
width = 1266;
}
);
note = Ngrave;
unicode = 01F8;
},
{
glyphname = Nj;
layers = (
{
layerId = "FD6F9899-E567-4A26-8444-C317D4100EC1";
paths = (
{
closed = 1;
nodes = (
"1041 1362 OFFCURVE",
"1097 1418 OFFCURVE",
"1097 1486 CURVE SMOOTH",
"1097 1554 OFFCURVE",
"1041 1610 OFFCURVE",
"973 1610 CURVE SMOOTH",
"905 1610 OFFCURVE",
"849 1554 OFFCURVE",
"849 1486 CURVE SMOOTH",
"849 1418 OFFCURVE",
"905 1362 OFFCURVE",
"973 1362 CURVE SMOOTH"
);
},
{
closed = 1;
nodes = (
"198 0 LINE",
"198 1159 LINE",
"216 1159 LINE",
"542 0 LINE",
"698 0 LINE",
"698 1443 LINE",
"580 1443 LINE",
"580 285 LINE",
"562 285 LINE",
"239 1443 LINE",
"80 1443 LINE",
"80 0 LINE"
);
},
{
closed = 1;
nodes = (
"1053 1077 LINE",
"922 1077 LINE",
"922 23 LINE SMOOTH",
"922 -150 OFFCURVE",
"858 -199 OFFCURVE",
"633 -199 CURVE SMOOTH",
"544 -199 OFFCURVE",
"438 -195 OFFCURVE",
"381 -189 CURVE",
"381 -304 LINE",
"460 -312 OFFCURVE",
"537 -315 OFFCURVE",
"636 -315 CURVE SMOOTH",
"930 -315 OFFCURVE",
"1053 -226 OFFCURVE",
"1053 -12 CURVE SMOOTH"
);
}
);
width = 1266;
}
);
note = uni01CB;
unicode = 01CB;
},
{
glyphname = Nlinebelow;
layers = (
{
layerId = "FD6F9899-E567-4A26-8444-C317D4100EC1";
paths = (
{
closed = 1;
nodes = (
"290 0 LINE",
"290 1199 LINE",
"303 1199 LINE",
"968 0 LINE",
"1104 0 LINE",
"1104 1443 LINE",
"976 1443 LINE",
"976 245 LINE",
"963 245 LINE",
"301 1443 LINE",
"162 1443 LINE",
"162 0 LINE"
);
},
{
closed = 1;
nodes = (
"950 -386 LINE",
"950 -268 LINE",
"312 -268 LINE",
"312 -386 LINE"
);
}
);
width = 1266;
}
);
note = Nlinebelow;
unicode = 1E48;
},
{
glyphname = Ntilde;
layers = (
{
layerId = "FD6F9899-E567-4A26-8444-C317D4100EC1";
paths = (
{
closed = 1;
nodes = (
"897 1632 OFFCURVE",
"978 1733 OFFCURVE",
"978 1887 CURVE",
"873 1887 LINE",
"869 1789 OFFCURVE",
"832 1733 OFFCURVE",
"771 1733 CURVE SMOOTH",
"678 1733 OFFCURVE",
"647 1899 OFFCURVE",
"484 1899 CURVE SMOOTH",
"359 1899 OFFCURVE",
"280 1800 OFFCURVE",
"280 1643 CURVE",
"386 1643 LINE",
"389 1744 OFFCURVE",
"424 1797 OFFCURVE",
"487 1797 CURVE SMOOTH",
"594 1797 OFFCURVE",
"619 1632 OFFCURVE",
"774 1632 CURVE SMOOTH"
);
},
{
closed = 1;
nodes = (
"290 0 LINE",
"290 1199 LINE",
"303 1199 LINE",
"968 0 LINE",
"1104 0 LINE",
"1104 1443 LINE",
"976 1443 LINE",
"976 245 LINE",
"963 245 LINE",
"301 1443 LINE",
"162 1443 LINE",
"162 0 LINE"
);
}
);
width = 1266;
}
);
note = Ntilde;
unicode = 00D1;
},
{
glyphname = O;
layers = (
{
layerId = "FD6F9899-E567-4A26-8444-C317D4100EC1";
paths = (
{
closed = 1;
nodes = (
"1152 841 LINE SMOOTH",
"1152 1239 OFFCURVE",
"954 1473 OFFCURVE",
"633 1473 CURVE SMOOTH",
"312 1473 OFFCURVE",
"114 1239 OFFCURVE",
"114 841 CURVE SMOOTH",
"114 602 LINE SMOOTH",
"114 204 OFFCURVE",
"312 -30 OFFCURVE",
"633 -30 CURVE SMOOTH",
"954 -30 OFFCURVE",
"1152 204 OFFCURVE",
"1152 602 CURVE SMOOTH"
);
},
{
closed = 1;
nodes = (
"397 97 OFFCURVE",
"251 282 OFFCURVE",
"251 602 CURVE SMOOTH",
"251 841 LINE SMOOTH",
"251 1161 OFFCURVE",
"397 1346 OFFCURVE",
"633 1346 CURVE SMOOTH",
"869 1346 OFFCURVE",
"1015 1161 OFFCURVE",
"1015 841 CURVE SMOOTH",
"1015 602 LINE SMOOTH",
"1015 282 OFFCURVE",
"869 97 OFFCURVE",
"633 97 CURVE SMOOTH"
);
}
);
width = 1266;
}
);
note = O;
unicode = 004F;
},
{
glyphname = Oacute;
layers = (
{
layerId = "FD6F9899-E567-4A26-8444-C317D4100EC1";
paths = (
{
closed = 1;
nodes = (
"526 1617 LINE",
"684 1617 LINE",
"1010 1914 LINE",
"836 1914 LINE"
);
},
{
closed = 1;
nodes = (
"1152 841 LINE SMOOTH",
"1152 1239 OFFCURVE",
"954 1473 OFFCURVE",
"633 1473 CURVE SMOOTH",
"312 1473 OFFCURVE",
"114 1239 OFFCURVE",
"114 841 CURVE SMOOTH",
"114 602 LINE SMOOTH",
"114 204 OFFCURVE",
"312 -30 OFFCURVE",
"633 -30 CURVE SMOOTH",
"954 -30 OFFCURVE",
"1152 204 OFFCURVE",
"1152 602 CURVE SMOOTH"
);
},
{
closed = 1;
nodes = (
"397 97 OFFCURVE",
"251 282 OFFCURVE",
"251 602 CURVE SMOOTH",
"251 841 LINE SMOOTH",
"251 1161 OFFCURVE",
"397 1346 OFFCURVE",
"633 1346 CURVE SMOOTH",
"869 1346 OFFCURVE",
"1015 1161 OFFCURVE",
"1015 841 CURVE SMOOTH",
"1015 602 LINE SMOOTH",
"1015 282 OFFCURVE",
"869 97 OFFCURVE",
"633 97 CURVE SMOOTH"
);
}
);
width = 1266;
}
);
note = Oacute;
unicode = 00D3;
},
{
glyphname = Obreve;
layers = (
{
layerId = "FD6F9899-E567-4A26-8444-C317D4100EC1";
paths = (
{
closed = 1;
nodes = (
"303 1914 LINE",
"303 1739 OFFCURVE",
"439 1617 OFFCURVE",
"633 1617 CURVE SMOOTH",
"827 1617 OFFCURVE",
"963 1739 OFFCURVE",
"963 1914 CURVE",
"845 1914 LINE",
"845 1799 OFFCURVE",
"756 1715 OFFCURVE",
"633 1715 CURVE SMOOTH",
"510 1715 OFFCURVE",
"421 1799 OFFCURVE",
"421 1914 CURVE"
);
},
{
closed = 1;
nodes = (
"1152 841 LINE SMOOTH",
"1152 1239 OFFCURVE",
"954 1473 OFFCURVE",
"633 1473 CURVE SMOOTH",
"312 1473 OFFCURVE",
"114 1239 OFFCURVE",
"114 841 CURVE SMOOTH",
"114 602 LINE SMOOTH",
"114 204 OFFCURVE",
"312 -30 OFFCURVE",
"633 -30 CURVE SMOOTH",
"954 -30 OFFCURVE",
"1152 204 OFFCURVE",
"1152 602 CURVE SMOOTH"
);
},
{
closed = 1;
nodes = (
"397 97 OFFCURVE",
"251 282 OFFCURVE",
"251 602 CURVE SMOOTH",
"251 841 LINE SMOOTH",
"251 1161 OFFCURVE",
"397 1346 OFFCURVE",
"633 1346 CURVE SMOOTH",
"869 1346 OFFCURVE",
"1015 1161 OFFCURVE",
"1015 841 CURVE SMOOTH",
"1015 602 LINE SMOOTH",
"1015 282 OFFCURVE",
"869 97 OFFCURVE",
"633 97 CURVE SMOOTH"
);
}
);
width = 1266;
}
);
note = Obreve;
unicode = 014E;
},
{
glyphname = Ocaron;
layers = (
{
layerId = "FD6F9899-E567-4A26-8444-C317D4100EC1";
paths = (
{
closed = 1;
nodes = (
"695 1617 LINE",
"984 1914 LINE",
"829 1914 LINE",
"639 1712 LINE",
"627 1712 LINE",
"437 1914 LINE",
"282 1914 LINE",
"571 1617 LINE"
);
},
{
closed = 1;
nodes = (
"1152 841 LINE SMOOTH",
"1152 1239 OFFCURVE",
"954 1473 OFFCURVE",
"633 1473 CURVE SMOOTH",
"312 1473 OFFCURVE",
"114 1239 OFFCURVE",
"114 841 CURVE SMOOTH",
"114 602 LINE SMOOTH",
"114 204 OFFCURVE",
"312 -30 OFFCURVE",
"633 -30 CURVE SMOOTH",
"954 -30 OFFCURVE",
"1152 204 OFFCURVE",
"1152 602 CURVE SMOOTH"
);
},
{
closed = 1;
nodes = (
"397 97 OFFCURVE",
"251 282 OFFCURVE",
"251 602 CURVE SMOOTH",
"251 841 LINE SMOOTH",
"251 1161 OFFCURVE",
"397 1346 OFFCURVE",
"633 1346 CURVE SMOOTH",
"869 1346 OFFCURVE",
"1015 1161 OFFCURVE",
"1015 841 CURVE SMOOTH",
"1015 602 LINE SMOOTH",
"1015 282 OFFCURVE",
"869 97 OFFCURVE",
"633 97 CURVE SMOOTH"
);
}
);
width = 1266;
}
);
note = Ocaron;
unicode = 01D1;
},
{
glyphname = Ocircumflex;
layers = (
{
layerId = "FD6F9899-E567-4A26-8444-C317D4100EC1";
paths = (
{
closed = 1;
nodes = (
"695 1914 LINE",
"571 1914 LINE",
"282 1617 LINE",
"437 1617 LINE",
"627 1819 LINE",
"639 1819 LINE",
"829 1617 LINE",
"984 1617 LINE"
);
},
{
closed = 1;
nodes = (
"1152 841 LINE SMOOTH",
"1152 1239 OFFCURVE",
"954 1473 OFFCURVE",
"633 1473 CURVE SMOOTH",
"312 1473 OFFCURVE",
"114 1239 OFFCURVE",
"114 841 CURVE SMOOTH",
"114 602 LINE SMOOTH",
"114 204 OFFCURVE",
"312 -30 OFFCURVE",
"633 -30 CURVE SMOOTH",
"954 -30 OFFCURVE",
"1152 204 OFFCURVE",
"1152 602 CURVE SMOOTH"
);
},
{
closed = 1;
nodes = (
"397 97 OFFCURVE",
"251 282 OFFCURVE",
"251 602 CURVE SMOOTH",
"251 841 LINE SMOOTH",
"251 1161 OFFCURVE",
"397 1346 OFFCURVE",
"633 1346 CURVE SMOOTH",
"869 1346 OFFCURVE",
"1015 1161 OFFCURVE",
"1015 841 CURVE SMOOTH",
"1015 602 LINE SMOOTH",
"1015 282 OFFCURVE",
"869 97 OFFCURVE",
"633 97 CURVE SMOOTH"
);
}
);
width = 1266;
}
);
note = Ocircumflex;
unicode = 00D4;
},
{
glyphname = Ocircumflexacute;
layers = (
{
layerId = "FD6F9899-E567-4A26-8444-C317D4100EC1";
paths = (
{
closed = 1;
nodes = (
"823 1829 LINE",
"972 1829 LINE",
"1215 2046 LINE",
"1047 2046 LINE"
);
},
{
closed = 1;
nodes = (
"706 1801 LINE",
"560 1801 LINE",
"275 1577 LINE",
"447 1577 LINE",
"627 1723 LINE",
"639 1723 LINE",
"819 1577 LINE",
"991 1577 LINE"
);
},
{
closed = 1;
nodes = (
"1152 841 LINE SMOOTH",
"1152 1239 OFFCURVE",
"954 1473 OFFCURVE",
"633 1473 CURVE SMOOTH",
"312 1473 OFFCURVE",
"114 1239 OFFCURVE",
"114 841 CURVE SMOOTH",
"114 602 LINE SMOOTH",
"114 204 OFFCURVE",
"312 -30 OFFCURVE",
"633 -30 CURVE SMOOTH",
"954 -30 OFFCURVE",
"1152 204 OFFCURVE",
"1152 602 CURVE SMOOTH"
);
},
{
closed = 1;
nodes = (
"397 97 OFFCURVE",
"251 282 OFFCURVE",
"251 602 CURVE SMOOTH",
"251 841 LINE SMOOTH",
"251 1161 OFFCURVE",
"397 1346 OFFCURVE",
"633 1346 CURVE SMOOTH",
"869 1346 OFFCURVE",
"1015 1161 OFFCURVE",
"1015 841 CURVE SMOOTH",
"1015 602 LINE SMOOTH",
"1015 282 OFFCURVE",
"869 97 OFFCURVE",
"633 97 CURVE SMOOTH"
);
}
);
width = 1266;
}
);
note = Ocircumflexacute;
unicode = 1ED0;
},
{
glyphname = Ocircumflexdotbelow;
layers = (
{
layerId = "FD6F9899-E567-4A26-8444-C317D4100EC1";
paths = (
{
closed = 1;
nodes = (
"695 1914 LINE",
"571 1914 LINE",
"282 1617 LINE",
"437 1617 LINE",
"627 1819 LINE",
"639 1819 LINE",
"829 1617 LINE",
"984 1617 LINE"
);
},
{
closed = 1;
nodes = (
"1152 841 LINE SMOOTH",
"1152 1239 OFFCURVE",
"954 1473 OFFCURVE",
"633 1473 CURVE SMOOTH",
"312 1473 OFFCURVE",
"114 1239 OFFCURVE",
"114 841 CURVE SMOOTH",
"114 602 LINE SMOOTH",
"114 204 OFFCURVE",
"312 -30 OFFCURVE",
"633 -30 CURVE SMOOTH",
"954 -30 OFFCURVE",
"1152 204 OFFCURVE",
"1152 602 CURVE SMOOTH"
);
},
{
closed = 1;
nodes = (
"397 97 OFFCURVE",
"251 282 OFFCURVE",
"251 602 CURVE SMOOTH",
"251 841 LINE SMOOTH",
"251 1161 OFFCURVE",
"397 1346 OFFCURVE",
"633 1346 CURVE SMOOTH",
"869 1346 OFFCURVE",
"1015 1161 OFFCURVE",
"1015 841 CURVE SMOOTH",
"1015 602 LINE SMOOTH",
"1015 282 OFFCURVE",
"869 97 OFFCURVE",
"633 97 CURVE SMOOTH"
);
},
{
closed = 1;
nodes = (
"694 -440 OFFCURVE",
"747 -388 OFFCURVE",
"747 -327 CURVE SMOOTH",
"747 -266 OFFCURVE",
"694 -214 OFFCURVE",
"633 -214 CURVE SMOOTH",
"572 -214 OFFCURVE",
"519 -266 OFFCURVE",
"519 -327 CURVE SMOOTH",
"519 -388 OFFCURVE",
"572 -440 OFFCURVE",
"633 -440 CURVE SMOOTH"
);
}
);
width = 1266;
}
);
note = Ocircumflexdotbelow;
unicode = 1ED8;
},
{
glyphname = Ocircumflexgrave;
layers = (
{
layerId = "FD6F9899-E567-4A26-8444-C317D4100EC1";
paths = (
{
closed = 1;
nodes = (
"1041 1829 LINE",
"817 2046 LINE",
"649 2046 LINE",
"892 1829 LINE"
);
},
{
closed = 1;
nodes = (
"706 1801 LINE",
"560 1801 LINE",
"275 1577 LINE",
"447 1577 LINE",
"627 1723 LINE",
"639 1723 LINE",
"819 1577 LINE",
"991 1577 LINE"
);
},
{
closed = 1;
nodes = (
"1152 841 LINE SMOOTH",
"1152 1239 OFFCURVE",
"954 1473 OFFCURVE",
"633 1473 CURVE SMOOTH",
"312 1473 OFFCURVE",
"114 1239 OFFCURVE",
"114 841 CURVE SMOOTH",
"114 602 LINE SMOOTH",
"114 204 OFFCURVE",
"312 -30 OFFCURVE",
"633 -30 CURVE SMOOTH",
"954 -30 OFFCURVE",
"1152 204 OFFCURVE",
"1152 602 CURVE SMOOTH"
);
},
{
closed = 1;
nodes = (
"397 97 OFFCURVE",
"251 282 OFFCURVE",
"251 602 CURVE SMOOTH",
"251 841 LINE SMOOTH",
"251 1161 OFFCURVE",
"397 1346 OFFCURVE",
"633 1346 CURVE SMOOTH",
"869 1346 OFFCURVE",
"1015 1161 OFFCURVE",
"1015 841 CURVE SMOOTH",
"1015 602 LINE SMOOTH",
"1015 282 OFFCURVE",
"869 97 OFFCURVE",
"633 97 CURVE SMOOTH"
);
}
);
width = 1266;
}
);
note = Ocircumflexgrave;
unicode = 1ED2;
},
{
glyphname = Ocircumflexhookabove;
layers = (
{
layerId = "FD6F9899-E567-4A26-8444-C317D4100EC1";
paths = (
{
closed = 1;
nodes = (
"748 1975 LINE",
"768 1986 OFFCURVE",
"809 1994 OFFCURVE",
"842 1994 CURVE SMOOTH",
"893 1994 OFFCURVE",
"928 1966 OFFCURVE",
"928 1925 CURVE SMOOTH",
"928 1884 OFFCURVE",
"897 1847 OFFCURVE",
"848 1828 CURVE",
"923 1770 LINE",
"992 1795 OFFCURVE",
"1039 1860 OFFCURVE",
"1039 1930 CURVE SMOOTH",
"1039 2017 OFFCURVE",
"971 2076 OFFCURVE",
"871 2076 CURVE SMOOTH",
"823 2076 OFFCURVE",
"771 2068 OFFCURVE",
"748 2057 CURVE"
);
},
{
closed = 1;
nodes = (
"706 1801 LINE",
"560 1801 LINE",
"275 1577 LINE",
"447 1577 LINE",
"627 1723 LINE",
"639 1723 LINE",
"819 1577 LINE",
"991 1577 LINE"
);
},
{
closed = 1;
nodes = (
"1152 841 LINE SMOOTH",
"1152 1239 OFFCURVE",
"954 1473 OFFCURVE",
"633 1473 CURVE SMOOTH",
"312 1473 OFFCURVE",
"114 1239 OFFCURVE",
"114 841 CURVE SMOOTH",
"114 602 LINE SMOOTH",
"114 204 OFFCURVE",
"312 -30 OFFCURVE",
"633 -30 CURVE SMOOTH",
"954 -30 OFFCURVE",
"1152 204 OFFCURVE",
"1152 602 CURVE SMOOTH"
);
},
{
closed = 1;
nodes = (
"397 97 OFFCURVE",
"251 282 OFFCURVE",
"251 602 CURVE SMOOTH",
"251 841 LINE SMOOTH",
"251 1161 OFFCURVE",
"397 1346 OFFCURVE",
"633 1346 CURVE SMOOTH",
"869 1346 OFFCURVE",
"1015 1161 OFFCURVE",
"1015 841 CURVE SMOOTH",
"1015 602 LINE SMOOTH",
"1015 282 OFFCURVE",
"869 97 OFFCURVE",
"633 97 CURVE SMOOTH"
);
}
);
width = 1266;
}
);
note = Ocircumflexhookabove;
unicode = 1ED4;
},
{
glyphname = Ocircumflextilde;
layers = (
{
layerId = "FD6F9899-E567-4A26-8444-C317D4100EC1";
paths = (
{
closed = 1;
nodes = (
"889 1849 OFFCURVE",
"972 1941 OFFCURVE",
"972 2072 CURVE",
"867 2072 LINE",
"863 1994 OFFCURVE",
"828 1950 OFFCURVE",
"771 1950 CURVE SMOOTH",
"664 1950 OFFCURVE",
"665 2086 OFFCURVE",
"496 2086 CURVE SMOOTH",
"375 2086 OFFCURVE",
"294 1997 OFFCURVE",
"294 1864 CURVE",
"400 1864 LINE",
"403 1944 OFFCURVE",
"436 1986 OFFCURVE",
"495 1986 CURVE SMOOTH",
"602 1986 OFFCURVE",
"601 1849 OFFCURVE",
"770 1849 CURVE SMOOTH"
);
},
{
closed = 1;
nodes = (
"706 1801 LINE",
"560 1801 LINE",
"275 1577 LINE",
"447 1577 LINE",
"627 1723 LINE",
"639 1723 LINE",
"819 1577 LINE",
"991 1577 LINE"
);
},
{
closed = 1;
nodes = (
"1152 841 LINE SMOOTH",
"1152 1239 OFFCURVE",
"954 1473 OFFCURVE",
"633 1473 CURVE SMOOTH",
"312 1473 OFFCURVE",
"114 1239 OFFCURVE",
"114 841 CURVE SMOOTH",
"114 602 LINE SMOOTH",
"114 204 OFFCURVE",
"312 -30 OFFCURVE",
"633 -30 CURVE SMOOTH",
"954 -30 OFFCURVE",
"1152 204 OFFCURVE",
"1152 602 CURVE SMOOTH"
);
},
{
closed = 1;
nodes = (
"397 97 OFFCURVE",
"251 282 OFFCURVE",
"251 602 CURVE SMOOTH",
"251 841 LINE SMOOTH",
"251 1161 OFFCURVE",
"397 1346 OFFCURVE",
"633 1346 CURVE SMOOTH",
"869 1346 OFFCURVE",
"1015 1161 OFFCURVE",
"1015 841 CURVE SMOOTH",
"1015 602 LINE SMOOTH",
"1015 282 OFFCURVE",
"869 97 OFFCURVE",
"633 97 CURVE SMOOTH"
);
}
);
width = 1266;
}
);
note = Ocircumflextilde;
unicode = 1ED6;
},
{
glyphname = Odblgrave;
layers = (
{
layerId = "FD6F9899-E567-4A26-8444-C317D4100EC1";
paths = (
{
closed = 1;
nodes = (
"575 1617 LINE",
"265 1914 LINE",
"91 1914 LINE",
"417 1617 LINE"
);
},
{
closed = 1;
nodes = (
"939 1617 LINE",
"629 1914 LINE",
"455 1914 LINE",
"781 1617 LINE"
);
},
{
closed = 1;
nodes = (
"1152 841 LINE SMOOTH",
"1152 1239 OFFCURVE",
"954 1473 OFFCURVE",
"633 1473 CURVE SMOOTH",
"312 1473 OFFCURVE",
"114 1239 OFFCURVE",
"114 841 CURVE SMOOTH",
"114 602 LINE SMOOTH",
"114 204 OFFCURVE",
"312 -30 OFFCURVE",
"633 -30 CURVE SMOOTH",
"954 -30 OFFCURVE",
"1152 204 OFFCURVE",
"1152 602 CURVE SMOOTH"
);
},
{
closed = 1;
nodes = (
"397 97 OFFCURVE",
"251 282 OFFCURVE",
"251 602 CURVE SMOOTH",
"251 841 LINE SMOOTH",
"251 1161 OFFCURVE",
"397 1346 OFFCURVE",
"633 1346 CURVE SMOOTH",
"869 1346 OFFCURVE",
"1015 1161 OFFCURVE",
"1015 841 CURVE SMOOTH",
"1015 602 LINE SMOOTH",
"1015 282 OFFCURVE",
"869 97 OFFCURVE",
"633 97 CURVE SMOOTH"
);
}
);
width = 1266;
}
);
note = Odblgrave;
unicode = 020C;
},
{
glyphname = Odieresis;
layers = (
{
layerId = "FD6F9899-E567-4A26-8444-C317D4100EC1";
paths = (
{
closed = 1;
nodes = (
"498 1666 OFFCURVE",
"548 1716 OFFCURVE",
"548 1773 CURVE SMOOTH",
"548 1830 OFFCURVE",
"498 1880 OFFCURVE",
"442 1880 CURVE SMOOTH",
"386 1880 OFFCURVE",
"336 1830 OFFCURVE",
"336 1773 CURVE SMOOTH",
"336 1716 OFFCURVE",
"386 1666 OFFCURVE",
"442 1666 CURVE SMOOTH"
);
},
{
closed = 1;
nodes = (
"880 1666 OFFCURVE",
"930 1716 OFFCURVE",
"930 1773 CURVE SMOOTH",
"930 1830 OFFCURVE",
"880 1880 OFFCURVE",
"824 1880 CURVE SMOOTH",
"768 1880 OFFCURVE",
"718 1830 OFFCURVE",
"718 1773 CURVE SMOOTH",
"718 1716 OFFCURVE",
"768 1666 OFFCURVE",
"824 1666 CURVE SMOOTH"
);
},
{
closed = 1;
nodes = (
"1152 841 LINE SMOOTH",
"1152 1239 OFFCURVE",
"954 1473 OFFCURVE",
"633 1473 CURVE SMOOTH",
"312 1473 OFFCURVE",
"114 1239 OFFCURVE",
"114 841 CURVE SMOOTH",
"114 602 LINE SMOOTH",
"114 204 OFFCURVE",
"312 -30 OFFCURVE",
"633 -30 CURVE SMOOTH",
"954 -30 OFFCURVE",
"1152 204 OFFCURVE",
"1152 602 CURVE SMOOTH"
);
},
{
closed = 1;
nodes = (
"397 97 OFFCURVE",
"251 282 OFFCURVE",
"251 602 CURVE SMOOTH",
"251 841 LINE SMOOTH",
"251 1161 OFFCURVE",
"397 1346 OFFCURVE",
"633 1346 CURVE SMOOTH",
"869 1346 OFFCURVE",
"1015 1161 OFFCURVE",
"1015 841 CURVE SMOOTH",
"1015 602 LINE SMOOTH",
"1015 282 OFFCURVE",
"869 97 OFFCURVE",
"633 97 CURVE SMOOTH"
);
}
);
width = 1266;
}
);
note = Odieresis;
unicode = 00D6;
},
{
glyphname = Odieresismacron;
layers = (
{
layerId = "FD6F9899-E567-4A26-8444-C317D4100EC1";
paths = (
{
closed = 1;
nodes = (
"313 2012 LINE",
"313 1914 LINE",
"951 1914 LINE",
"951 2012 LINE"
);
},
{
closed = 1;
nodes = (
"399 1754 OFFCURVE",
"358 1713 OFFCURVE",
"358 1661 CURVE SMOOTH",
"358 1609 OFFCURVE",
"399 1568 OFFCURVE",
"451 1568 CURVE SMOOTH",
"503 1568 OFFCURVE",
"544 1609 OFFCURVE",
"544 1661 CURVE SMOOTH",
"544 1713 OFFCURVE",
"503 1754 OFFCURVE",
"451 1754 CURVE SMOOTH"
);
},
{
closed = 1;
nodes = (
"763 1754 OFFCURVE",
"722 1713 OFFCURVE",
"722 1661 CURVE SMOOTH",
"722 1609 OFFCURVE",
"763 1568 OFFCURVE",
"815 1568 CURVE SMOOTH",
"867 1568 OFFCURVE",
"908 1609 OFFCURVE",
"908 1661 CURVE SMOOTH",
"908 1713 OFFCURVE",
"867 1754 OFFCURVE",
"815 1754 CURVE SMOOTH"
);
},
{
closed = 1;
nodes = (
"1152 841 LINE SMOOTH",
"1152 1239 OFFCURVE",
"954 1473 OFFCURVE",
"633 1473 CURVE SMOOTH",
"312 1473 OFFCURVE",
"114 1239 OFFCURVE",
"114 841 CURVE SMOOTH",
"114 602 LINE SMOOTH",
"114 204 OFFCURVE",
"312 -30 OFFCURVE",
"633 -30 CURVE SMOOTH",
"954 -30 OFFCURVE",
"1152 204 OFFCURVE",
"1152 602 CURVE SMOOTH"
);
},
{
closed = 1;
nodes = (
"397 97 OFFCURVE",
"251 282 OFFCURVE",
"251 602 CURVE SMOOTH",
"251 841 LINE SMOOTH",
"251 1161 OFFCURVE",
"397 1346 OFFCURVE",
"633 1346 CURVE SMOOTH",
"869 1346 OFFCURVE",
"1015 1161 OFFCURVE",
"1015 841 CURVE SMOOTH",
"1015 602 LINE SMOOTH",
"1015 282 OFFCURVE",
"869 97 OFFCURVE",
"633 97 CURVE SMOOTH"
);
}
);
width = 1266;
}
);
note = Odieresismacron;
unicode = 022A;
},
{
glyphname = Odotaccent;
layers = (
{
layerId = "FD6F9899-E567-4A26-8444-C317D4100EC1";
paths = (
{
closed = 1;
nodes = (
"694 1660 OFFCURVE",
"747 1712 OFFCURVE",
"747 1773 CURVE SMOOTH",
"747 1834 OFFCURVE",
"694 1886 OFFCURVE",
"633 1886 CURVE SMOOTH",
"572 1886 OFFCURVE",
"519 1834 OFFCURVE",
"519 1773 CURVE SMOOTH",
"519 1712 OFFCURVE",
"572 1660 OFFCURVE",
"633 1660 CURVE SMOOTH"
);
},
{
closed = 1;
nodes = (
"1152 841 LINE SMOOTH",
"1152 1239 OFFCURVE",
"954 1473 OFFCURVE",
"633 1473 CURVE SMOOTH",
"312 1473 OFFCURVE",
"114 1239 OFFCURVE",
"114 841 CURVE SMOOTH",
"114 602 LINE SMOOTH",
"114 204 OFFCURVE",
"312 -30 OFFCURVE",
"633 -30 CURVE SMOOTH",
"954 -30 OFFCURVE",
"1152 204 OFFCURVE",
"1152 602 CURVE SMOOTH"
);
},
{
closed = 1;
nodes = (
"397 97 OFFCURVE",
"251 282 OFFCURVE",
"251 602 CURVE SMOOTH",
"251 841 LINE SMOOTH",
"251 1161 OFFCURVE",
"397 1346 OFFCURVE",
"633 1346 CURVE SMOOTH",
"869 1346 OFFCURVE",
"1015 1161 OFFCURVE",
"1015 841 CURVE SMOOTH",
"1015 602 LINE SMOOTH",
"1015 282 OFFCURVE",
"869 97 OFFCURVE",
"633 97 CURVE SMOOTH"
);
}
);
width = 1266;
}
);
note = Odotaccent;
unicode = 022E;
},
{
glyphname = Odotaccentmacron;
layers = (
{
layerId = "FD6F9899-E567-4A26-8444-C317D4100EC1";
paths = (
{
closed = 1;
nodes = (
"314 2012 LINE",
"314 1914 LINE",
"952 1914 LINE",
"952 2012 LINE"
);
},
{
closed = 1;
nodes = (
"575 1786 OFFCURVE",
"529 1740 OFFCURVE",
"529 1682 CURVE SMOOTH",
"529 1624 OFFCURVE",
"575 1578 OFFCURVE",
"633 1578 CURVE SMOOTH",
"691 1578 OFFCURVE",
"737 1624 OFFCURVE",
"737 1682 CURVE SMOOTH",
"737 1740 OFFCURVE",
"691 1786 OFFCURVE",
"633 1786 CURVE SMOOTH"
);
},
{
closed = 1;
nodes = (
"1152 841 LINE SMOOTH",
"1152 1239 OFFCURVE",
"954 1473 OFFCURVE",
"633 1473 CURVE SMOOTH",
"312 1473 OFFCURVE",
"114 1239 OFFCURVE",
"114 841 CURVE SMOOTH",
"114 602 LINE SMOOTH",
"114 204 OFFCURVE",
"312 -30 OFFCURVE",
"633 -30 CURVE SMOOTH",
"954 -30 OFFCURVE",
"1152 204 OFFCURVE",
"1152 602 CURVE SMOOTH"
);
},
{
closed = 1;
nodes = (
"397 97 OFFCURVE",
"251 282 OFFCURVE",
"251 602 CURVE SMOOTH",
"251 841 LINE SMOOTH",
"251 1161 OFFCURVE",
"397 1346 OFFCURVE",
"633 1346 CURVE SMOOTH",
"869 1346 OFFCURVE",
"1015 1161 OFFCURVE",
"1015 841 CURVE SMOOTH",
"1015 602 LINE SMOOTH",
"1015 282 OFFCURVE",
"869 97 OFFCURVE",
"633 97 CURVE SMOOTH"
);
}
);
width = 1266;
}
);
note = Odotaccentmacron;
unicode = 0230;
},
{
glyphname = Odotbelow;
layers = (
{
layerId = "FD6F9899-E567-4A26-8444-C317D4100EC1";
paths = (
{
closed = 1;
nodes = (
"1152 841 LINE SMOOTH",
"1152 1239 OFFCURVE",
"954 1473 OFFCURVE",
"633 1473 CURVE SMOOTH",
"312 1473 OFFCURVE",
"114 1239 OFFCURVE",
"114 841 CURVE SMOOTH",
"114 602 LINE SMOOTH",
"114 204 OFFCURVE",
"312 -30 OFFCURVE",
"633 -30 CURVE SMOOTH",
"954 -30 OFFCURVE",
"1152 204 OFFCURVE",
"1152 602 CURVE SMOOTH"
);
},
{
closed = 1;
nodes = (
"397 97 OFFCURVE",
"251 282 OFFCURVE",
"251 602 CURVE SMOOTH",
"251 841 LINE SMOOTH",
"251 1161 OFFCURVE",
"397 1346 OFFCURVE",
"633 1346 CURVE SMOOTH",
"869 1346 OFFCURVE",
"1015 1161 OFFCURVE",
"1015 841 CURVE SMOOTH",
"1015 602 LINE SMOOTH",
"1015 282 OFFCURVE",
"869 97 OFFCURVE",
"633 97 CURVE SMOOTH"
);
},
{
closed = 1;
nodes = (
"694 -440 OFFCURVE",
"747 -388 OFFCURVE",
"747 -327 CURVE SMOOTH",
"747 -266 OFFCURVE",
"694 -214 OFFCURVE",
"633 -214 CURVE SMOOTH",
"572 -214 OFFCURVE",
"519 -266 OFFCURVE",
"519 -327 CURVE SMOOTH",
"519 -388 OFFCURVE",
"572 -440 OFFCURVE",
"633 -440 CURVE SMOOTH"
);
}
);
width = 1266;
}
);
note = Odotbelow;
unicode = 1ECC;
},
{
glyphname = Ograve;
layers = (
{
layerId = "FD6F9899-E567-4A26-8444-C317D4100EC1";
paths = (
{
closed = 1;
nodes = (
"737 1617 LINE",
"427 1914 LINE",
"253 1914 LINE",
"579 1617 LINE"
);
},
{
closed = 1;
nodes = (
"1152 841 LINE SMOOTH",
"1152 1239 OFFCURVE",
"954 1473 OFFCURVE",
"633 1473 CURVE SMOOTH",
"312 1473 OFFCURVE",
"114 1239 OFFCURVE",
"114 841 CURVE SMOOTH",
"114 602 LINE SMOOTH",
"114 204 OFFCURVE",
"312 -30 OFFCURVE",
"633 -30 CURVE SMOOTH",
"954 -30 OFFCURVE",
"1152 204 OFFCURVE",
"1152 602 CURVE SMOOTH"
);
},
{
closed = 1;
nodes = (
"397 97 OFFCURVE",
"251 282 OFFCURVE",
"251 602 CURVE SMOOTH",
"251 841 LINE SMOOTH",
"251 1161 OFFCURVE",
"397 1346 OFFCURVE",
"633 1346 CURVE SMOOTH",
"869 1346 OFFCURVE",
"1015 1161 OFFCURVE",
"1015 841 CURVE SMOOTH",
"1015 602 LINE SMOOTH",
"1015 282 OFFCURVE",
"869 97 OFFCURVE",
"633 97 CURVE SMOOTH"
);
}
);
width = 1266;
}
);
note = Ograve;
unicode = 00D2;
},
{
glyphname = Ohookabove;
layers = (
{
layerId = "FD6F9899-E567-4A26-8444-C317D4100EC1";
paths = (
{
closed = 1;
nodes = (
"470 1808 LINE",
"495 1822 OFFCURVE",
"537 1831 OFFCURVE",
"580 1831 CURVE SMOOTH",
"641 1831 OFFCURVE",
"681 1801 OFFCURVE",
"681 1757 CURVE SMOOTH",
"681 1715 OFFCURVE",
"640 1672 OFFCURVE",
"581 1652 CURVE",
"640 1576 LINE",
"732 1609 OFFCURVE",
"794 1686 OFFCURVE",
"794 1766 CURVE SMOOTH",
"794 1867 OFFCURVE",
"717 1930 OFFCURVE",
"596 1930 CURVE SMOOTH",
"552 1930 OFFCURVE",
"500 1920 OFFCURVE",
"470 1906 CURVE"
);
},
{
closed = 1;
nodes = (
"1152 841 LINE SMOOTH",
"1152 1239 OFFCURVE",
"954 1473 OFFCURVE",
"633 1473 CURVE SMOOTH",
"312 1473 OFFCURVE",
"114 1239 OFFCURVE",
"114 841 CURVE SMOOTH",
"114 602 LINE SMOOTH",
"114 204 OFFCURVE",
"312 -30 OFFCURVE",
"633 -30 CURVE SMOOTH",
"954 -30 OFFCURVE",
"1152 204 OFFCURVE",
"1152 602 CURVE SMOOTH"
);
},
{
closed = 1;
nodes = (
"397 97 OFFCURVE",
"251 282 OFFCURVE",
"251 602 CURVE SMOOTH",
"251 841 LINE SMOOTH",
"251 1161 OFFCURVE",
"397 1346 OFFCURVE",
"633 1346 CURVE SMOOTH",
"869 1346 OFFCURVE",
"1015 1161 OFFCURVE",
"1015 841 CURVE SMOOTH",
"1015 602 LINE SMOOTH",
"1015 282 OFFCURVE",
"869 97 OFFCURVE",
"633 97 CURVE SMOOTH"
);
}
);
width = 1266;
}
);
note = Ohookabove;
unicode = 1ECE;
},
{
glyphname = Ohorn;
layers = (
{
layerId = "FD6F9899-E567-4A26-8444-C317D4100EC1";
paths = (
{
closed = 1;
nodes = (
"957 -30 OFFCURVE",
"1152 208 OFFCURVE",
"1152 602 CURVE SMOOTH",
"1152 841 LINE SMOOTH",
"1152 1070 OFFCURVE",
"1081 1253 OFFCURVE",
"964 1328 CURVE",
"964 1337 LINE",
"1036 1337 LINE SMOOTH",
"1166 1337 OFFCURVE",
"1238 1398 OFFCURVE",
"1238 1507 CURVE SMOOTH",
"1238 1675 LINE",
"1116 1675 LINE",
"1116 1546 LINE SMOOTH",
"1116 1465 OFFCURVE",
"1082 1439 OFFCURVE",
"976 1439 CURVE SMOOTH",
"838 1439 OFFCURVE",
"754 1473 OFFCURVE",
"633 1473 CURVE SMOOTH",
"309 1473 OFFCURVE",
"114 1235 OFFCURVE",
"114 841 CURVE SMOOTH",
"114 602 LINE SMOOTH",
"114 208 OFFCURVE",
"309 -30 OFFCURVE",
"633 -30 CURVE SMOOTH"
);
},
{
closed = 1;
nodes = (
"394 97 OFFCURVE",
"251 286 OFFCURVE",
"251 602 CURVE SMOOTH",
"251 841 LINE SMOOTH",
"251 1157 OFFCURVE",
"394 1346 OFFCURVE",
"633 1346 CURVE SMOOTH",
"872 1346 OFFCURVE",
"1015 1157 OFFCURVE",
"1015 841 CURVE SMOOTH",
"1015 602 LINE SMOOTH",
"1015 286 OFFCURVE",
"872 97 OFFCURVE",
"633 97 CURVE SMOOTH"
);
}
);
width = 1266;
}
);
note = Ohorn;
unicode = 01A0;
},
{
glyphname = Ohornacute;
layers = (
{
layerId = "FD6F9899-E567-4A26-8444-C317D4100EC1";
paths = (
{
closed = 1;
nodes = (
"450 1617 LINE",
"608 1617 LINE",
"934 1914 LINE",
"760 1914 LINE"
);
},
{
closed = 1;
nodes = (
"957 -30 OFFCURVE",
"1152 208 OFFCURVE",
"1152 602 CURVE SMOOTH",
"1152 841 LINE SMOOTH",
"1152 1070 OFFCURVE",
"1081 1253 OFFCURVE",
"964 1328 CURVE",
"964 1337 LINE",
"1036 1337 LINE SMOOTH",
"1166 1337 OFFCURVE",
"1238 1398 OFFCURVE",
"1238 1507 CURVE SMOOTH",
"1238 1675 LINE",
"1116 1675 LINE",
"1116 1546 LINE SMOOTH",
"1116 1465 OFFCURVE",
"1082 1439 OFFCURVE",
"976 1439 CURVE SMOOTH",
"838 1439 OFFCURVE",
"754 1473 OFFCURVE",
"633 1473 CURVE SMOOTH",
"309 1473 OFFCURVE",
"114 1235 OFFCURVE",
"114 841 CURVE SMOOTH",
"114 602 LINE SMOOTH",
"114 208 OFFCURVE",
"309 -30 OFFCURVE",
"633 -30 CURVE SMOOTH"
);
},
{
closed = 1;
nodes = (
"394 97 OFFCURVE",
"251 286 OFFCURVE",
"251 602 CURVE SMOOTH",
"251 841 LINE SMOOTH",
"251 1157 OFFCURVE",
"394 1346 OFFCURVE",
"633 1346 CURVE SMOOTH",
"872 1346 OFFCURVE",
"1015 1157 OFFCURVE",
"1015 841 CURVE SMOOTH",
"1015 602 LINE SMOOTH",
"1015 286 OFFCURVE",
"872 97 OFFCURVE",
"633 97 CURVE SMOOTH"
);
}
);
width = 1266;
}
);
note = Ohornacute;
unicode = 1EDA;
},
{
glyphname = Ohorndotbelow;
layers = (
{
layerId = "FD6F9899-E567-4A26-8444-C317D4100EC1";
paths = (
{
closed = 1;
nodes = (
"957 -30 OFFCURVE",
"1152 208 OFFCURVE",
"1152 602 CURVE SMOOTH",
"1152 841 LINE SMOOTH",
"1152 1070 OFFCURVE",
"1081 1253 OFFCURVE",
"964 1328 CURVE",
"964 1337 LINE",
"1036 1337 LINE SMOOTH",
"1166 1337 OFFCURVE",
"1238 1398 OFFCURVE",
"1238 1507 CURVE SMOOTH",
"1238 1675 LINE",
"1116 1675 LINE",
"1116 1546 LINE SMOOTH",
"1116 1465 OFFCURVE",
"1082 1439 OFFCURVE",
"976 1439 CURVE SMOOTH",
"838 1439 OFFCURVE",
"754 1473 OFFCURVE",
"633 1473 CURVE SMOOTH",
"309 1473 OFFCURVE",
"114 1235 OFFCURVE",
"114 841 CURVE SMOOTH",
"114 602 LINE SMOOTH",
"114 208 OFFCURVE",
"309 -30 OFFCURVE",
"633 -30 CURVE SMOOTH"
);
},
{
closed = 1;
nodes = (
"394 97 OFFCURVE",
"251 286 OFFCURVE",
"251 602 CURVE SMOOTH",
"251 841 LINE SMOOTH",
"251 1157 OFFCURVE",
"394 1346 OFFCURVE",
"633 1346 CURVE SMOOTH",
"872 1346 OFFCURVE",
"1015 1157 OFFCURVE",
"1015 841 CURVE SMOOTH",
"1015 602 LINE SMOOTH",
"1015 286 OFFCURVE",
"872 97 OFFCURVE",
"633 97 CURVE SMOOTH"
);
},
{
closed = 1;
nodes = (
"694 -440 OFFCURVE",
"747 -388 OFFCURVE",
"747 -327 CURVE SMOOTH",
"747 -266 OFFCURVE",
"694 -214 OFFCURVE",
"633 -214 CURVE SMOOTH",
"572 -214 OFFCURVE",
"519 -266 OFFCURVE",
"519 -327 CURVE SMOOTH",
"519 -388 OFFCURVE",
"572 -440 OFFCURVE",
"633 -440 CURVE SMOOTH"
);
}
);
width = 1266;
}
);
note = Ohorndotbelow;
unicode = 1EE2;
},
{
glyphname = Ohorngrave;
layers = (
{
layerId = "FD6F9899-E567-4A26-8444-C317D4100EC1";
paths = (
{
closed = 1;
nodes = (
"776 1617 LINE",
"466 1914 LINE",
"292 1914 LINE",
"618 1617 LINE"
);
},
{
closed = 1;
nodes = (
"957 -30 OFFCURVE",
"1152 208 OFFCURVE",
"1152 602 CURVE SMOOTH",
"1152 841 LINE SMOOTH",
"1152 1070 OFFCURVE",
"1081 1253 OFFCURVE",
"964 1328 CURVE",
"964 1337 LINE",
"1036 1337 LINE SMOOTH",
"1166 1337 OFFCURVE",
"1238 1398 OFFCURVE",
"1238 1507 CURVE SMOOTH",
"1238 1675 LINE",
"1116 1675 LINE",
"1116 1546 LINE SMOOTH",
"1116 1465 OFFCURVE",
"1082 1439 OFFCURVE",
"976 1439 CURVE SMOOTH",
"838 1439 OFFCURVE",
"754 1473 OFFCURVE",
"633 1473 CURVE SMOOTH",
"309 1473 OFFCURVE",
"114 1235 OFFCURVE",
"114 841 CURVE SMOOTH",
"114 602 LINE SMOOTH",
"114 208 OFFCURVE",
"309 -30 OFFCURVE",
"633 -30 CURVE SMOOTH"
);
},
{
closed = 1;
nodes = (
"394 97 OFFCURVE",
"251 286 OFFCURVE",
"251 602 CURVE SMOOTH",
"251 841 LINE SMOOTH",
"251 1157 OFFCURVE",
"394 1346 OFFCURVE",
"633 1346 CURVE SMOOTH",
"872 1346 OFFCURVE",
"1015 1157 OFFCURVE",
"1015 841 CURVE SMOOTH",
"1015 602 LINE SMOOTH",
"1015 286 OFFCURVE",
"872 97 OFFCURVE",
"633 97 CURVE SMOOTH"
);
}
);
width = 1266;
}
);
note = Ohorngrave;
unicode = 1EDC;
},
{
glyphname = Ohornhookabove;
layers = (
{
layerId = "FD6F9899-E567-4A26-8444-C317D4100EC1";
paths = (
{
closed = 1;
nodes = (
"470 1808 LINE",
"495 1822 OFFCURVE",
"537 1831 OFFCURVE",
"580 1831 CURVE SMOOTH",
"641 1831 OFFCURVE",
"681 1801 OFFCURVE",
"681 1757 CURVE SMOOTH",
"681 1715 OFFCURVE",
"640 1672 OFFCURVE",
"581 1652 CURVE",
"640 1576 LINE",
"732 1609 OFFCURVE",
"794 1686 OFFCURVE",
"794 1766 CURVE SMOOTH",
"794 1867 OFFCURVE",
"717 1930 OFFCURVE",
"596 1930 CURVE SMOOTH",
"552 1930 OFFCURVE",
"500 1920 OFFCURVE",
"470 1906 CURVE"
);
},
{
closed = 1;
nodes = (
"957 -30 OFFCURVE",
"1152 208 OFFCURVE",
"1152 602 CURVE SMOOTH",
"1152 841 LINE SMOOTH",
"1152 1070 OFFCURVE",
"1081 1253 OFFCURVE",
"964 1328 CURVE",
"964 1337 LINE",
"1036 1337 LINE SMOOTH",
"1166 1337 OFFCURVE",
"1238 1398 OFFCURVE",
"1238 1507 CURVE SMOOTH",
"1238 1675 LINE",
"1116 1675 LINE",
"1116 1546 LINE SMOOTH",
"1116 1465 OFFCURVE",
"1082 1439 OFFCURVE",
"976 1439 CURVE SMOOTH",
"838 1439 OFFCURVE",
"754 1473 OFFCURVE",
"633 1473 CURVE SMOOTH",
"309 1473 OFFCURVE",
"114 1235 OFFCURVE",
"114 841 CURVE SMOOTH",
"114 602 LINE SMOOTH",
"114 208 OFFCURVE",
"309 -30 OFFCURVE",
"633 -30 CURVE SMOOTH"
);
},
{
closed = 1;
nodes = (
"394 97 OFFCURVE",
"251 286 OFFCURVE",
"251 602 CURVE SMOOTH",
"251 841 LINE SMOOTH",
"251 1157 OFFCURVE",
"394 1346 OFFCURVE",
"633 1346 CURVE SMOOTH",
"872 1346 OFFCURVE",
"1015 1157 OFFCURVE",
"1015 841 CURVE SMOOTH",
"1015 602 LINE SMOOTH",
"1015 286 OFFCURVE",
"872 97 OFFCURVE",
"633 97 CURVE SMOOTH"
);
}
);
width = 1266;
}
);
note = Ohornhookabove;
unicode = 1EDE;
},
{
glyphname = Ohorntilde;
layers = (
{
layerId = "FD6F9899-E567-4A26-8444-C317D4100EC1";
paths = (
{
closed = 1;
nodes = (
"901 1632 OFFCURVE",
"982 1733 OFFCURVE",
"982 1887 CURVE",
"877 1887 LINE",
"873 1789 OFFCURVE",
"836 1733 OFFCURVE",
"775 1733 CURVE SMOOTH",
"682 1733 OFFCURVE",
"651 1899 OFFCURVE",
"488 1899 CURVE SMOOTH",
"363 1899 OFFCURVE",
"284 1800 OFFCURVE",
"284 1643 CURVE",
"390 1643 LINE",
"393 1744 OFFCURVE",
"428 1797 OFFCURVE",
"491 1797 CURVE SMOOTH",
"598 1797 OFFCURVE",
"623 1632 OFFCURVE",
"778 1632 CURVE SMOOTH"
);
},
{
closed = 1;
nodes = (
"957 -30 OFFCURVE",
"1152 208 OFFCURVE",
"1152 602 CURVE SMOOTH",
"1152 841 LINE SMOOTH",
"1152 1070 OFFCURVE",
"1081 1253 OFFCURVE",
"964 1328 CURVE",
"964 1337 LINE",
"1036 1337 LINE SMOOTH",
"1166 1337 OFFCURVE",
"1238 1398 OFFCURVE",
"1238 1507 CURVE SMOOTH",
"1238 1675 LINE",
"1116 1675 LINE",
"1116 1546 LINE SMOOTH",
"1116 1465 OFFCURVE",
"1082 1439 OFFCURVE",
"976 1439 CURVE SMOOTH",
"838 1439 OFFCURVE",
"754 1473 OFFCURVE",
"633 1473 CURVE SMOOTH",
"309 1473 OFFCURVE",
"114 1235 OFFCURVE",
"114 841 CURVE SMOOTH",
"114 602 LINE SMOOTH",
"114 208 OFFCURVE",
"309 -30 OFFCURVE",
"633 -30 CURVE SMOOTH"
);
},
{
closed = 1;
nodes = (
"394 97 OFFCURVE",
"251 286 OFFCURVE",
"251 602 CURVE SMOOTH",
"251 841 LINE SMOOTH",
"251 1157 OFFCURVE",
"394 1346 OFFCURVE",
"633 1346 CURVE SMOOTH",
"872 1346 OFFCURVE",
"1015 1157 OFFCURVE",
"1015 841 CURVE SMOOTH",
"1015 602 LINE SMOOTH",
"1015 286 OFFCURVE",
"872 97 OFFCURVE",
"633 97 CURVE SMOOTH"
);
}
);
width = 1266;
}
);
note = Ohorntilde;
unicode = 1EE0;
},
{
glyphname = Ohungarumlaut;
layers = (
{
layerId = "FD6F9899-E567-4A26-8444-C317D4100EC1";
paths = (
{
closed = 1;
nodes = (
"663 1617 LINE",
"821 1617 LINE",
"1147 1914 LINE",
"973 1914 LINE"
);
},
{
closed = 1;
nodes = (
"299 1617 LINE",
"457 1617 LINE",
"783 1914 LINE",
"609 1914 LINE"
);
},
{
closed = 1;
nodes = (
"1152 841 LINE SMOOTH",
"1152 1239 OFFCURVE",
"954 1473 OFFCURVE",
"633 1473 CURVE SMOOTH",
"312 1473 OFFCURVE",
"114 1239 OFFCURVE",
"114 841 CURVE SMOOTH",
"114 602 LINE SMOOTH",
"114 204 OFFCURVE",
"312 -30 OFFCURVE",
"633 -30 CURVE SMOOTH",
"954 -30 OFFCURVE",
"1152 204 OFFCURVE",
"1152 602 CURVE SMOOTH"
);
},
{
closed = 1;
nodes = (
"397 97 OFFCURVE",
"251 282 OFFCURVE",
"251 602 CURVE SMOOTH",
"251 841 LINE SMOOTH",
"251 1161 OFFCURVE",
"397 1346 OFFCURVE",
"633 1346 CURVE SMOOTH",
"869 1346 OFFCURVE",
"1015 1161 OFFCURVE",
"1015 841 CURVE SMOOTH",
"1015 602 LINE SMOOTH",
"1015 282 OFFCURVE",
"869 97 OFFCURVE",
"633 97 CURVE SMOOTH"
);
}
);
width = 1266;
}
);
note = Ohungarumlaut;
unicode = 0150;
},
{
glyphname = Oinvertedbreve;
layers = (
{
layerId = "FD6F9899-E567-4A26-8444-C317D4100EC1";
paths = (
{
closed = 1;
nodes = (
"421 1617 LINE",
"421 1732 OFFCURVE",
"510 1816 OFFCURVE",
"633 1816 CURVE SMOOTH",
"756 1816 OFFCURVE",
"845 1732 OFFCURVE",
"845 1617 CURVE",
"963 1617 LINE",
"963 1792 OFFCURVE",
"827 1914 OFFCURVE",
"633 1914 CURVE SMOOTH",
"439 1914 OFFCURVE",
"303 1792 OFFCURVE",
"303 1617 CURVE"
);
},
{
closed = 1;
nodes = (
"1152 841 LINE SMOOTH",
"1152 1239 OFFCURVE",
"954 1473 OFFCURVE",
"633 1473 CURVE SMOOTH",
"312 1473 OFFCURVE",
"114 1239 OFFCURVE",
"114 841 CURVE SMOOTH",
"114 602 LINE SMOOTH",
"114 204 OFFCURVE",
"312 -30 OFFCURVE",
"633 -30 CURVE SMOOTH",
"954 -30 OFFCURVE",
"1152 204 OFFCURVE",
"1152 602 CURVE SMOOTH"
);
},
{
closed = 1;
nodes = (
"397 97 OFFCURVE",
"251 282 OFFCURVE",
"251 602 CURVE SMOOTH",
"251 841 LINE SMOOTH",
"251 1161 OFFCURVE",
"397 1346 OFFCURVE",
"633 1346 CURVE SMOOTH",
"869 1346 OFFCURVE",
"1015 1161 OFFCURVE",
"1015 841 CURVE SMOOTH",
"1015 602 LINE SMOOTH",
"1015 282 OFFCURVE",
"869 97 OFFCURVE",
"633 97 CURVE SMOOTH"
);
}
);
width = 1266;
}
);
note = Oinvertedbreve;
unicode = 020E;
},
{
glyphname = Omacron;
layers = (
{
layerId = "FD6F9899-E567-4A26-8444-C317D4100EC1";
paths = (
{
closed = 1;
nodes = (
"952 1714 LINE",
"952 1832 LINE",
"314 1832 LINE",
"314 1714 LINE"
);
},
{
closed = 1;
nodes = (
"1152 841 LINE SMOOTH",
"1152 1239 OFFCURVE",
"954 1473 OFFCURVE",
"633 1473 CURVE SMOOTH",
"312 1473 OFFCURVE",
"114 1239 OFFCURVE",
"114 841 CURVE SMOOTH",
"114 602 LINE SMOOTH",
"114 204 OFFCURVE",
"312 -30 OFFCURVE",
"633 -30 CURVE SMOOTH",
"954 -30 OFFCURVE",
"1152 204 OFFCURVE",
"1152 602 CURVE SMOOTH"
);
},
{
closed = 1;
nodes = (
"397 97 OFFCURVE",
"251 282 OFFCURVE",
"251 602 CURVE SMOOTH",
"251 841 LINE SMOOTH",
"251 1161 OFFCURVE",
"397 1346 OFFCURVE",
"633 1346 CURVE SMOOTH",
"869 1346 OFFCURVE",
"1015 1161 OFFCURVE",
"1015 841 CURVE SMOOTH",
"1015 602 LINE SMOOTH",
"1015 282 OFFCURVE",
"869 97 OFFCURVE",
"633 97 CURVE SMOOTH"
);
}
);
width = 1266;
}
);
note = Omacron;
unicode = 014C;
},
{
glyphname = Omacronacute;
layers = (
{
layerId = "FD6F9899-E567-4A26-8444-C317D4100EC1";
paths = (
{
closed = 1;
nodes = (
"506 1828 LINE",
"655 1828 LINE",
"898 2045 LINE",
"730 2045 LINE"
);
},
{
closed = 1;
nodes = (
"313 1616 LINE",
"951 1616 LINE",
"951 1714 LINE",
"313 1714 LINE"
);
},
{
closed = 1;
nodes = (
"1152 841 LINE SMOOTH",
"1152 1239 OFFCURVE",
"954 1473 OFFCURVE",
"633 1473 CURVE SMOOTH",
"312 1473 OFFCURVE",
"114 1239 OFFCURVE",
"114 841 CURVE SMOOTH",
"114 602 LINE SMOOTH",
"114 204 OFFCURVE",
"312 -30 OFFCURVE",
"633 -30 CURVE SMOOTH",
"954 -30 OFFCURVE",
"1152 204 OFFCURVE",
"1152 602 CURVE SMOOTH"
);
},
{
closed = 1;
nodes = (
"397 97 OFFCURVE",
"251 282 OFFCURVE",
"251 602 CURVE SMOOTH",
"251 841 LINE SMOOTH",
"251 1161 OFFCURVE",
"397 1346 OFFCURVE",
"633 1346 CURVE SMOOTH",
"869 1346 OFFCURVE",
"1015 1161 OFFCURVE",
"1015 841 CURVE SMOOTH",
"1015 602 LINE SMOOTH",
"1015 282 OFFCURVE",
"869 97 OFFCURVE",
"633 97 CURVE SMOOTH"
);
}
);
width = 1266;
}
);
note = Omacronacute;
unicode = 1E52;
},
{
glyphname = Omacrongrave;
layers = (
{
layerId = "FD6F9899-E567-4A26-8444-C317D4100EC1";
paths = (
{
closed = 1;
nodes = (
"758 1829 LINE",
"534 2046 LINE",
"366 2046 LINE",
"609 1829 LINE"
);
},
{
closed = 1;
nodes = (
"951 1617 LINE",
"951 1715 LINE",
"313 1715 LINE",
"313 1617 LINE"
);
},
{
closed = 1;
nodes = (
"1152 841 LINE SMOOTH",
"1152 1239 OFFCURVE",
"954 1473 OFFCURVE",
"633 1473 CURVE SMOOTH",
"312 1473 OFFCURVE",
"114 1239 OFFCURVE",
"114 841 CURVE SMOOTH",
"114 602 LINE SMOOTH",
"114 204 OFFCURVE",
"312 -30 OFFCURVE",
"633 -30 CURVE SMOOTH",
"954 -30 OFFCURVE",
"1152 204 OFFCURVE",
"1152 602 CURVE SMOOTH"
);
},
{
closed = 1;
nodes = (
"397 97 OFFCURVE",
"251 282 OFFCURVE",
"251 602 CURVE SMOOTH",
"251 841 LINE SMOOTH",
"251 1161 OFFCURVE",
"397 1346 OFFCURVE",
"633 1346 CURVE SMOOTH",
"869 1346 OFFCURVE",
"1015 1161 OFFCURVE",
"1015 841 CURVE SMOOTH",
"1015 602 LINE SMOOTH",
"1015 282 OFFCURVE",
"869 97 OFFCURVE",
"633 97 CURVE SMOOTH"
);
}
);
width = 1266;
}
);
note = Omacrongrave;
unicode = 1E50;
},
{
glyphname = Oogonek;
layers = (
{
layerId = "FD6F9899-E567-4A26-8444-C317D4100EC1";
paths = (
{
closed = 1;
nodes = (
"867 -416 OFFCURVE",
"900 -411 OFFCURVE",
"925 -402 CURVE",
"925 -298 LINE",
"908 -303 OFFCURVE",
"886 -305 OFFCURVE",
"858 -305 CURVE SMOOTH",
"786 -305 OFFCURVE",
"735 -261 OFFCURVE",
"735 -197 CURVE SMOOTH",
"735 -117 OFFCURVE",
"773 -68 OFFCURVE",
"925 50 CURVE SMOOTH",
"1087 175 OFFCURVE",
"1152 333 OFFCURVE",
"1152 602 CURVE SMOOTH",
"1152 841 LINE SMOOTH",
"1152 1235 OFFCURVE",
"957 1473 OFFCURVE",
"633 1473 CURVE SMOOTH",
"309 1473 OFFCURVE",
"114 1235 OFFCURVE",
"114 841 CURVE SMOOTH",
"114 602 LINE SMOOTH",
"114 216 OFFCURVE",
"305 -26 OFFCURVE",
"609 -26 CURVE SMOOTH",
"661 -26 OFFCURVE",
"712 -15 OFFCURVE",
"744 3 CURVE",
"744 -10 LINE",
"648 -72 OFFCURVE",
"606 -137 OFFCURVE",
"606 -224 CURVE SMOOTH",
"606 -336 OFFCURVE",
"700 -416 OFFCURVE",
"832 -416 CURVE SMOOTH"
);
},
{
closed = 1;
nodes = (
"394 97 OFFCURVE",
"251 286 OFFCURVE",
"251 602 CURVE SMOOTH",
"251 841 LINE SMOOTH",
"251 1157 OFFCURVE",
"394 1346 OFFCURVE",
"633 1346 CURVE SMOOTH",
"872 1346 OFFCURVE",
"1015 1157 OFFCURVE",
"1015 841 CURVE SMOOTH",
"1015 602 LINE SMOOTH",
"1015 286 OFFCURVE",
"872 97 OFFCURVE",
"633 97 CURVE SMOOTH"
);
}
);
width = 1266;
}
);
note = Oogonek;
unicode = 01EA;
},
{
glyphname = Oogonekmacron;
layers = (
{
layerId = "FD6F9899-E567-4A26-8444-C317D4100EC1";
paths = (
{
closed = 1;
nodes = (
"952 1714 LINE",
"952 1832 LINE",
"314 1832 LINE",
"314 1714 LINE"
);
},
{
closed = 1;
nodes = (
"867 -416 OFFCURVE",
"900 -411 OFFCURVE",
"925 -402 CURVE",
"925 -298 LINE",
"908 -303 OFFCURVE",
"886 -305 OFFCURVE",
"858 -305 CURVE SMOOTH",
"786 -305 OFFCURVE",
"735 -261 OFFCURVE",
"735 -197 CURVE SMOOTH",
"735 -117 OFFCURVE",
"773 -68 OFFCURVE",
"925 50 CURVE SMOOTH",
"1087 175 OFFCURVE",
"1152 333 OFFCURVE",
"1152 602 CURVE SMOOTH",
"1152 841 LINE SMOOTH",
"1152 1235 OFFCURVE",
"957 1473 OFFCURVE",
"633 1473 CURVE SMOOTH",
"309 1473 OFFCURVE",
"114 1235 OFFCURVE",
"114 841 CURVE SMOOTH",
"114 602 LINE SMOOTH",
"114 216 OFFCURVE",
"305 -26 OFFCURVE",
"609 -26 CURVE SMOOTH",
"661 -26 OFFCURVE",
"712 -15 OFFCURVE",
"744 3 CURVE",
"744 -10 LINE",
"648 -72 OFFCURVE",
"606 -137 OFFCURVE",
"606 -224 CURVE SMOOTH",
"606 -336 OFFCURVE",
"700 -416 OFFCURVE",
"832 -416 CURVE SMOOTH"
);
},
{
closed = 1;
nodes = (
"394 97 OFFCURVE",
"251 286 OFFCURVE",
"251 602 CURVE SMOOTH",
"251 841 LINE SMOOTH",
"251 1157 OFFCURVE",
"394 1346 OFFCURVE",
"633 1346 CURVE SMOOTH",
"872 1346 OFFCURVE",
"1015 1157 OFFCURVE",
"1015 841 CURVE SMOOTH",
"1015 602 LINE SMOOTH",
"1015 286 OFFCURVE",
"872 97 OFFCURVE",
"633 97 CURVE SMOOTH"
);
}
);
width = 1266;
}
);
note = Oogonekmacron;
unicode = 01EC;
},
{
glyphname = Oslash;
layers = (
{
layerId = "FD6F9899-E567-4A26-8444-C317D4100EC1";
paths = (
{
closed = 1;
nodes = (
"101 0 LINE",
"226 0 LINE",
"289 98 LINE",
"376 15 OFFCURVE",
"493 -30 OFFCURVE",
"633 -30 CURVE SMOOTH",
"954 -30 OFFCURVE",
"1152 204 OFFCURVE",
"1152 602 CURVE SMOOTH",
"1152 841 LINE SMOOTH",
"1152 1015 OFFCURVE",
"1114 1157 OFFCURVE",
"1045 1263 CURVE",
"1162 1443 LINE",
"1037 1443 LINE",
"975 1347 LINE",
"888 1429 OFFCURVE",
"772 1473 OFFCURVE",
"633 1473 CURVE SMOOTH",
"312 1473 OFFCURVE",
"114 1239 OFFCURVE",
"114 841 CURVE SMOOTH",
"114 602 LINE SMOOTH",
"114 430 OFFCURVE",
"151 288 OFFCURVE",
"219 183 CURVE"
);
},
{
closed = 1;
nodes = (
"251 841 LINE SMOOTH",
"251 1161 OFFCURVE",
"397 1346 OFFCURVE",
"633 1346 CURVE SMOOTH",
"743 1346 OFFCURVE",
"834 1306 OFFCURVE",
"899 1230 CURVE",
"304 313 LINE",
"270 391 OFFCURVE",
"251 488 OFFCURVE",
"251 602 CURVE SMOOTH"
);
},
{
closed = 1;
nodes = (
"522 97 OFFCURVE",
"431 138 OFFCURVE",
"365 215 CURVE",
"961 1132 LINE",
"996 1054 OFFCURVE",
"1015 957 OFFCURVE",
"1015 841 CURVE SMOOTH",
"1015 602 LINE SMOOTH",
"1015 282 OFFCURVE",
"869 97 OFFCURVE",
"633 97 CURVE SMOOTH"
);
}
);
width = 1266;
}
);
note = Oslash;
unicode = 00D8;
},
{
glyphname = Oslashacute;
layers = (
{
layerId = "FD6F9899-E567-4A26-8444-C317D4100EC1";
paths = (
{
closed = 1;
nodes = (
"551 1617 LINE",
"709 1617 LINE",
"1035 1914 LINE",
"861 1914 LINE"
);
},
{
closed = 1;
nodes = (
"101 0 LINE",
"226 0 LINE",
"289 98 LINE",
"376 15 OFFCURVE",
"493 -30 OFFCURVE",
"633 -30 CURVE SMOOTH",
"954 -30 OFFCURVE",
"1152 204 OFFCURVE",
"1152 602 CURVE SMOOTH",
"1152 841 LINE SMOOTH",
"1152 1015 OFFCURVE",
"1114 1157 OFFCURVE",
"1045 1263 CURVE",
"1162 1443 LINE",
"1037 1443 LINE",
"975 1347 LINE",
"888 1429 OFFCURVE",
"772 1473 OFFCURVE",
"633 1473 CURVE SMOOTH",
"312 1473 OFFCURVE",
"114 1239 OFFCURVE",
"114 841 CURVE SMOOTH",
"114 602 LINE SMOOTH",
"114 430 OFFCURVE",
"151 288 OFFCURVE",
"219 183 CURVE"
);
},
{
closed = 1;
nodes = (
"251 841 LINE SMOOTH",
"251 1161 OFFCURVE",
"397 1346 OFFCURVE",
"633 1346 CURVE SMOOTH",
"743 1346 OFFCURVE",
"834 1306 OFFCURVE",
"899 1230 CURVE",
"304 313 LINE",
"270 391 OFFCURVE",
"251 488 OFFCURVE",
"251 602 CURVE SMOOTH"
);
},
{
closed = 1;
nodes = (
"522 97 OFFCURVE",
"431 138 OFFCURVE",
"365 215 CURVE",
"961 1132 LINE",
"996 1054 OFFCURVE",
"1015 957 OFFCURVE",
"1015 841 CURVE SMOOTH",
"1015 602 LINE SMOOTH",
"1015 282 OFFCURVE",
"869 97 OFFCURVE",
"633 97 CURVE SMOOTH"
);
}
);
width = 1266;
}
);
note = Oslashacute;
unicode = 01FE;
},
{
glyphname = Otilde;
layers = (
{
layerId = "FD6F9899-E567-4A26-8444-C317D4100EC1";
paths = (
{
closed = 1;
nodes = (
"901 1632 OFFCURVE",
"982 1733 OFFCURVE",
"982 1887 CURVE",
"877 1887 LINE",
"873 1789 OFFCURVE",
"836 1733 OFFCURVE",
"775 1733 CURVE SMOOTH",
"682 1733 OFFCURVE",
"651 1899 OFFCURVE",
"488 1899 CURVE SMOOTH",
"363 1899 OFFCURVE",
"284 1800 OFFCURVE",
"284 1643 CURVE",
"390 1643 LINE",
"393 1744 OFFCURVE",
"428 1797 OFFCURVE",
"491 1797 CURVE SMOOTH",
"598 1797 OFFCURVE",
"623 1632 OFFCURVE",
"778 1632 CURVE SMOOTH"
);
},
{
closed = 1;
nodes = (
"1152 841 LINE SMOOTH",
"1152 1239 OFFCURVE",
"954 1473 OFFCURVE",
"633 1473 CURVE SMOOTH",
"312 1473 OFFCURVE",
"114 1239 OFFCURVE",
"114 841 CURVE SMOOTH",
"114 602 LINE SMOOTH",
"114 204 OFFCURVE",
"312 -30 OFFCURVE",
"633 -30 CURVE SMOOTH",
"954 -30 OFFCURVE",
"1152 204 OFFCURVE",
"1152 602 CURVE SMOOTH"
);
},
{
closed = 1;
nodes = (
"397 97 OFFCURVE",
"251 282 OFFCURVE",
"251 602 CURVE SMOOTH",
"251 841 LINE SMOOTH",
"251 1161 OFFCURVE",
"397 1346 OFFCURVE",
"633 1346 CURVE SMOOTH",
"869 1346 OFFCURVE",
"1015 1161 OFFCURVE",
"1015 841 CURVE SMOOTH",
"1015 602 LINE SMOOTH",
"1015 282 OFFCURVE",
"869 97 OFFCURVE",
"633 97 CURVE SMOOTH"
);
}
);
width = 1266;
}
);
note = Otilde;
unicode = 00D5;
},
{
glyphname = Otildeacute;
layers = (
{
layerId = "FD6F9899-E567-4A26-8444-C317D4100EC1";
paths = (
{
closed = 1;
nodes = (
"574 1874 LINE",
"700 1874 LINE",
"865 2083 LINE",
"718 2083 LINE"
);
},
{
closed = 1;
nodes = (
"889 1553 OFFCURVE",
"972 1645 OFFCURVE",
"972 1776 CURVE",
"867 1776 LINE",
"863 1698 OFFCURVE",
"828 1654 OFFCURVE",
"771 1654 CURVE SMOOTH",
"664 1654 OFFCURVE",
"665 1790 OFFCURVE",
"496 1790 CURVE SMOOTH",
"375 1790 OFFCURVE",
"294 1701 OFFCURVE",
"294 1568 CURVE",
"400 1568 LINE",
"403 1648 OFFCURVE",
"436 1690 OFFCURVE",
"495 1690 CURVE SMOOTH",
"602 1690 OFFCURVE",
"601 1553 OFFCURVE",
"770 1553 CURVE SMOOTH"
);
},
{
closed = 1;
nodes = (
"1152 841 LINE SMOOTH",
"1152 1239 OFFCURVE",
"954 1473 OFFCURVE",
"633 1473 CURVE SMOOTH",
"312 1473 OFFCURVE",
"114 1239 OFFCURVE",
"114 841 CURVE SMOOTH",
"114 602 LINE SMOOTH",
"114 204 OFFCURVE",
"312 -30 OFFCURVE",
"633 -30 CURVE SMOOTH",
"954 -30 OFFCURVE",
"1152 204 OFFCURVE",
"1152 602 CURVE SMOOTH"
);
},
{
closed = 1;
nodes = (
"397 97 OFFCURVE",
"251 282 OFFCURVE",
"251 602 CURVE SMOOTH",
"251 841 LINE SMOOTH",
"251 1161 OFFCURVE",
"397 1346 OFFCURVE",
"633 1346 CURVE SMOOTH",
"869 1346 OFFCURVE",
"1015 1161 OFFCURVE",
"1015 841 CURVE SMOOTH",
"1015 602 LINE SMOOTH",
"1015 282 OFFCURVE",
"869 97 OFFCURVE",
"633 97 CURVE SMOOTH"
);
}
);
width = 1266;
}
);
note = Otildeacute;
unicode = 1E4C;
},
{
glyphname = Otildedieresis;
layers = (
{
layerId = "FD6F9899-E567-4A26-8444-C317D4100EC1";
paths = (
{
closed = 1;
nodes = (
"503 1875 OFFCURVE",
"544 1916 OFFCURVE",
"544 1968 CURVE SMOOTH",
"544 2020 OFFCURVE",
"503 2061 OFFCURVE",
"451 2061 CURVE SMOOTH",
"399 2061 OFFCURVE",
"358 2020 OFFCURVE",
"358 1968 CURVE SMOOTH",
"358 1916 OFFCURVE",
"399 1875 OFFCURVE",
"451 1875 CURVE SMOOTH"
);
},
{
closed = 1;
nodes = (
"867 1875 OFFCURVE",
"908 1916 OFFCURVE",
"908 1968 CURVE SMOOTH",
"908 2020 OFFCURVE",
"867 2061 OFFCURVE",
"815 2061 CURVE SMOOTH",
"763 2061 OFFCURVE",
"722 2020 OFFCURVE",
"722 1968 CURVE SMOOTH",
"722 1916 OFFCURVE",
"763 1875 OFFCURVE",
"815 1875 CURVE SMOOTH"
);
},
{
closed = 1;
nodes = (
"889 1553 OFFCURVE",
"972 1645 OFFCURVE",
"972 1776 CURVE",
"867 1776 LINE",
"863 1698 OFFCURVE",
"828 1654 OFFCURVE",
"771 1654 CURVE SMOOTH",
"664 1654 OFFCURVE",
"665 1790 OFFCURVE",
"496 1790 CURVE SMOOTH",
"375 1790 OFFCURVE",
"294 1701 OFFCURVE",
"294 1568 CURVE",
"400 1568 LINE",
"403 1648 OFFCURVE",
"436 1690 OFFCURVE",
"495 1690 CURVE SMOOTH",
"602 1690 OFFCURVE",
"601 1553 OFFCURVE",
"770 1553 CURVE SMOOTH"
);
},
{
closed = 1;
nodes = (
"1152 841 LINE SMOOTH",
"1152 1239 OFFCURVE",
"954 1473 OFFCURVE",
"633 1473 CURVE SMOOTH",
"312 1473 OFFCURVE",
"114 1239 OFFCURVE",
"114 841 CURVE SMOOTH",
"114 602 LINE SMOOTH",
"114 204 OFFCURVE",
"312 -30 OFFCURVE",
"633 -30 CURVE SMOOTH",
"954 -30 OFFCURVE",
"1152 204 OFFCURVE",
"1152 602 CURVE SMOOTH"
);
},
{
closed = 1;
nodes = (
"397 97 OFFCURVE",
"251 282 OFFCURVE",
"251 602 CURVE SMOOTH",
"251 841 LINE SMOOTH",
"251 1161 OFFCURVE",
"397 1346 OFFCURVE",
"633 1346 CURVE SMOOTH",
"869 1346 OFFCURVE",
"1015 1161 OFFCURVE",
"1015 841 CURVE SMOOTH",
"1015 602 LINE SMOOTH",
"1015 282 OFFCURVE",
"869 97 OFFCURVE",
"633 97 CURVE SMOOTH"
);
}
);
width = 1266;
}
);
note = Otildedieresis;
unicode = 1E4E;
},
{
glyphname = Otildemacron;
layers = (
{
layerId = "FD6F9899-E567-4A26-8444-C317D4100EC1";
paths = (
{
closed = 1;
nodes = (
"952 1914 LINE",
"952 2012 LINE",
"314 2012 LINE",
"314 1914 LINE"
);
},
{
closed = 1;
nodes = (
"889 1553 OFFCURVE",
"972 1645 OFFCURVE",
"972 1776 CURVE",
"867 1776 LINE",
"863 1698 OFFCURVE",
"828 1654 OFFCURVE",
"771 1654 CURVE SMOOTH",
"664 1654 OFFCURVE",
"665 1790 OFFCURVE",
"496 1790 CURVE SMOOTH",
"375 1790 OFFCURVE",
"294 1701 OFFCURVE",
"294 1568 CURVE",
"400 1568 LINE",
"403 1648 OFFCURVE",
"436 1690 OFFCURVE",
"495 1690 CURVE SMOOTH",
"602 1690 OFFCURVE",
"601 1553 OFFCURVE",
"770 1553 CURVE SMOOTH"
);
},
{
closed = 1;
nodes = (
"1152 841 LINE SMOOTH",
"1152 1239 OFFCURVE",
"954 1473 OFFCURVE",
"633 1473 CURVE SMOOTH",
"312 1473 OFFCURVE",
"114 1239 OFFCURVE",
"114 841 CURVE SMOOTH",
"114 602 LINE SMOOTH",
"114 204 OFFCURVE",
"312 -30 OFFCURVE",
"633 -30 CURVE SMOOTH",
"954 -30 OFFCURVE",
"1152 204 OFFCURVE",
"1152 602 CURVE SMOOTH"
);
},
{
closed = 1;
nodes = (
"397 97 OFFCURVE",
"251 282 OFFCURVE",
"251 602 CURVE SMOOTH",
"251 841 LINE SMOOTH",
"251 1161 OFFCURVE",
"397 1346 OFFCURVE",
"633 1346 CURVE SMOOTH",
"869 1346 OFFCURVE",
"1015 1161 OFFCURVE",
"1015 841 CURVE SMOOTH",
"1015 602 LINE SMOOTH",
"1015 282 OFFCURVE",
"869 97 OFFCURVE",
"633 97 CURVE SMOOTH"
);
}
);
width = 1266;
}
);
note = Otildemacron;
unicode = 022C;
},
{
glyphname = OE;
layers = (
{
layerId = "FD6F9899-E567-4A26-8444-C317D4100EC1";
paths = (
{
closed = 1;
nodes = (
"688 205 LINE",
"688 0 LINE",
"1255 0 LINE",
"1255 115 LINE",
"804 115 LINE",
"804 681 LINE",
"1221 681 LINE",
"1221 800 LINE",
"804 800 LINE",
"804 1327 LINE",
"1255 1327 LINE",
"1255 1443 LINE",
"688 1443 LINE",
"688 1238 LINE",
"673 1238 LINE",
"632 1397 OFFCURVE",
"535 1477 OFFCURVE",
"384 1477 CURVE SMOOTH",
"136 1477 OFFCURVE",
"15 1266 OFFCURVE",
"15 833 CURVE SMOOTH",
"15 611 LINE SMOOTH",
"15 178 OFFCURVE",
"136 -33 OFFCURVE",
"384 -33 CURVE SMOOTH",
"536 -33 OFFCURVE",
"634 48 OFFCURVE",
"673 205 CURVE"
);
},
{
closed = 1;
nodes = (
"155 832 LINE SMOOTH",
"155 1212 OFFCURVE",
"229 1371 OFFCURVE",
"407 1371 CURVE SMOOTH",
"581 1371 OFFCURVE",
"663 1188 OFFCURVE",
"663 801 CURVE SMOOTH",
"663 643 LINE SMOOTH",
"663 256 OFFCURVE",
"581 73 OFFCURVE",
"407 73 CURVE SMOOTH",
"229 73 OFFCURVE",
"155 232 OFFCURVE",
"155 612 CURVE SMOOTH"
);
}
);
width = 1266;
}
);
note = OE;
unicode = 0152;
},
{
glyphname = P;
layers = (
{
layerId = "FD6F9899-E567-4A26-8444-C317D4100EC1";
paths = (
{
closed = 1;
nodes = (
"216 1443 LINE",
"216 0 LINE",
"353 0 LINE",
"353 545 LINE",
"678 545 LINE SMOOTH",
"949 545 OFFCURVE",
"1130 725 OFFCURVE",
"1130 994 CURVE SMOOTH",
"1130 1263 OFFCURVE",
"949 1443 OFFCURVE",
"678 1443 CURVE SMOOTH"
);
},
{
closed = 1;
nodes = (
"353 1321 LINE",
"645 1321 LINE SMOOTH",
"864 1321 OFFCURVE",
"991 1201 OFFCURVE",
"991 994 CURVE SMOOTH",
"991 787 OFFCURVE",
"864 667 OFFCURVE",
"645 667 CURVE SMOOTH",
"353 667 LINE"
);
}
);
width = 1266;
}
);
note = P;
unicode = 0050;
},
{
glyphname = Pacute;
layers = (
{
layerId = "FD6F9899-E567-4A26-8444-C317D4100EC1";
paths = (
{
closed = 1;
nodes = (
"478 1617 LINE",
"636 1617 LINE",
"962 1914 LINE",
"788 1914 LINE"
);
},
{
closed = 1;
nodes = (
"216 1443 LINE",
"216 0 LINE",
"353 0 LINE",
"353 545 LINE",
"678 545 LINE SMOOTH",
"949 545 OFFCURVE",
"1130 725 OFFCURVE",
"1130 994 CURVE SMOOTH",
"1130 1263 OFFCURVE",
"949 1443 OFFCURVE",
"678 1443 CURVE SMOOTH"
);
},
{
closed = 1;
nodes = (
"353 1321 LINE",
"645 1321 LINE SMOOTH",
"864 1321 OFFCURVE",
"991 1201 OFFCURVE",
"991 994 CURVE SMOOTH",
"991 787 OFFCURVE",
"864 667 OFFCURVE",
"645 667 CURVE SMOOTH",
"353 667 LINE"
);
}
);
width = 1266;
}
);
note = Pacute;
unicode = 1E54;
},
{
glyphname = Pdotaccent;
layers = (
{
layerId = "FD6F9899-E567-4A26-8444-C317D4100EC1";
paths = (
{
closed = 1;
nodes = (
"646 1660 OFFCURVE",
"699 1712 OFFCURVE",
"699 1773 CURVE SMOOTH",
"699 1834 OFFCURVE",
"646 1886 OFFCURVE",
"585 1886 CURVE SMOOTH",
"524 1886 OFFCURVE",
"471 1834 OFFCURVE",
"471 1773 CURVE SMOOTH",
"471 1712 OFFCURVE",
"524 1660 OFFCURVE",
"585 1660 CURVE SMOOTH"
);
},
{
closed = 1;
nodes = (
"216 1443 LINE",
"216 0 LINE",
"353 0 LINE",
"353 545 LINE",
"678 545 LINE SMOOTH",
"949 545 OFFCURVE",
"1130 725 OFFCURVE",
"1130 994 CURVE SMOOTH",
"1130 1263 OFFCURVE",
"949 1443 OFFCURVE",
"678 1443 CURVE SMOOTH"
);
},
{
closed = 1;
nodes = (
"353 1321 LINE",
"645 1321 LINE SMOOTH",
"864 1321 OFFCURVE",
"991 1201 OFFCURVE",
"991 994 CURVE SMOOTH",
"991 787 OFFCURVE",
"864 667 OFFCURVE",
"645 667 CURVE SMOOTH",
"353 667 LINE"
);
}
);
width = 1266;
}
);
note = Pdotaccent;
unicode = 1E56;
},
{
glyphname = Thorn;
layers = (
{
layerId = "FD6F9899-E567-4A26-8444-C317D4100EC1";
paths = (
{
closed = 1;
nodes = (
"195 1443 LINE",
"195 0 LINE",
"331 0 LINE",
"331 369 LINE",
"717 369 LINE SMOOTH",
"956 369 OFFCURVE",
"1109 533 OFFCURVE",
"1109 768 CURVE SMOOTH",
"1109 1001 OFFCURVE",
"957 1163 OFFCURVE",
"715 1163 CURVE SMOOTH",
"330 1163 LINE",
"330 1443 LINE"
);
},
{
closed = 1;
nodes = (
"331 1040 LINE",
"675 1040 LINE SMOOTH",
"874 1040 OFFCURVE",
"968 949 OFFCURVE",
"968 768 CURVE SMOOTH",
"968 586 OFFCURVE",
"874 493 OFFCURVE",
"675 493 CURVE SMOOTH",
"331 493 LINE"
);
}
);
width = 1266;
}
);
note = Thorn;
unicode = 00DE;
},
{
glyphname = Q;
layers = (
{
layerId = "FD6F9899-E567-4A26-8444-C317D4100EC1";
paths = (
{
closed = 1;
nodes = (
"1005 -169 LINE",
"1162 -169 LINE",
"982 103 LINE",
"1091 211 OFFCURVE",
"1152 381 OFFCURVE",
"1152 602 CURVE SMOOTH",
"1152 841 LINE SMOOTH",
"1152 1239 OFFCURVE",
"954 1473 OFFCURVE",
"633 1473 CURVE SMOOTH",
"312 1473 OFFCURVE",
"114 1239 OFFCURVE",
"114 841 CURVE SMOOTH",
"114 602 LINE SMOOTH",
"114 204 OFFCURVE",
"312 -30 OFFCURVE",
"633 -30 CURVE SMOOTH",
"725 -30 OFFCURVE",
"806 -11 OFFCURVE",
"876 26 CURVE"
);
},
{
closed = 1;
nodes = (
"397 97 OFFCURVE",
"251 282 OFFCURVE",
"251 602 CURVE SMOOTH",
"251 841 LINE SMOOTH",
"251 1161 OFFCURVE",
"397 1346 OFFCURVE",
"633 1346 CURVE SMOOTH",
"869 1346 OFFCURVE",
"1015 1161 OFFCURVE",
"1015 841 CURVE SMOOTH",
"1015 602 LINE SMOOTH",
"1015 436 OFFCURVE",
"976 306 OFFCURVE",
"905 220 CURVE",
"746 461 LINE",
"589 461 LINE",
"803 136 LINE",
"754 110 OFFCURVE",
"697 97 OFFCURVE",
"633 97 CURVE SMOOTH"
);
}
);
width = 1266;
}
);
note = Q;
unicode = 0051;
},
{
glyphname = R;
layers = (
{
layerId = "FD6F9899-E567-4A26-8444-C317D4100EC1";
paths = (
{
closed = 1;
nodes = (
"709 595 LINE",
"983 0 LINE",
"1137 0 LINE",
"841 626 LINE",
"1008 676 OFFCURVE",
"1115 831 OFFCURVE",
"1115 1021 CURVE SMOOTH",
"1115 1280 OFFCURVE",
"941 1443 OFFCURVE",
"666 1443 CURVE SMOOTH",
"196 1443 LINE",
"196 0 LINE",
"330 0 LINE",
"330 595 LINE"
);
},
{
closed = 1;
nodes = (
"330 1321 LINE",
"657 1321 LINE SMOOTH",
"863 1321 OFFCURVE",
"979 1211 OFFCURVE",
"979 1015 CURVE SMOOTH",
"979 820 OFFCURVE",
"861 713 OFFCURVE",
"647 713 CURVE SMOOTH",
"330 713 LINE"
);
}
);
width = 1266;
}
);
note = R;
unicode = 0052;
},
{
glyphname = Racute;
layers = (
{
layerId = "FD6F9899-E567-4A26-8444-C317D4100EC1";
paths = (
{
closed = 1;
nodes = (
"507 1617 LINE",
"665 1617 LINE",
"991 1914 LINE",
"817 1914 LINE"
);
},
{
closed = 1;
nodes = (
"709 595 LINE",
"983 0 LINE",
"1137 0 LINE",
"841 626 LINE",
"1008 676 OFFCURVE",
"1115 831 OFFCURVE",
"1115 1021 CURVE SMOOTH",
"1115 1280 OFFCURVE",
"941 1443 OFFCURVE",
"666 1443 CURVE SMOOTH",
"196 1443 LINE",
"196 0 LINE",
"330 0 LINE",
"330 595 LINE"
);
},
{
closed = 1;
nodes = (
"330 1321 LINE",
"657 1321 LINE SMOOTH",
"863 1321 OFFCURVE",
"979 1211 OFFCURVE",
"979 1015 CURVE SMOOTH",
"979 820 OFFCURVE",
"861 713 OFFCURVE",
"647 713 CURVE SMOOTH",
"330 713 LINE"
);
}
);
width = 1266;
}
);
note = Racute;
unicode = 0154;
},
{
glyphname = Rcaron;
layers = (
{
layerId = "FD6F9899-E567-4A26-8444-C317D4100EC1";
paths = (
{
closed = 1;
nodes = (
"676 1617 LINE",
"965 1914 LINE",
"810 1914 LINE",
"620 1712 LINE",
"608 1712 LINE",
"418 1914 LINE",
"263 1914 LINE",
"552 1617 LINE"
);
},
{
closed = 1;
nodes = (
"709 595 LINE",
"983 0 LINE",
"1137 0 LINE",
"841 626 LINE",
"1008 676 OFFCURVE",
"1115 831 OFFCURVE",
"1115 1021 CURVE SMOOTH",
"1115 1280 OFFCURVE",
"941 1443 OFFCURVE",
"666 1443 CURVE SMOOTH",
"196 1443 LINE",
"196 0 LINE",
"330 0 LINE",
"330 595 LINE"
);
},
{
closed = 1;
nodes = (
"330 1321 LINE",
"657 1321 LINE SMOOTH",
"863 1321 OFFCURVE",
"979 1211 OFFCURVE",
"979 1015 CURVE SMOOTH",
"979 820 OFFCURVE",
"861 713 OFFCURVE",
"647 713 CURVE SMOOTH",
"330 713 LINE"
);
}
);
width = 1266;
}
);
note = Rcaron;
unicode = 0158;
},
{
glyphname = Rcommaaccent;
layers = (
{
layerId = "FD6F9899-E567-4A26-8444-C317D4100EC1";
paths = (
{
closed = 1;
nodes = (
"709 595 LINE",
"983 0 LINE",
"1137 0 LINE",
"841 626 LINE",
"1008 676 OFFCURVE",
"1115 831 OFFCURVE",
"1115 1021 CURVE SMOOTH",
"1115 1280 OFFCURVE",
"941 1443 OFFCURVE",
"666 1443 CURVE SMOOTH",
"196 1443 LINE",
"196 0 LINE",
"330 0 LINE",
"330 595 LINE"
);
},
{
closed = 1;
nodes = (
"330 1321 LINE",
"657 1321 LINE SMOOTH",
"863 1321 OFFCURVE",
"979 1211 OFFCURVE",
"979 1015 CURVE SMOOTH",
"979 820 OFFCURVE",
"861 713 OFFCURVE",
"647 713 CURVE SMOOTH",
"330 713 LINE"
);
},
{
closed = 1;
nodes = (
"591 -503 LINE",
"707 -139 LINE",
"567 -139 LINE",
"465 -503 LINE"
);
}
);
width = 1266;
}
);
note = Rcommaaccent;
unicode = 0156;
},
{
glyphname = Rdblgrave;
layers = (
{
layerId = "FD6F9899-E567-4A26-8444-C317D4100EC1";
paths = (
{
closed = 1;
nodes = (
"556 1617 LINE",
"246 1914 LINE",
"72 1914 LINE",
"398 1617 LINE"
);
},
{
closed = 1;
nodes = (
"920 1617 LINE",
"610 1914 LINE",
"436 1914 LINE",
"762 1617 LINE"
);
},
{
closed = 1;
nodes = (
"709 595 LINE",
"983 0 LINE",
"1137 0 LINE",
"841 626 LINE",
"1008 676 OFFCURVE",
"1115 831 OFFCURVE",
"1115 1021 CURVE SMOOTH",
"1115 1280 OFFCURVE",
"941 1443 OFFCURVE",
"666 1443 CURVE SMOOTH",
"196 1443 LINE",
"196 0 LINE",
"330 0 LINE",
"330 595 LINE"
);
},
{
closed = 1;
nodes = (
"330 1321 LINE",
"657 1321 LINE SMOOTH",
"863 1321 OFFCURVE",
"979 1211 OFFCURVE",
"979 1015 CURVE SMOOTH",
"979 820 OFFCURVE",
"861 713 OFFCURVE",
"647 713 CURVE SMOOTH",
"330 713 LINE"
);
}
);
width = 1266;
}
);
note = Rdblgrave;
unicode = 0210;
},
{
glyphname = Rdotaccent;
layers = (
{
layerId = "FD6F9899-E567-4A26-8444-C317D4100EC1";
paths = (
{
closed = 1;
nodes = (
"675 1660 OFFCURVE",
"728 1712 OFFCURVE",
"728 1773 CURVE SMOOTH",
"728 1834 OFFCURVE",
"675 1886 OFFCURVE",
"614 1886 CURVE SMOOTH",
"553 1886 OFFCURVE",
"500 1834 OFFCURVE",
"500 1773 CURVE SMOOTH",
"500 1712 OFFCURVE",
"553 1660 OFFCURVE",
"614 1660 CURVE SMOOTH"
);
},
{
closed = 1;
nodes = (
"709 595 LINE",
"983 0 LINE",
"1137 0 LINE",
"841 626 LINE",
"1008 676 OFFCURVE",
"1115 831 OFFCURVE",
"1115 1021 CURVE SMOOTH",
"1115 1280 OFFCURVE",
"941 1443 OFFCURVE",
"666 1443 CURVE SMOOTH",
"196 1443 LINE",
"196 0 LINE",
"330 0 LINE",
"330 595 LINE"
);
},
{
closed = 1;
nodes = (
"330 1321 LINE",
"657 1321 LINE SMOOTH",
"863 1321 OFFCURVE",
"979 1211 OFFCURVE",
"979 1015 CURVE SMOOTH",
"979 820 OFFCURVE",
"861 713 OFFCURVE",
"647 713 CURVE SMOOTH",
"330 713 LINE"
);
}
);
width = 1266;
}
);
note = Rdotaccent;
unicode = 1E58;
},
{
glyphname = Rdotbelow;
layers = (
{
layerId = "FD6F9899-E567-4A26-8444-C317D4100EC1";
paths = (
{
closed = 1;
nodes = (
"709 595 LINE",
"983 0 LINE",
"1137 0 LINE",
"841 626 LINE",
"1008 676 OFFCURVE",
"1115 831 OFFCURVE",
"1115 1021 CURVE SMOOTH",
"1115 1280 OFFCURVE",
"941 1443 OFFCURVE",
"666 1443 CURVE SMOOTH",
"196 1443 LINE",
"196 0 LINE",
"330 0 LINE",
"330 595 LINE"
);
},
{
closed = 1;
nodes = (
"330 1321 LINE",
"657 1321 LINE SMOOTH",
"863 1321 OFFCURVE",
"979 1211 OFFCURVE",
"979 1015 CURVE SMOOTH",
"979 820 OFFCURVE",
"861 713 OFFCURVE",
"647 713 CURVE SMOOTH",
"330 713 LINE"
);
},
{
closed = 1;
nodes = (
"698 -440 OFFCURVE",
"751 -388 OFFCURVE",
"751 -327 CURVE SMOOTH",
"751 -266 OFFCURVE",
"698 -214 OFFCURVE",
"637 -214 CURVE SMOOTH",
"576 -214 OFFCURVE",
"523 -266 OFFCURVE",
"523 -327 CURVE SMOOTH",
"523 -388 OFFCURVE",
"576 -440 OFFCURVE",
"637 -440 CURVE SMOOTH"
);
}
);
width = 1266;
}
);
note = Rdotbelow;
unicode = 1E5A;
},
{
glyphname = Rdotbelowmacron;
layers = (
{
layerId = "FD6F9899-E567-4A26-8444-C317D4100EC1";
paths = (
{
closed = 1;
nodes = (
"933 1714 LINE",
"933 1832 LINE",
"295 1832 LINE",
"295 1714 LINE"
);
},
{
closed = 1;
nodes = (
"709 595 LINE",
"983 0 LINE",
"1137 0 LINE",
"841 626 LINE",
"1008 676 OFFCURVE",
"1115 831 OFFCURVE",
"1115 1021 CURVE SMOOTH",
"1115 1280 OFFCURVE",
"941 1443 OFFCURVE",
"666 1443 CURVE SMOOTH",
"196 1443 LINE",
"196 0 LINE",
"330 0 LINE",
"330 595 LINE"
);
},
{
closed = 1;
nodes = (
"330 1321 LINE",
"657 1321 LINE SMOOTH",
"863 1321 OFFCURVE",
"979 1211 OFFCURVE",
"979 1015 CURVE SMOOTH",
"979 820 OFFCURVE",
"861 713 OFFCURVE",
"647 713 CURVE SMOOTH",
"330 713 LINE"
);
},
{
closed = 1;
nodes = (
"698 -440 OFFCURVE",
"751 -388 OFFCURVE",
"751 -327 CURVE SMOOTH",
"751 -266 OFFCURVE",
"698 -214 OFFCURVE",
"637 -214 CURVE SMOOTH",
"576 -214 OFFCURVE",
"523 -266 OFFCURVE",
"523 -327 CURVE SMOOTH",
"523 -388 OFFCURVE",
"576 -440 OFFCURVE",
"637 -440 CURVE SMOOTH"
);
}
);
width = 1266;
}
);
note = Rdotbelowmacron;
unicode = 1E5C;
},
{
glyphname = Rinvertedbreve;
layers = (
{
layerId = "FD6F9899-E567-4A26-8444-C317D4100EC1";
paths = (
{
closed = 1;
nodes = (
"402 1617 LINE",
"402 1732 OFFCURVE",
"491 1816 OFFCURVE",
"614 1816 CURVE SMOOTH",
"737 1816 OFFCURVE",
"826 1732 OFFCURVE",
"826 1617 CURVE",
"944 1617 LINE",
"944 1792 OFFCURVE",
"808 1914 OFFCURVE",
"614 1914 CURVE SMOOTH",
"420 1914 OFFCURVE",
"284 1792 OFFCURVE",
"284 1617 CURVE"
);
},
{
closed = 1;
nodes = (
"709 595 LINE",
"983 0 LINE",
"1137 0 LINE",
"841 626 LINE",
"1008 676 OFFCURVE",
"1115 831 OFFCURVE",
"1115 1021 CURVE SMOOTH",
"1115 1280 OFFCURVE",
"941 1443 OFFCURVE",
"666 1443 CURVE SMOOTH",
"196 1443 LINE",
"196 0 LINE",
"330 0 LINE",
"330 595 LINE"
);
},
{
closed = 1;
nodes = (
"330 1321 LINE",
"657 1321 LINE SMOOTH",
"863 1321 OFFCURVE",
"979 1211 OFFCURVE",
"979 1015 CURVE SMOOTH",
"979 820 OFFCURVE",
"861 713 OFFCURVE",
"647 713 CURVE SMOOTH",
"330 713 LINE"
);
}
);
width = 1266;
}
);
note = Rinvertedbreve;
unicode = 0212;
},
{
glyphname = Rlinebelow;
layers = (
{
layerId = "FD6F9899-E567-4A26-8444-C317D4100EC1";
paths = (
{
closed = 1;
nodes = (
"709 595 LINE",
"983 0 LINE",
"1137 0 LINE",
"841 626 LINE",
"1008 676 OFFCURVE",
"1115 831 OFFCURVE",
"1115 1021 CURVE SMOOTH",
"1115 1280 OFFCURVE",
"941 1443 OFFCURVE",
"666 1443 CURVE SMOOTH",
"196 1443 LINE",
"196 0 LINE",
"330 0 LINE",
"330 595 LINE"
);
},
{
closed = 1;
nodes = (
"330 1321 LINE",
"657 1321 LINE SMOOTH",
"863 1321 OFFCURVE",
"979 1211 OFFCURVE",
"979 1015 CURVE SMOOTH",
"979 820 OFFCURVE",
"861 713 OFFCURVE",
"647 713 CURVE SMOOTH",
"330 713 LINE"
);
},
{
closed = 1;
nodes = (
"956 -386 LINE",
"956 -268 LINE",
"318 -268 LINE",
"318 -386 LINE"
);
}
);
width = 1266;
}
);
note = Rlinebelow;
unicode = 1E5E;
},
{
glyphname = S;
layers = (
{
layerId = "FD6F9899-E567-4A26-8444-C317D4100EC1";
paths = (
{
closed = 1;
nodes = (
"155 375 LINE",
"172 126 OFFCURVE",
"363 -30 OFFCURVE",
"650 -30 CURVE SMOOTH",
"940 -30 OFFCURVE",
"1131 132 OFFCURVE",
"1131 378 CURVE SMOOTH",
"1131 594 OFFCURVE",
"1015 714 OFFCURVE",
"734 787 CURVE SMOOTH",
"617 818 LINE SMOOTH",
"417 870 OFFCURVE",
"331 950 OFFCURVE",
"331 1085 CURVE SMOOTH",
"331 1250 OFFCURVE",
"450 1348 OFFCURVE",
"650 1348 CURVE SMOOTH",
"831 1348 OFFCURVE",
"949 1253 OFFCURVE",
"969 1090 CURVE",
"1106 1090 LINE",
"1092 1322 OFFCURVE",
"912 1473 OFFCURVE",
"650 1473 CURVE SMOOTH",
"372 1473 OFFCURVE",
"191 1320 OFFCURVE",
"191 1085 CURVE SMOOTH",
"191 878 OFFCURVE",
"310 755 OFFCURVE",
"581 684 CURVE SMOOTH",
"694 655 LINE SMOOTH",
"900 602 OFFCURVE",
"991 516 OFFCURVE",
"991 378 CURVE SMOOTH",
"991 207 OFFCURVE",
"856 95 OFFCURVE",
"650 95 CURVE SMOOTH",
"448 95 OFFCURVE",
"311 202 OFFCURVE",
"292 375 CURVE"
);
}
);
width = 1266;
}
);
note = S;
unicode = 0053;
},
{
glyphname = Sacute;
layers = (
{
layerId = "FD6F9899-E567-4A26-8444-C317D4100EC1";
paths = (
{
closed = 1;
nodes = (
"543 1617 LINE",
"701 1617 LINE",
"1027 1914 LINE",
"853 1914 LINE"
);
},
{
closed = 1;
nodes = (
"155 375 LINE",
"172 126 OFFCURVE",
"363 -30 OFFCURVE",
"650 -30 CURVE SMOOTH",
"940 -30 OFFCURVE",
"1131 132 OFFCURVE",
"1131 378 CURVE SMOOTH",
"1131 594 OFFCURVE",
"1015 714 OFFCURVE",
"734 787 CURVE SMOOTH",
"617 818 LINE SMOOTH",
"417 870 OFFCURVE",
"331 950 OFFCURVE",
"331 1085 CURVE SMOOTH",
"331 1250 OFFCURVE",
"450 1348 OFFCURVE",
"650 1348 CURVE SMOOTH",
"831 1348 OFFCURVE",
"949 1253 OFFCURVE",
"969 1090 CURVE",
"1106 1090 LINE",
"1092 1322 OFFCURVE",
"912 1473 OFFCURVE",
"650 1473 CURVE SMOOTH",
"372 1473 OFFCURVE",
"191 1320 OFFCURVE",
"191 1085 CURVE SMOOTH",
"191 878 OFFCURVE",
"310 755 OFFCURVE",
"581 684 CURVE SMOOTH",
"694 655 LINE SMOOTH",
"900 602 OFFCURVE",
"991 516 OFFCURVE",
"991 378 CURVE SMOOTH",
"991 207 OFFCURVE",
"856 95 OFFCURVE",
"650 95 CURVE SMOOTH",
"448 95 OFFCURVE",
"311 202 OFFCURVE",
"292 375 CURVE"
);
}
);
width = 1266;
}
);
note = Sacute;
unicode = 015A;
},
{
glyphname = Sacutedotaccent;
layers = (
{
layerId = "FD6F9899-E567-4A26-8444-C317D4100EC1";
paths = (
{
closed = 1;
nodes = (
"567 1717 OFFCURVE",
"620 1769 OFFCURVE",
"620 1830 CURVE SMOOTH",
"620 1891 OFFCURVE",
"567 1943 OFFCURVE",
"506 1943 CURVE SMOOTH",
"445 1943 OFFCURVE",
"392 1891 OFFCURVE",
"392 1830 CURVE SMOOTH",
"392 1769 OFFCURVE",
"445 1717 OFFCURVE",
"506 1717 CURVE SMOOTH"
);
},
{
closed = 1;
nodes = (
"629 1617 LINE",
"787 1617 LINE",
"1113 1914 LINE",
"939 1914 LINE"
);
},
{
closed = 1;
nodes = (
"155 375 LINE",
"172 126 OFFCURVE",
"363 -30 OFFCURVE",
"650 -30 CURVE SMOOTH",
"940 -30 OFFCURVE",
"1131 132 OFFCURVE",
"1131 378 CURVE SMOOTH",
"1131 594 OFFCURVE",
"1015 714 OFFCURVE",
"734 787 CURVE SMOOTH",
"617 818 LINE SMOOTH",
"417 870 OFFCURVE",
"331 950 OFFCURVE",
"331 1085 CURVE SMOOTH",
"331 1250 OFFCURVE",
"450 1348 OFFCURVE",
"650 1348 CURVE SMOOTH",
"831 1348 OFFCURVE",
"949 1253 OFFCURVE",
"969 1090 CURVE",
"1106 1090 LINE",
"1092 1322 OFFCURVE",
"912 1473 OFFCURVE",
"650 1473 CURVE SMOOTH",
"372 1473 OFFCURVE",
"191 1320 OFFCURVE",
"191 1085 CURVE SMOOTH",
"191 878 OFFCURVE",
"310 755 OFFCURVE",
"581 684 CURVE SMOOTH",
"694 655 LINE SMOOTH",
"900 602 OFFCURVE",
"991 516 OFFCURVE",
"991 378 CURVE SMOOTH",
"991 207 OFFCURVE",
"856 95 OFFCURVE",
"650 95 CURVE SMOOTH",
"448 95 OFFCURVE",
"311 202 OFFCURVE",
"292 375 CURVE"
);
}
);
width = 1266;
}
);
note = Sacutedotaccent;
unicode = 1E64;
},
{
glyphname = Scaron;
layers = (
{
layerId = "FD6F9899-E567-4A26-8444-C317D4100EC1";
paths = (
{
closed = 1;
nodes = (
"712 1617 LINE",
"1001 1914 LINE",
"846 1914 LINE",
"656 1712 LINE",
"644 1712 LINE",
"454 1914 LINE",
"299 1914 LINE",
"588 1617 LINE"
);
},
{
closed = 1;
nodes = (
"155 375 LINE",
"172 126 OFFCURVE",
"363 -30 OFFCURVE",
"650 -30 CURVE SMOOTH",
"940 -30 OFFCURVE",
"1131 132 OFFCURVE",
"1131 378 CURVE SMOOTH",
"1131 594 OFFCURVE",
"1015 714 OFFCURVE",
"734 787 CURVE SMOOTH",
"617 818 LINE SMOOTH",
"417 870 OFFCURVE",
"331 950 OFFCURVE",
"331 1085 CURVE SMOOTH",
"331 1250 OFFCURVE",
"450 1348 OFFCURVE",
"650 1348 CURVE SMOOTH",
"831 1348 OFFCURVE",
"949 1253 OFFCURVE",
"969 1090 CURVE",
"1106 1090 LINE",
"1092 1322 OFFCURVE",
"912 1473 OFFCURVE",
"650 1473 CURVE SMOOTH",
"372 1473 OFFCURVE",
"191 1320 OFFCURVE",
"191 1085 CURVE SMOOTH",
"191 878 OFFCURVE",
"310 755 OFFCURVE",
"581 684 CURVE SMOOTH",
"694 655 LINE SMOOTH",
"900 602 OFFCURVE",
"991 516 OFFCURVE",
"991 378 CURVE SMOOTH",
"991 207 OFFCURVE",
"856 95 OFFCURVE",
"650 95 CURVE SMOOTH",
"448 95 OFFCURVE",
"311 202 OFFCURVE",
"292 375 CURVE"
);
}
);
width = 1266;
}
);
note = Scaron;
unicode = 0160;
},
{
glyphname = Scarondotaccent;
layers = (
{
layerId = "FD6F9899-E567-4A26-8444-C317D4100EC1";
paths = (
{
closed = 1;
nodes = (
"708 1849 OFFCURVE",
"754 1895 OFFCURVE",
"754 1953 CURVE SMOOTH",
"754 2011 OFFCURVE",
"708 2057 OFFCURVE",
"650 2057 CURVE SMOOTH",
"592 2057 OFFCURVE",
"546 2011 OFFCURVE",
"546 1953 CURVE SMOOTH",
"546 1895 OFFCURVE",
"592 1849 OFFCURVE",
"650 1849 CURVE SMOOTH"
);
},
{
closed = 1;
nodes = (
"723 1577 LINE",
"1008 1801 LINE",
"836 1801 LINE",
"656 1655 LINE",
"644 1655 LINE",
"464 1801 LINE",
"292 1801 LINE",
"577 1577 LINE"
);
},
{
closed = 1;
nodes = (
"155 375 LINE",
"172 126 OFFCURVE",
"363 -30 OFFCURVE",
"650 -30 CURVE SMOOTH",
"940 -30 OFFCURVE",
"1131 132 OFFCURVE",
"1131 378 CURVE SMOOTH",
"1131 594 OFFCURVE",
"1015 714 OFFCURVE",
"734 787 CURVE SMOOTH",
"617 818 LINE SMOOTH",
"417 870 OFFCURVE",
"331 950 OFFCURVE",
"331 1085 CURVE SMOOTH",
"331 1250 OFFCURVE",
"450 1348 OFFCURVE",
"650 1348 CURVE SMOOTH",
"831 1348 OFFCURVE",
"949 1253 OFFCURVE",
"969 1090 CURVE",
"1106 1090 LINE",
"1092 1322 OFFCURVE",
"912 1473 OFFCURVE",
"650 1473 CURVE SMOOTH",
"372 1473 OFFCURVE",
"191 1320 OFFCURVE",
"191 1085 CURVE SMOOTH",
"191 878 OFFCURVE",
"310 755 OFFCURVE",
"581 684 CURVE SMOOTH",
"694 655 LINE SMOOTH",
"900 602 OFFCURVE",
"991 516 OFFCURVE",
"991 378 CURVE SMOOTH",
"991 207 OFFCURVE",
"856 95 OFFCURVE",
"650 95 CURVE SMOOTH",
"448 95 OFFCURVE",
"311 202 OFFCURVE",
"292 375 CURVE"
);
}
);
width = 1266;
}
);
note = Scarondotaccent;
unicode = 1E66;
},
{
glyphname = Scedilla;
layers = (
{
layerId = "FD6F9899-E567-4A26-8444-C317D4100EC1";
paths = (
{
closed = 1;
nodes = (
"155 375 LINE",
"171 143 OFFCURVE",
"338 -8 OFFCURVE",
"593 -28 CURVE",
"540 -164 LINE",
"540 -235 LINE",
"597 -235 LINE SMOOTH",
"705 -235 OFFCURVE",
"748 -255 OFFCURVE",
"748 -305 CURVE SMOOTH",
"748 -355 OFFCURVE",
"706 -383 OFFCURVE",
"631 -383 CURVE SMOOTH",
"595 -383 OFFCURVE",
"534 -376 OFFCURVE",
"510 -369 CURVE",
"510 -466 LINE",
"559 -480 OFFCURVE",
"590 -484 OFFCURVE",
"639 -484 CURVE SMOOTH",
"776 -484 OFFCURVE",
"869 -411 OFFCURVE",
"869 -302 CURVE SMOOTH",
"869 -198 OFFCURVE",
"797 -142 OFFCURVE",
"666 -144 CURVE",
"710 -28 LINE",
"966 -6 OFFCURVE",
"1131 150 OFFCURVE",
"1131 378 CURVE SMOOTH",
"1131 594 OFFCURVE",
"1015 714 OFFCURVE",
"734 787 CURVE SMOOTH",
"617 818 LINE SMOOTH",
"417 870 OFFCURVE",
"331 950 OFFCURVE",
"331 1085 CURVE SMOOTH",
"331 1250 OFFCURVE",
"450 1348 OFFCURVE",
"650 1348 CURVE SMOOTH",
"831 1348 OFFCURVE",
"949 1253 OFFCURVE",
"969 1090 CURVE",
"1106 1090 LINE",
"1092 1322 OFFCURVE",
"912 1473 OFFCURVE",
"650 1473 CURVE SMOOTH",
"372 1473 OFFCURVE",
"191 1320 OFFCURVE",
"191 1085 CURVE SMOOTH",
"191 878 OFFCURVE",
"310 755 OFFCURVE",
"581 684 CURVE SMOOTH",
"694 655 LINE SMOOTH",
"900 602 OFFCURVE",
"991 516 OFFCURVE",
"991 378 CURVE SMOOTH",
"991 207 OFFCURVE",
"856 95 OFFCURVE",
"650 95 CURVE SMOOTH",
"448 95 OFFCURVE",
"311 202 OFFCURVE",
"292 375 CURVE"
);
}
);
width = 1266;
}
);
note = Scedilla;
unicode = 015E;
},
{
glyphname = Scircumflex;
layers = (
{
layerId = "FD6F9899-E567-4A26-8444-C317D4100EC1";
paths = (
{
closed = 1;
nodes = (
"712 1914 LINE",
"588 1914 LINE",
"299 1617 LINE",
"454 1617 LINE",
"644 1819 LINE",
"656 1819 LINE",
"846 1617 LINE",
"1001 1617 LINE"
);
},
{
closed = 1;
nodes = (
"155 375 LINE",
"172 126 OFFCURVE",
"363 -30 OFFCURVE",
"650 -30 CURVE SMOOTH",
"940 -30 OFFCURVE",
"1131 132 OFFCURVE",
"1131 378 CURVE SMOOTH",
"1131 594 OFFCURVE",
"1015 714 OFFCURVE",
"734 787 CURVE SMOOTH",
"617 818 LINE SMOOTH",
"417 870 OFFCURVE",
"331 950 OFFCURVE",
"331 1085 CURVE SMOOTH",
"331 1250 OFFCURVE",
"450 1348 OFFCURVE",
"650 1348 CURVE SMOOTH",
"831 1348 OFFCURVE",
"949 1253 OFFCURVE",
"969 1090 CURVE",
"1106 1090 LINE",
"1092 1322 OFFCURVE",
"912 1473 OFFCURVE",
"650 1473 CURVE SMOOTH",
"372 1473 OFFCURVE",
"191 1320 OFFCURVE",
"191 1085 CURVE SMOOTH",
"191 878 OFFCURVE",
"310 755 OFFCURVE",
"581 684 CURVE SMOOTH",
"694 655 LINE SMOOTH",
"900 602 OFFCURVE",
"991 516 OFFCURVE",
"991 378 CURVE SMOOTH",
"991 207 OFFCURVE",
"856 95 OFFCURVE",
"650 95 CURVE SMOOTH",
"448 95 OFFCURVE",
"311 202 OFFCURVE",
"292 375 CURVE"
);
}
);
width = 1266;
}
);
note = Scircumflex;
unicode = 015C;
},
{
glyphname = Scommaaccent;
layers = (
{
layerId = "FD6F9899-E567-4A26-8444-C317D4100EC1";
paths = (
{
closed = 1;
nodes = (
"155 375 LINE",
"172 126 OFFCURVE",
"363 -30 OFFCURVE",
"650 -30 CURVE SMOOTH",
"940 -30 OFFCURVE",
"1131 132 OFFCURVE",
"1131 378 CURVE SMOOTH",
"1131 594 OFFCURVE",
"1015 714 OFFCURVE",
"734 787 CURVE SMOOTH",
"617 818 LINE SMOOTH",
"417 870 OFFCURVE",
"331 950 OFFCURVE",
"331 1085 CURVE SMOOTH",
"331 1250 OFFCURVE",
"450 1348 OFFCURVE",
"650 1348 CURVE SMOOTH",
"831 1348 OFFCURVE",
"949 1253 OFFCURVE",
"969 1090 CURVE",
"1106 1090 LINE",
"1092 1322 OFFCURVE",
"912 1473 OFFCURVE",
"650 1473 CURVE SMOOTH",
"372 1473 OFFCURVE",
"191 1320 OFFCURVE",
"191 1085 CURVE SMOOTH",
"191 878 OFFCURVE",
"310 755 OFFCURVE",
"581 684 CURVE SMOOTH",
"694 655 LINE SMOOTH",
"900 602 OFFCURVE",
"991 516 OFFCURVE",
"991 378 CURVE SMOOTH",
"991 207 OFFCURVE",
"856 95 OFFCURVE",
"650 95 CURVE SMOOTH",
"448 95 OFFCURVE",
"311 202 OFFCURVE",
"292 375 CURVE"
);
},
{
closed = 1;
nodes = (
"604 -503 LINE",
"720 -139 LINE",
"580 -139 LINE",
"478 -503 LINE"
);
}
);
width = 1266;
}
);
note = Scommaaccent;
unicode = 0218;
},
{
glyphname = Sdotaccent;
layers = (
{
layerId = "FD6F9899-E567-4A26-8444-C317D4100EC1";
paths = (
{
closed = 1;
nodes = (
"711 1660 OFFCURVE",
"764 1712 OFFCURVE",
"764 1773 CURVE SMOOTH",
"764 1834 OFFCURVE",
"711 1886 OFFCURVE",
"650 1886 CURVE SMOOTH",
"589 1886 OFFCURVE",
"536 1834 OFFCURVE",
"536 1773 CURVE SMOOTH",
"536 1712 OFFCURVE",
"589 1660 OFFCURVE",
"650 1660 CURVE SMOOTH"
);
},
{
closed = 1;
nodes = (
"155 375 LINE",
"172 126 OFFCURVE",
"363 -30 OFFCURVE",
"650 -30 CURVE SMOOTH",
"940 -30 OFFCURVE",
"1131 132 OFFCURVE",
"1131 378 CURVE SMOOTH",
"1131 594 OFFCURVE",
"1015 714 OFFCURVE",
"734 787 CURVE SMOOTH",
"617 818 LINE SMOOTH",
"417 870 OFFCURVE",
"331 950 OFFCURVE",
"331 1085 CURVE SMOOTH",
"331 1250 OFFCURVE",
"450 1348 OFFCURVE",
"650 1348 CURVE SMOOTH",
"831 1348 OFFCURVE",
"949 1253 OFFCURVE",
"969 1090 CURVE",
"1106 1090 LINE",
"1092 1322 OFFCURVE",
"912 1473 OFFCURVE",
"650 1473 CURVE SMOOTH",
"372 1473 OFFCURVE",
"191 1320 OFFCURVE",
"191 1085 CURVE SMOOTH",
"191 878 OFFCURVE",
"310 755 OFFCURVE",
"581 684 CURVE SMOOTH",
"694 655 LINE SMOOTH",
"900 602 OFFCURVE",
"991 516 OFFCURVE",
"991 378 CURVE SMOOTH",
"991 207 OFFCURVE",
"856 95 OFFCURVE",
"650 95 CURVE SMOOTH",
"448 95 OFFCURVE",
"311 202 OFFCURVE",
"292 375 CURVE"
);
}
);
width = 1266;
}
);
note = Sdotaccent;
unicode = 1E60;
},
{
glyphname = Sdotbelow;
layers = (
{
layerId = "FD6F9899-E567-4A26-8444-C317D4100EC1";
paths = (
{
closed = 1;
nodes = (
"155 375 LINE",
"172 126 OFFCURVE",
"363 -30 OFFCURVE",
"650 -30 CURVE SMOOTH",
"940 -30 OFFCURVE",
"1131 132 OFFCURVE",
"1131 378 CURVE SMOOTH",
"1131 594 OFFCURVE",
"1015 714 OFFCURVE",
"734 787 CURVE SMOOTH",
"617 818 LINE SMOOTH",
"417 870 OFFCURVE",
"331 950 OFFCURVE",
"331 1085 CURVE SMOOTH",
"331 1250 OFFCURVE",
"450 1348 OFFCURVE",
"650 1348 CURVE SMOOTH",
"831 1348 OFFCURVE",
"949 1253 OFFCURVE",
"969 1090 CURVE",
"1106 1090 LINE",
"1092 1322 OFFCURVE",
"912 1473 OFFCURVE",
"650 1473 CURVE SMOOTH",
"372 1473 OFFCURVE",
"191 1320 OFFCURVE",
"191 1085 CURVE SMOOTH",
"191 878 OFFCURVE",
"310 755 OFFCURVE",
"581 684 CURVE SMOOTH",
"694 655 LINE SMOOTH",
"900 602 OFFCURVE",
"991 516 OFFCURVE",
"991 378 CURVE SMOOTH",
"991 207 OFFCURVE",
"856 95 OFFCURVE",
"650 95 CURVE SMOOTH",
"448 95 OFFCURVE",
"311 202 OFFCURVE",
"292 375 CURVE"
);
},
{
closed = 1;
nodes = (
"711 -420 OFFCURVE",
"764 -368 OFFCURVE",
"764 -307 CURVE SMOOTH",
"764 -246 OFFCURVE",
"711 -194 OFFCURVE",
"650 -194 CURVE SMOOTH",
"589 -194 OFFCURVE",
"536 -246 OFFCURVE",
"536 -307 CURVE SMOOTH",
"536 -368 OFFCURVE",
"589 -420 OFFCURVE",
"650 -420 CURVE SMOOTH"
);
}
);
width = 1266;
}
);
note = Sdotbelow;
unicode = 1E62;
},
{
glyphname = Sdotbelowdotaccent;
layers = (
{
layerId = "FD6F9899-E567-4A26-8444-C317D4100EC1";
paths = (
{
closed = 1;
nodes = (
"711 1660 OFFCURVE",
"764 1712 OFFCURVE",
"764 1773 CURVE SMOOTH",
"764 1834 OFFCURVE",
"711 1886 OFFCURVE",
"650 1886 CURVE SMOOTH",
"589 1886 OFFCURVE",
"536 1834 OFFCURVE",
"536 1773 CURVE SMOOTH",
"536 1712 OFFCURVE",
"589 1660 OFFCURVE",
"650 1660 CURVE SMOOTH"
);
},
{
closed = 1;
nodes = (
"155 375 LINE",
"172 126 OFFCURVE",
"363 -30 OFFCURVE",
"650 -30 CURVE SMOOTH",
"940 -30 OFFCURVE",
"1131 132 OFFCURVE",
"1131 378 CURVE SMOOTH",
"1131 594 OFFCURVE",
"1015 714 OFFCURVE",
"734 787 CURVE SMOOTH",
"617 818 LINE SMOOTH",
"417 870 OFFCURVE",
"331 950 OFFCURVE",
"331 1085 CURVE SMOOTH",
"331 1250 OFFCURVE",
"450 1348 OFFCURVE",
"650 1348 CURVE SMOOTH",
"831 1348 OFFCURVE",
"949 1253 OFFCURVE",
"969 1090 CURVE",
"1106 1090 LINE",
"1092 1322 OFFCURVE",
"912 1473 OFFCURVE",
"650 1473 CURVE SMOOTH",
"372 1473 OFFCURVE",
"191 1320 OFFCURVE",
"191 1085 CURVE SMOOTH",
"191 878 OFFCURVE",
"310 755 OFFCURVE",
"581 684 CURVE SMOOTH",
"694 655 LINE SMOOTH",
"900 602 OFFCURVE",
"991 516 OFFCURVE",
"991 378 CURVE SMOOTH",
"991 207 OFFCURVE",
"856 95 OFFCURVE",
"650 95 CURVE SMOOTH",
"448 95 OFFCURVE",
"311 202 OFFCURVE",
"292 375 CURVE"
);
},
{
closed = 1;
nodes = (
"711 -440 OFFCURVE",
"764 -388 OFFCURVE",
"764 -327 CURVE SMOOTH",
"764 -266 OFFCURVE",
"711 -214 OFFCURVE",
"650 -214 CURVE SMOOTH",
"589 -214 OFFCURVE",
"536 -266 OFFCURVE",
"536 -327 CURVE SMOOTH",
"536 -388 OFFCURVE",
"589 -440 OFFCURVE",
"650 -440 CURVE SMOOTH"
);
}
);
width = 1266;
}
);
note = Sdotbelowdotaccent;
unicode = 1E68;
},
{
glyphname = Germandbls;
layers = (
{
layerId = "FD6F9899-E567-4A26-8444-C317D4100EC1";
paths = (
{
closed = 1;
nodes = (
"1044 -24 OFFCURVE",
"1194 134 OFFCURVE",
"1194 385 CURVE SMOOTH",
"1194 387 LINE SMOOTH",
"1194 609 OFFCURVE",
"1082 748 OFFCURVE",
"837 802 CURVE SMOOTH",
"797 811 LINE",
"1126 1199 LINE",
"1126 1312 LINE",
"1008 1401 OFFCURVE",
"833 1466 OFFCURVE",
"658 1466 CURVE SMOOTH",
"348 1466 OFFCURVE",
"154 1279 OFFCURVE",
"154 942 CURVE SMOOTH",
"154 0 LINE",
"291 0 LINE",
"291 926 LINE SMOOTH",
"291 1192 OFFCURVE",
"424 1329 OFFCURVE",
"643 1327 CURVE SMOOTH",
"752 1326 OFFCURVE",
"866 1298 OFFCURVE",
"981 1233 CURVE",
"643 831 LINE",
"643 712 LINE",
"765 688 LINE SMOOTH",
"963 649 OFFCURVE",
"1054 547 OFFCURVE",
"1054 385 CURVE SMOOTH",
"1054 383 LINE SMOOTH",
"1054 219 OFFCURVE",
"957 115 OFFCURVE",
"806 115 CURVE SMOOTH",
"706 115 OFFCURVE",
"605 140 OFFCURVE",
"513 196 CURVE",
"513 45 LINE",
"585 3 OFFCURVE",
"697 -24 OFFCURVE",
"810 -24 CURVE SMOOTH"
);
}
);
width = 1266;
}
);
note = Germandbls;
unicode = 1E9E;
},
{
glyphname = T;
layers = (
{
layerId = "FD6F9899-E567-4A26-8444-C317D4100EC1";
paths = (
{
closed = 1;
nodes = (
"701 0 LINE",
"701 1319 LINE",
"1145 1319 LINE",
"1145 1443 LINE",
"121 1443 LINE",
"121 1319 LINE",
"565 1319 LINE",
"565 0 LINE"
);
}
);
width = 1266;
}
);
note = T;
unicode = 0054;
},
{
glyphname = Tbar;
layers = (
{
layerId = "FD6F9899-E567-4A26-8444-C317D4100EC1";
paths = (
{
closed = 1;
nodes = (
"701 0 LINE",
"701 678 LINE",
"1005 678 LINE",
"1005 788 LINE",
"701 788 LINE",
"701 1319 LINE",
"1145 1319 LINE",
"1145 1443 LINE",
"121 1443 LINE",
"121 1319 LINE",
"565 1319 LINE",
"565 788 LINE",
"261 788 LINE",
"261 678 LINE",
"565 678 LINE",
"565 0 LINE"
);
}
);
width = 1266;
}
);
note = Tbar;
unicode = 0166;
},
{
glyphname = Tcaron;
layers = (
{
layerId = "FD6F9899-E567-4A26-8444-C317D4100EC1";
paths = (
{
closed = 1;
nodes = (
"695 1617 LINE",
"984 1914 LINE",
"829 1914 LINE",
"639 1712 LINE",
"627 1712 LINE",
"437 1914 LINE",
"282 1914 LINE",
"571 1617 LINE"
);
},
{
closed = 1;
nodes = (
"701 0 LINE",
"701 1319 LINE",
"1145 1319 LINE",
"1145 1443 LINE",
"121 1443 LINE",
"121 1319 LINE",
"565 1319 LINE",
"565 0 LINE"
);
}
);
width = 1266;
}
);
note = Tcaron;
unicode = 0164;
},
{
glyphname = Tcedilla;
layers = (
{
layerId = "FD6F9899-E567-4A26-8444-C317D4100EC1";
paths = (
{
closed = 1;
nodes = (
"523 -235 LINE",
"580 -235 LINE SMOOTH",
"688 -235 OFFCURVE",
"731 -255 OFFCURVE",
"731 -305 CURVE SMOOTH",
"731 -355 OFFCURVE",
"689 -383 OFFCURVE",
"614 -383 CURVE SMOOTH",
"578 -383 OFFCURVE",
"517 -376 OFFCURVE",
"493 -369 CURVE",
"493 -466 LINE",
"542 -480 OFFCURVE",
"573 -484 OFFCURVE",
"622 -484 CURVE SMOOTH",
"759 -484 OFFCURVE",
"852 -411 OFFCURVE",
"852 -302 CURVE SMOOTH",
"852 -198 OFFCURVE",
"780 -142 OFFCURVE",
"649 -144 CURVE",
"704 0 LINE",
"701 0 LINE",
"701 1319 LINE",
"1145 1319 LINE",
"1145 1443 LINE",
"121 1443 LINE",
"121 1319 LINE",
"565 1319 LINE",
"565 0 LINE",
"587 0 LINE",
"523 -164 LINE"
);
}
);
width = 1266;
}
);
note = Tcedilla;
unicode = 0162;
},
{
glyphname = Tcircumflexbelow;
layers = (
{
layerId = "FD6F9899-E567-4A26-8444-C317D4100EC1";
paths = (
{
closed = 1;
nodes = (
"701 0 LINE",
"701 1319 LINE",
"1145 1319 LINE",
"1145 1443 LINE",
"121 1443 LINE",
"121 1319 LINE",
"565 1319 LINE",
"565 0 LINE"
);
},
{
closed = 1;
nodes = (
"549 -169 LINE",
"273 -504 LINE",
"443 -504 LINE",
"626 -269 LINE",
"640 -269 LINE",
"823 -504 LINE",
"993 -504 LINE",
"717 -169 LINE"
);
}
);
width = 1266;
}
);
note = Tcircumflexbelow;
unicode = 1E70;
},
{
glyphname = Tcommaaccent;
layers = (
{
layerId = "FD6F9899-E567-4A26-8444-C317D4100EC1";
paths = (
{
closed = 1;
nodes = (
"701 0 LINE",
"701 1319 LINE",
"1145 1319 LINE",
"1145 1443 LINE",
"121 1443 LINE",
"121 1319 LINE",
"565 1319 LINE",
"565 0 LINE"
);
},
{
closed = 1;
nodes = (
"587 -503 LINE",
"703 -139 LINE",
"563 -139 LINE",
"461 -503 LINE"
);
}
);
width = 1266;
}
);
note = Tcommaaccent;
unicode = 021A;
},
{
glyphname = Tdotaccent;
layers = (
{
layerId = "FD6F9899-E567-4A26-8444-C317D4100EC1";
paths = (
{
closed = 1;
nodes = (
"694 1660 OFFCURVE",
"747 1712 OFFCURVE",
"747 1773 CURVE SMOOTH",
"747 1834 OFFCURVE",
"694 1886 OFFCURVE",
"633 1886 CURVE SMOOTH",
"572 1886 OFFCURVE",
"519 1834 OFFCURVE",
"519 1773 CURVE SMOOTH",
"519 1712 OFFCURVE",
"572 1660 OFFCURVE",
"633 1660 CURVE SMOOTH"
);
},
{
closed = 1;
nodes = (
"701 0 LINE",
"701 1319 LINE",
"1145 1319 LINE",
"1145 1443 LINE",
"121 1443 LINE",
"121 1319 LINE",
"565 1319 LINE",
"565 0 LINE"
);
}
);
width = 1266;
}
);
note = Tdotaccent;
unicode = 1E6A;
},
{
glyphname = Tdotbelow;
layers = (
{
layerId = "FD6F9899-E567-4A26-8444-C317D4100EC1";
paths = (
{
closed = 1;
nodes = (
"701 0 LINE",
"701 1319 LINE",
"1145 1319 LINE",
"1145 1443 LINE",
"121 1443 LINE",
"121 1319 LINE",
"565 1319 LINE",
"565 0 LINE"
);
},
{
closed = 1;
nodes = (
"694 -440 OFFCURVE",
"747 -388 OFFCURVE",
"747 -327 CURVE SMOOTH",
"747 -266 OFFCURVE",
"694 -214 OFFCURVE",
"633 -214 CURVE SMOOTH",
"572 -214 OFFCURVE",
"519 -266 OFFCURVE",
"519 -327 CURVE SMOOTH",
"519 -388 OFFCURVE",
"572 -440 OFFCURVE",
"633 -440 CURVE SMOOTH"
);
}
);
width = 1266;
}
);
note = Tdotbelow;
unicode = 1E6C;
},
{
glyphname = Tlinebelow;
layers = (
{
layerId = "FD6F9899-E567-4A26-8444-C317D4100EC1";
paths = (
{
closed = 1;
nodes = (
"701 0 LINE",
"701 1319 LINE",
"1145 1319 LINE",
"1145 1443 LINE",
"121 1443 LINE",
"121 1319 LINE",
"565 1319 LINE",
"565 0 LINE"
);
},
{
closed = 1;
nodes = (
"952 -386 LINE",
"952 -268 LINE",
"314 -268 LINE",
"314 -386 LINE"
);
}
);
width = 1266;
}
);
note = Tlinebelow;
unicode = 1E6E;
},
{
glyphname = U;
layers = (
{
layerId = "FD6F9899-E567-4A26-8444-C317D4100EC1";
paths = (
{
closed = 1;
nodes = (
"405 96 OFFCURVE",
"271 248 OFFCURVE",
"271 505 CURVE SMOOTH",
"271 1443 LINE",
"135 1443 LINE",
"135 496 LINE SMOOTH",
"135 168 OFFCURVE",
"322 -30 OFFCURVE",
"633 -30 CURVE SMOOTH",
"944 -30 OFFCURVE",
"1131 168 OFFCURVE",
"1131 496 CURVE SMOOTH",
"1131 1443 LINE",
"995 1443 LINE",
"995 505 LINE SMOOTH",
"995 248 OFFCURVE",
"861 96 OFFCURVE",
"633 96 CURVE SMOOTH"
);
}
);
width = 1266;
}
);
note = U;
unicode = 0055;
},
{
glyphname = Uacute;
layers = (
{
layerId = "FD6F9899-E567-4A26-8444-C317D4100EC1";
paths = (
{
closed = 1;
nodes = (
"523 1617 LINE",
"681 1617 LINE",
"1007 1914 LINE",
"833 1914 LINE"
);
},
{
closed = 1;
nodes = (
"405 96 OFFCURVE",
"271 248 OFFCURVE",
"271 505 CURVE SMOOTH",
"271 1443 LINE",
"135 1443 LINE",
"135 496 LINE SMOOTH",
"135 168 OFFCURVE",
"322 -30 OFFCURVE",
"633 -30 CURVE SMOOTH",
"944 -30 OFFCURVE",
"1131 168 OFFCURVE",
"1131 496 CURVE SMOOTH",
"1131 1443 LINE",
"995 1443 LINE",
"995 505 LINE SMOOTH",
"995 248 OFFCURVE",
"861 96 OFFCURVE",
"633 96 CURVE SMOOTH"
);
}
);
width = 1266;
}
);
note = Uacute;
unicode = 00DA;
},
{
glyphname = Ubreve;
layers = (
{
layerId = "FD6F9899-E567-4A26-8444-C317D4100EC1";
paths = (
{
closed = 1;
nodes = (
"300 1914 LINE",
"300 1739 OFFCURVE",
"436 1617 OFFCURVE",
"630 1617 CURVE SMOOTH",
"824 1617 OFFCURVE",
"960 1739 OFFCURVE",
"960 1914 CURVE",
"842 1914 LINE",
"842 1799 OFFCURVE",
"753 1715 OFFCURVE",
"630 1715 CURVE SMOOTH",
"507 1715 OFFCURVE",
"418 1799 OFFCURVE",
"418 1914 CURVE"
);
},
{
closed = 1;
nodes = (
"405 96 OFFCURVE",
"271 248 OFFCURVE",
"271 505 CURVE SMOOTH",
"271 1443 LINE",
"135 1443 LINE",
"135 496 LINE SMOOTH",
"135 168 OFFCURVE",
"322 -30 OFFCURVE",
"633 -30 CURVE SMOOTH",
"944 -30 OFFCURVE",
"1131 168 OFFCURVE",
"1131 496 CURVE SMOOTH",
"1131 1443 LINE",
"995 1443 LINE",
"995 505 LINE SMOOTH",
"995 248 OFFCURVE",
"861 96 OFFCURVE",
"633 96 CURVE SMOOTH"
);
}
);
width = 1266;
}
);
note = Ubreve;
unicode = 016C;
},
{
glyphname = Ucaron;
layers = (
{
layerId = "FD6F9899-E567-4A26-8444-C317D4100EC1";
paths = (
{
closed = 1;
nodes = (
"692 1617 LINE",
"981 1914 LINE",
"826 1914 LINE",
"636 1712 LINE",
"624 1712 LINE",
"434 1914 LINE",
"279 1914 LINE",
"568 1617 LINE"
);
},
{
closed = 1;
nodes = (
"405 96 OFFCURVE",
"271 248 OFFCURVE",
"271 505 CURVE SMOOTH",
"271 1443 LINE",
"135 1443 LINE",
"135 496 LINE SMOOTH",
"135 168 OFFCURVE",
"322 -30 OFFCURVE",
"633 -30 CURVE SMOOTH",
"944 -30 OFFCURVE",
"1131 168 OFFCURVE",
"1131 496 CURVE SMOOTH",
"1131 1443 LINE",
"995 1443 LINE",
"995 505 LINE SMOOTH",
"995 248 OFFCURVE",
"861 96 OFFCURVE",
"633 96 CURVE SMOOTH"
);
}
);
width = 1266;
}
);
note = Ucaron;
unicode = 01D3;
},
{
glyphname = Ucircumflex;
layers = (
{
layerId = "FD6F9899-E567-4A26-8444-C317D4100EC1";
paths = (
{
closed = 1;
nodes = (
"692 1914 LINE",
"568 1914 LINE",
"279 1617 LINE",
"434 1617 LINE",
"624 1819 LINE",
"636 1819 LINE",
"826 1617 LINE",
"981 1617 LINE"
);
},
{
closed = 1;
nodes = (
"405 96 OFFCURVE",
"271 248 OFFCURVE",
"271 505 CURVE SMOOTH",
"271 1443 LINE",
"135 1443 LINE",
"135 496 LINE SMOOTH",
"135 168 OFFCURVE",
"322 -30 OFFCURVE",
"633 -30 CURVE SMOOTH",
"944 -30 OFFCURVE",
"1131 168 OFFCURVE",
"1131 496 CURVE SMOOTH",
"1131 1443 LINE",
"995 1443 LINE",
"995 505 LINE SMOOTH",
"995 248 OFFCURVE",
"861 96 OFFCURVE",
"633 96 CURVE SMOOTH"
);
}
);
width = 1266;
}
);
note = Ucircumflex;
unicode = 00DB;
},
{
glyphname = Ucircumflexbelow;
layers = (
{
layerId = "FD6F9899-E567-4A26-8444-C317D4100EC1";
paths = (
{
closed = 1;
nodes = (
"405 96 OFFCURVE",
"271 248 OFFCURVE",
"271 505 CURVE SMOOTH",
"271 1443 LINE",
"135 1443 LINE",
"135 496 LINE SMOOTH",
"135 168 OFFCURVE",
"322 -30 OFFCURVE",
"633 -30 CURVE SMOOTH",
"944 -30 OFFCURVE",
"1131 168 OFFCURVE",
"1131 496 CURVE SMOOTH",
"1131 1443 LINE",
"995 1443 LINE",
"995 505 LINE SMOOTH",
"995 248 OFFCURVE",
"861 96 OFFCURVE",
"633 96 CURVE SMOOTH"
);
},
{
closed = 1;
nodes = (
"546 -169 LINE",
"270 -504 LINE",
"440 -504 LINE",
"623 -269 LINE",
"637 -269 LINE",
"820 -504 LINE",
"990 -504 LINE",
"714 -169 LINE"
);
}
);
width = 1266;
}
);
note = Ucircumflexbelow;
unicode = 1E76;
},
{
glyphname = Udblgrave;
layers = (
{
layerId = "FD6F9899-E567-4A26-8444-C317D4100EC1";
paths = (
{
closed = 1;
nodes = (
"572 1617 LINE",
"262 1914 LINE",
"88 1914 LINE",
"414 1617 LINE"
);
},
{
closed = 1;
nodes = (
"936 1617 LINE",
"626 1914 LINE",
"452 1914 LINE",
"778 1617 LINE"
);
},
{
closed = 1;
nodes = (
"405 96 OFFCURVE",
"271 248 OFFCURVE",
"271 505 CURVE SMOOTH",
"271 1443 LINE",
"135 1443 LINE",
"135 496 LINE SMOOTH",
"135 168 OFFCURVE",
"322 -30 OFFCURVE",
"633 -30 CURVE SMOOTH",
"944 -30 OFFCURVE",
"1131 168 OFFCURVE",
"1131 496 CURVE SMOOTH",
"1131 1443 LINE",
"995 1443 LINE",
"995 505 LINE SMOOTH",
"995 248 OFFCURVE",
"861 96 OFFCURVE",
"633 96 CURVE SMOOTH"
);
}
);
width = 1266;
}
);
note = Udblgrave;
unicode = 0214;
},
